<svg width="201" height="22" viewBox="0 0 201 22" fill="none" xmlns="http://www.w3.org/2000/svg">
<path d="M89 0H3C1.34315 0 0 1.34315 0 3C0 4.65685 1.34315 6 3 6H89V0Z" fill="#D9D9D9"/>
<path d="M89 8H23C21.3431 8 20 9.34315 20 11C20 12.6569 21.3431 14 23 14H89V8Z" fill="#D9D9D9"/>
<path d="M89 16H46C44.3431 16 43 17.3431 43 19C43 20.6569 44.3431 22 46 22H89V16Z" fill="#D9D9D9"/>
<path d="M112 0L198 7.51836e-06C199.657 7.66321e-06 201 1.34315 201 3.00001C201 4.65686 199.657 6.00001 198 6.00001L112 6L112 0Z" fill="#D9D9D9"/>
<path d="M112 8L178 8.00001C179.657 8.00001 181 9.34315 181 11C181 12.6569 179.657 14 178 14L112 14L112 8Z" fill="#D9D9D9"/>
<path d="M112 16L155 16C156.657 16 158 17.3431 158 19C158 20.6569 156.657 22 155 22L112 22L112 16Z" fill="#D9D9D9"/>
</svg>
