<svg width="255" height="252" viewBox="0 0 255 252" fill="none" xmlns="http://www.w3.org/2000/svg">
<path d="M243.87 27.3484L242.734 27.1308C242.673 27.1204 242.61 27.1248 242.551 27.1437C242.492 27.1627 242.438 27.1955 242.394 27.2396L241.565 28.0488C241.514 28.0989 241.451 28.1339 241.381 28.1496C241.312 28.1654 241.239 28.1614 241.172 28.138C241.105 28.1146 241.045 28.0728 241 28.0174C240.956 27.962 240.927 27.8951 240.919 27.8244L240.776 26.6752C240.768 26.6135 240.746 26.5546 240.71 26.5037C240.675 26.4527 240.627 26.4112 240.572 26.3828L239.545 25.8524C239.484 25.819 239.433 25.7698 239.398 25.71C239.362 25.6502 239.344 25.5819 239.344 25.5124C239.344 25.4429 239.362 25.3746 239.398 25.3148C239.433 25.255 239.484 25.2058 239.545 25.1724L240.592 24.6828C240.649 24.6568 240.699 24.6171 240.737 24.5673C240.775 24.5174 240.8 24.459 240.81 24.3972L241 23.2548C241.008 23.1788 241.038 23.1068 241.086 23.048C241.135 22.9893 241.2 22.9465 241.273 22.9252C241.347 22.904 241.425 22.9052 241.497 22.9288C241.57 22.9524 241.634 22.9973 241.68 23.0576L242.469 23.9008C242.512 23.9468 242.565 23.9819 242.624 24.0032C242.684 24.0245 242.747 24.0314 242.809 24.0232L243.952 23.8464C244.022 23.837 244.094 23.8472 244.159 23.8758C244.224 23.9044 244.28 23.9503 244.321 24.0086C244.361 24.0668 244.385 24.1352 244.39 24.2061C244.394 24.2771 244.379 24.3479 244.346 24.4108L243.782 25.424C243.753 25.4785 243.738 25.5392 243.738 25.6008C243.738 25.6624 243.753 25.7231 243.782 25.7776L244.305 26.8112C244.337 26.8764 244.35 26.9495 244.342 27.0218C244.334 27.094 244.305 27.1625 244.259 27.219C244.214 27.2755 244.153 27.3177 244.084 27.3406C244.015 27.3635 243.941 27.3663 243.87 27.3484Z" fill="#407BFF"/>
<path d="M44.7313 102.727L44.2689 101.666C44.2444 101.608 44.2062 101.558 44.1575 101.519C44.1089 101.48 44.0514 101.453 43.9901 101.441L42.8409 101.224C42.7684 101.21 42.7011 101.177 42.6471 101.126C42.593 101.076 42.5545 101.012 42.5359 100.94C42.5173 100.869 42.5195 100.793 42.5423 100.723C42.565 100.653 42.6073 100.591 42.6641 100.544L43.5209 99.7958C43.5676 99.7547 43.6037 99.703 43.6262 99.645C43.6487 99.587 43.6569 99.5244 43.6501 99.4626L43.5209 98.3202C43.5124 98.2497 43.5237 98.1782 43.5537 98.1138C43.5836 98.0494 43.631 97.9947 43.6904 97.9558C43.7498 97.9169 43.8189 97.8954 43.8899 97.8937C43.9609 97.892 44.0309 97.9102 44.0921 97.9462L45.0917 98.5378C45.1463 98.5664 45.207 98.5813 45.2685 98.5813C45.3301 98.5813 45.3908 98.5664 45.4453 98.5378L46.4993 98.055C46.5637 98.0255 46.6351 98.0145 46.7054 98.0234C46.7757 98.0322 46.8421 98.0605 46.8972 98.105C46.9523 98.1495 46.9939 98.2085 47.0173 98.2753C47.0407 98.3422 47.045 98.4142 47.0297 98.4834L46.7781 99.6122C46.7642 99.6723 46.7656 99.735 46.7822 99.7944C46.7988 99.8538 46.8302 99.9081 46.8733 99.9522L47.6553 100.802C47.704 100.854 47.7371 100.919 47.7508 100.989C47.7644 101.059 47.7581 101.132 47.7326 101.198C47.7071 101.265 47.6634 101.323 47.6064 101.366C47.5495 101.409 47.4816 101.435 47.4105 101.441L46.2613 101.55C46.1996 101.558 46.1404 101.579 46.0885 101.614C46.0366 101.648 45.9933 101.694 45.9621 101.747L45.3977 102.754C45.3624 102.812 45.3122 102.86 45.2522 102.892C45.1921 102.924 45.1246 102.94 45.0565 102.937C44.9884 102.934 44.9224 102.913 44.8652 102.876C44.808 102.839 44.7618 102.788 44.7313 102.727Z" fill="#407BFF"/>
<path d="M68.4293 132.905L69.0073 131.898C69.0359 131.844 69.0508 131.783 69.0508 131.722C69.0508 131.66 69.0359 131.599 69.0073 131.545L68.5041 130.504C68.4737 130.439 68.4619 130.367 68.4701 130.296C68.4784 130.225 68.5063 130.157 68.5507 130.1C68.5951 130.044 68.6543 130.001 68.7217 129.976C68.7892 129.952 68.8621 129.946 68.9325 129.96L70.0613 130.198C70.1225 130.212 70.186 130.21 70.2464 130.193C70.3068 130.177 70.3623 130.146 70.4081 130.103L71.2445 129.308C71.2962 129.259 71.3604 129.226 71.4299 129.212C71.4994 129.198 71.5714 129.204 71.6378 129.229C71.7043 129.253 71.7625 129.296 71.8059 129.352C71.8494 129.408 71.8763 129.475 71.8837 129.546L72.0061 130.695C72.0136 130.756 72.0362 130.815 72.0718 130.866C72.1073 130.917 72.1548 130.959 72.2101 130.987L73.2233 131.538C73.2862 131.57 73.3391 131.618 73.3761 131.678C73.413 131.738 73.4326 131.808 73.4326 131.878C73.4326 131.949 73.413 132.018 73.3761 132.078C73.3391 132.138 73.2862 132.186 73.2233 132.218L72.1693 132.687C72.1132 132.713 72.0641 132.751 72.0262 132.8C71.9883 132.848 71.9627 132.905 71.9517 132.966L71.7409 134.108C71.7314 134.183 71.6998 134.254 71.6502 134.311C71.6006 134.367 71.5353 134.408 71.4624 134.428C71.3895 134.448 71.3125 134.445 71.241 134.421C71.1695 134.397 71.1068 134.352 71.0609 134.292L70.2857 133.435C70.2443 133.389 70.1923 133.354 70.1342 133.333C70.0762 133.311 70.0138 133.305 69.9525 133.313L68.8033 133.462C68.7347 133.469 68.6656 133.457 68.6032 133.428C68.5409 133.399 68.4877 133.353 68.4493 133.296C68.4109 133.238 68.3888 133.172 68.3853 133.103C68.3817 133.034 68.397 132.966 68.4293 132.905Z" fill="#407BFF"/>
<path d="M70.754 53.5898L68.714 51.0058C68.6033 50.8693 68.4616 50.7612 68.3008 50.6902C68.14 50.6193 67.9647 50.5876 67.7892 50.5978L64.498 50.8222C64.2957 50.8356 64.0936 50.7923 63.9146 50.697C63.7356 50.6017 63.5868 50.4583 63.485 50.2829C63.3832 50.1076 63.3324 49.9072 63.3384 49.7045C63.3443 49.5019 63.4068 49.3049 63.5188 49.1358L65.3412 46.4158C65.4385 46.269 65.4991 46.1009 65.5181 45.9258C65.537 45.7507 65.5137 45.5736 65.45 45.4094L64.2192 42.3562C64.1434 42.168 64.1218 41.9624 64.1567 41.7626C64.1916 41.5627 64.2817 41.3766 64.4167 41.2253C64.5518 41.0739 64.7265 40.9634 64.9211 40.9061C65.1157 40.8488 65.3225 40.847 65.518 40.901L68.6936 41.7918C68.8632 41.8391 69.0418 41.844 69.2138 41.806C69.3857 41.7681 69.5457 41.6885 69.6796 41.5742L72.2092 39.4662C72.3638 39.3345 72.5522 39.2491 72.7531 39.2195C72.9539 39.19 73.159 39.2176 73.3449 39.2992C73.5308 39.3808 73.69 39.5131 73.8042 39.6809C73.9185 39.8487 73.9831 40.0453 73.9908 40.2482L74.1336 43.5462C74.1413 43.7211 74.191 43.8915 74.2786 44.043C74.3662 44.1945 74.4891 44.3227 74.6368 44.4166L77.4316 46.171C77.6026 46.2796 77.7398 46.4338 77.8279 46.6161C77.9159 46.7985 77.9514 47.0018 77.9302 47.2032C77.909 47.4046 77.832 47.5961 77.7079 47.7561C77.5837 47.9162 77.4174 48.0384 77.2276 48.109L74.12 49.231C73.9538 49.292 73.805 49.3926 73.6865 49.5242C73.568 49.6557 73.4834 49.8142 73.44 49.9858L72.6376 53.1818C72.5848 53.3732 72.4806 53.5464 72.3363 53.6828C72.192 53.8191 72.0132 53.9135 71.8192 53.9555C71.6252 53.9975 71.4234 53.9857 71.2356 53.9212C71.0479 53.8567 70.8813 53.7421 70.754 53.5898Z" fill="#407BFF"/>
<path d="M137.925 16.5439C137.888 16.5433 137.853 16.5352 137.82 16.5199C137.786 16.5046 137.757 16.4826 137.733 16.4553C137.692 16.4041 137.673 16.3389 137.679 16.2736C137.685 16.2083 137.717 16.1482 137.767 16.106L204.738 -39.6327C204.789 -39.6743 204.854 -39.6946 204.919 -39.689C204.984 -39.6835 205.045 -39.6527 205.088 -39.6032C205.128 -39.5515 205.146 -39.4866 205.14 -39.4217C205.133 -39.3567 205.103 -39.2967 205.053 -39.2538L138.082 16.4848C138.038 16.522 137.983 16.5429 137.925 16.5439Z" fill="#454646"/>
<path d="M137.005 120.631C136.955 120.631 136.906 120.615 136.866 120.586C136.825 120.557 136.794 120.516 136.777 120.469C136.759 120.422 136.757 120.371 136.77 120.323C136.783 120.274 136.81 120.231 136.848 120.198L203.819 64.4547C203.871 64.4148 203.935 64.3962 204 64.4026C204.065 64.409 204.125 64.44 204.168 64.4892C204.189 64.5138 204.205 64.5424 204.214 64.5733C204.224 64.6041 204.227 64.6365 204.224 64.6687C204.221 64.7008 204.211 64.7319 204.196 64.7603C204.18 64.7886 204.159 64.8135 204.134 64.8336L137.143 120.577C137.103 120.608 137.055 120.627 137.005 120.631Z" fill="#454646"/>
<path d="M106.206 153.079C106.169 153.079 106.133 153.072 106.1 153.056C106.067 153.041 106.037 153.018 106.014 152.99C105.993 152.966 105.977 152.937 105.968 152.906C105.958 152.875 105.955 152.843 105.958 152.811C105.961 152.779 105.971 152.748 105.987 152.719C106.002 152.691 106.023 152.666 106.048 152.646L125.728 136.262C125.779 136.222 125.843 136.202 125.908 136.209C125.972 136.215 126.031 136.247 126.073 136.297C126.094 136.321 126.11 136.349 126.12 136.38C126.13 136.411 126.133 136.443 126.131 136.475C126.128 136.507 126.119 136.539 126.104 136.567C126.089 136.596 126.068 136.621 126.043 136.641L106.363 153.025C106.318 153.06 106.263 153.079 106.206 153.079Z" fill="#454646"/>
<path d="M129.35 133.817C129.314 133.816 129.279 133.808 129.247 133.793C129.214 133.777 129.186 133.756 129.163 133.728C129.121 133.678 129.101 133.613 129.106 133.548C129.112 133.482 129.143 133.422 129.192 133.379L173.02 96.9021C173.044 96.8814 173.073 96.8659 173.104 96.8563C173.135 96.8467 173.167 96.8433 173.2 96.8463C173.232 96.8492 173.263 96.8585 173.292 96.8736C173.32 96.8887 173.346 96.9092 173.366 96.9341C173.387 96.959 173.403 96.9877 173.412 97.0186C173.422 97.0495 173.425 97.0819 173.422 97.1141C173.419 97.1464 173.41 97.1777 173.395 97.2063C173.38 97.2349 173.359 97.2603 173.334 97.2809L129.507 133.768C129.462 133.802 129.406 133.819 129.35 133.817Z" fill="#454646"/>
<path d="M198.963 127.338C198.927 127.338 198.892 127.33 198.859 127.314C198.827 127.299 198.799 127.277 198.776 127.249C198.734 127.199 198.714 127.134 198.72 127.068C198.725 127.003 198.756 126.943 198.806 126.9L256.561 78.8166C256.612 78.7749 256.676 78.7548 256.741 78.7608C256.807 78.7668 256.866 78.7984 256.908 78.8486C256.95 78.8989 256.97 78.9636 256.964 79.0287C256.958 79.0937 256.927 79.1537 256.876 79.1955L199.12 127.279C199.077 127.317 199.021 127.338 198.963 127.338Z" fill="#454646"/>
<path d="M192.724 143.558C192.688 143.559 192.653 143.551 192.621 143.536C192.588 143.52 192.56 143.498 192.537 143.47C192.516 143.446 192.5 143.417 192.49 143.387C192.48 143.356 192.477 143.324 192.479 143.292C192.482 143.259 192.491 143.228 192.506 143.2C192.521 143.171 192.542 143.146 192.567 143.126L222.977 117.812C223.028 117.77 223.093 117.75 223.158 117.756C223.223 117.761 223.284 117.792 223.327 117.842C223.348 117.867 223.363 117.896 223.373 117.927C223.383 117.958 223.386 117.991 223.383 118.024C223.38 118.056 223.37 118.088 223.354 118.116C223.339 118.145 223.318 118.17 223.292 118.191L192.882 143.504C192.838 143.541 192.782 143.56 192.724 143.558Z" fill="#454646"/>
<path d="M224.949 116.735C224.914 116.734 224.879 116.727 224.847 116.713C224.815 116.698 224.786 116.677 224.762 116.651C224.721 116.601 224.7 116.536 224.706 116.47C224.711 116.405 224.742 116.345 224.792 116.302L228.728 113.03C228.778 112.988 228.843 112.968 228.908 112.974C228.973 112.98 229.033 113.012 229.075 113.062C229.116 113.112 229.137 113.177 229.131 113.242C229.125 113.307 229.093 113.367 229.043 113.409L225.107 116.681C225.063 116.718 225.007 116.737 224.949 116.735Z" fill="#454646"/>
<path d="M242.642 34.5757C242.605 34.5751 242.569 34.5669 242.536 34.5517C242.503 34.5364 242.474 34.5144 242.45 34.4871C242.41 34.4355 242.391 34.3705 242.398 34.3056C242.404 34.2407 242.435 34.1806 242.484 34.1378L278.641 4.04214C278.693 4.00226 278.758 3.9836 278.823 3.99C278.888 3.99641 278.948 4.02738 278.991 4.07658C279.031 4.12695 279.051 4.19137 279.044 4.25586C279.038 4.32035 279.006 4.37969 278.956 4.42098L242.784 34.5166C242.744 34.5508 242.694 34.5715 242.642 34.5757Z" fill="#454646"/>
<path d="M201.456 15.8551C201.42 15.8555 201.383 15.8478 201.35 15.8325C201.317 15.8171 201.288 15.7946 201.264 15.7665C201.223 15.716 201.202 15.6511 201.208 15.5859C201.213 15.5206 201.244 15.4601 201.294 15.4172L237.456 -14.6735C237.48 -14.6987 237.508 -14.7186 237.54 -14.7318C237.573 -14.7451 237.607 -14.7514 237.642 -14.7504C237.676 -14.7494 237.71 -14.7411 237.742 -14.726C237.773 -14.7109 237.8 -14.6895 237.823 -14.6629C237.845 -14.6364 237.861 -14.6055 237.871 -14.5722C237.881 -14.5389 237.883 -14.5039 237.878 -14.4696C237.873 -14.4353 237.861 -14.4024 237.843 -14.3731C237.824 -14.3438 237.8 -14.3188 237.771 -14.2996L201.614 15.796C201.569 15.8332 201.514 15.8541 201.456 15.8551Z" fill="#454646"/>
<path d="M200.624 36.6521C200.574 36.6516 200.526 36.6359 200.485 36.6069C200.444 36.578 200.413 36.5373 200.396 36.4902C200.379 36.4431 200.376 36.392 200.389 36.3435C200.402 36.2951 200.429 36.2517 200.467 36.2192L231.616 10.276C231.666 10.2344 231.731 10.2141 231.796 10.2196C231.861 10.2252 231.922 10.256 231.965 10.3055C232.005 10.3572 232.023 10.4221 232.017 10.487C232.011 10.5519 231.98 10.612 231.93 10.6548L200.782 36.598C200.738 36.6354 200.682 36.6547 200.624 36.6521Z" fill="#454646"/>
<path d="M234.087 8.79983C234.05 8.80025 234.014 8.79252 233.981 8.7772C233.947 8.76188 233.918 8.73936 233.895 8.71127C233.854 8.6609 233.835 8.59648 233.841 8.53199C233.848 8.4675 233.879 8.40816 233.929 8.36687L236.63 6.11843C236.655 6.09733 236.683 6.08133 236.714 6.07137C236.744 6.06141 236.776 6.0577 236.809 6.06045C236.841 6.0632 236.872 6.07237 236.9 6.0874C236.929 6.10242 236.954 6.12301 236.975 6.14795C237.016 6.19851 237.036 6.26335 237.031 6.32862C237.025 6.39389 236.995 6.45442 236.945 6.49727L234.244 8.74571C234.199 8.7815 234.144 8.80064 234.087 8.79983Z" fill="#454646"/>
<path d="M68.7644 53.2916C68.7278 53.292 68.6916 53.2843 68.6584 53.2689C68.6252 53.2536 68.5959 53.2311 68.5725 53.203C68.5517 53.1783 68.536 53.1497 68.5264 53.1189C68.5169 53.0881 68.5136 53.0556 68.5168 53.0235C68.52 52.9914 68.5297 52.9603 68.5451 52.9319C68.5606 52.9036 68.5816 52.8787 68.6069 52.8586L98.7124 27.801C98.7368 27.7799 98.7651 27.7639 98.7957 27.754C98.8264 27.744 98.8587 27.7403 98.8908 27.7431C98.9229 27.7458 98.9542 27.755 98.9827 27.77C99.0112 27.785 99.0364 27.8056 99.0568 27.8306C99.0984 27.8811 99.1187 27.946 99.1132 28.0112C99.1076 28.0765 99.0768 28.137 99.0273 28.1799L68.9169 53.2375C68.8734 53.2718 68.8198 53.2909 68.7644 53.2916Z" fill="#454646"/>
<path d="M101.137 26.3447C101.101 26.3448 101.065 26.3369 101.032 26.3216C100.998 26.3063 100.969 26.284 100.945 26.2562C100.905 26.2058 100.885 26.1414 100.892 26.0769C100.898 26.0124 100.93 25.9531 100.98 25.9118L104.763 22.763C104.788 22.7419 104.816 22.7259 104.847 22.7159C104.877 22.7059 104.91 22.7022 104.942 22.705C104.974 22.7077 105.005 22.7169 105.034 22.7319C105.062 22.7469 105.087 22.7675 105.108 22.7925C105.149 22.843 105.17 22.9079 105.164 22.9732C105.159 23.0384 105.128 23.0989 105.078 23.1418L101.295 26.2906C101.251 26.3272 101.195 26.3464 101.137 26.3447Z" fill="#454646"/>
<path d="M85.8376 33.7393C85.8018 33.7397 85.7663 33.7319 85.7339 33.7166C85.7015 33.7012 85.6731 33.6787 85.6507 33.6507C85.6296 33.6264 85.6136 33.598 85.6036 33.5674C85.5936 33.5367 85.5899 33.5044 85.5927 33.4723C85.5954 33.4402 85.6046 33.409 85.6196 33.3805C85.6346 33.3519 85.6552 33.3267 85.6802 33.3063L121.837 3.2107C121.862 3.19002 121.891 3.17445 121.922 3.16486C121.953 3.15528 121.985 3.15188 122.017 3.15485C122.05 3.15782 122.081 3.16711 122.109 3.18218C122.138 3.19725 122.163 3.2178 122.184 3.24268C122.205 3.26755 122.22 3.29626 122.23 3.32715C122.24 3.35804 122.243 3.39052 122.24 3.42273C122.237 3.45494 122.228 3.48625 122.213 3.51487C122.198 3.54349 122.177 3.56886 122.152 3.58954L85.9754 33.6852C85.9364 33.7175 85.8881 33.7365 85.8376 33.7393Z" fill="#454646"/>
<path d="M178.562 121.384C175.856 123.244 173.996 126.796 171.512 133.768C170.036 137.9 168.068 137.93 166.39 136.262C164.712 134.594 168.732 129.325 168.732 129.325C168.732 129.325 165.121 130.156 162.621 132.656C160.122 135.155 161.79 137.084 161.234 140.434C160.678 143.785 155.158 144.498 149.844 145.433C144.53 146.368 138.882 148.567 136.56 153.905C133.716 160.473 136.855 167.233 143.596 169.57C147.758 171.007 155.015 170.417 157.613 166.264C159 164.04 157.372 161.836 159.581 159.598C161.79 157.359 164.555 160.985 167.344 157.384C170.134 153.782 173.74 148.498 173.74 148.498C171.459 150.247 168.933 151.649 166.242 152.66C161.814 154.328 160.963 151.553 162.356 149.61C163.748 147.667 167.768 148.134 172.073 145.182C178.405 140.857 176.446 133.625 177.558 128.346C178.67 123.067 188.461 119.077 188.461 119.077C184.99 118.595 181.463 119.417 178.562 121.384Z" fill="#407BFF"/>
<path d="M148.32 170.771C146.675 170.789 145.038 170.54 143.473 170.033C141.838 169.508 140.331 168.647 139.047 167.506C137.764 166.365 136.733 164.968 136.02 163.406C135.365 161.87 135.038 160.214 135.06 158.544C135.081 156.875 135.45 155.228 136.143 153.709C138.111 149.143 142.711 146.191 149.786 144.946L150.824 144.769C155.488 143.957 160.31 143.126 160.772 140.341C160.913 139.346 160.925 138.337 160.806 137.34C160.664 135.657 160.531 134.068 162.282 132.297C164.079 130.636 166.262 129.452 168.634 128.853C168.732 128.833 168.834 128.843 168.925 128.882C169.017 128.921 169.095 128.987 169.148 129.072C169.202 129.156 169.228 129.255 169.224 129.354C169.22 129.454 169.186 129.55 169.126 129.63C167.567 131.682 165.8 134.988 166.735 135.928C167.227 136.42 167.955 136.956 168.703 136.784C169.569 136.587 170.381 135.49 171.05 133.61C173.721 126.132 175.616 122.831 178.287 120.991C181.285 118.928 184.947 118.066 188.55 118.575C188.655 118.594 188.75 118.647 188.821 118.725C188.893 118.803 188.938 118.902 188.949 119.008C188.957 119.112 188.931 119.215 188.876 119.303C188.822 119.392 188.74 119.461 188.644 119.5C188.545 119.539 179.079 123.46 178.036 128.42C177.769 129.933 177.619 131.464 177.589 133C177.387 137.35 177.151 142.279 172.349 145.561C170.438 146.805 168.333 147.719 166.12 148.267C164.56 148.72 163.33 149.074 162.75 149.886C162.169 150.698 162.061 151.618 162.474 152.149C163.001 152.833 164.31 152.853 166.066 152.193C168.712 151.196 171.198 149.819 173.446 148.105C173.538 148.029 173.654 147.988 173.772 147.991C173.891 147.994 174.005 148.04 174.093 148.121C174.181 148.201 174.236 148.311 174.249 148.429C174.262 148.547 174.232 148.666 174.164 148.764C174.125 148.818 170.514 154.092 167.768 157.674C166.046 159.913 164.221 159.642 162.755 159.421C161.633 159.253 160.747 159.121 159.955 159.942C158.868 161.054 158.843 162.112 158.814 163.337C158.876 164.448 158.62 165.554 158.076 166.525C156.123 169.585 152.034 170.771 148.32 170.771ZM167.508 130.23C165.823 130.833 164.282 131.777 162.981 133.005C161.535 134.452 161.633 135.632 161.771 137.266C161.9 138.346 161.885 139.437 161.727 140.513C161.151 143.957 156.211 144.828 150.976 145.738L149.943 145.915C143.213 147.101 138.868 149.851 137.033 154.102C136.393 155.497 136.051 157.01 136.029 158.544C136.007 160.078 136.306 161.6 136.905 163.012C137.566 164.451 138.52 165.736 139.706 166.785C140.892 167.834 142.284 168.624 143.793 169.103C147.729 170.471 154.765 169.949 157.23 166.004C157.676 165.18 157.881 164.247 157.82 163.312C157.85 162.063 157.884 160.646 159.237 159.253C160.388 158.073 161.697 158.269 162.893 158.447C164.29 158.653 165.613 158.85 166.981 157.074C168.585 154.988 170.484 152.316 171.793 150.456C170.096 151.514 168.3 152.404 166.43 153.113C163.429 154.24 162.184 153.369 161.712 152.749C161.033 151.864 161.136 150.481 161.968 149.305C162.745 148.218 164.123 147.829 165.864 147.337C167.977 146.817 169.987 145.948 171.813 144.764C176.211 141.758 176.423 137.286 176.624 132.956C176.658 131.369 176.814 129.786 177.092 128.223C177.953 124.134 183.557 120.872 186.504 119.416C183.765 119.429 181.091 120.256 178.824 121.793C176.339 123.495 174.543 126.673 171.936 133.93C171.134 136.179 170.105 137.458 168.875 137.733C167.94 137.945 166.947 137.556 166.002 136.612C164.619 135.19 166.341 132.006 167.508 130.23Z" fill="#263238"/>
<path opacity="0.59" d="M141.609 151.244C141.609 151.244 137.481 154.481 138.199 159.868C138.917 165.256 141.791 168.311 148.079 168.311C154.366 168.311 155.98 164.178 155.98 161.487C155.98 158.796 157.24 156.995 158.317 156.636C159.196 156.4 160.103 156.279 161.013 156.277C161.013 156.277 157.776 155.017 157.24 152.503C156.703 149.989 159.395 149.089 161.176 147.652C162.957 146.215 163.69 142.983 163.69 142.983C163.69 142.983 162.076 144.951 158.479 145.856C154.883 146.761 145.924 146.934 141.609 151.244Z" fill="white"/>
<path d="M139.813 165.079C139.813 165.079 135.685 159.667 140.172 154.481C144.659 149.295 148.811 152.144 150.779 151.972C152.747 151.799 155.094 150.358 155.094 150.358C155.094 150.358 151.862 153.59 151.862 155.568C151.862 157.546 155.271 156.823 155.271 156.823C155.271 156.823 154.553 158.978 152.939 162.751C151.326 166.525 147.729 167.962 144.497 167.78C143.558 167.733 142.643 167.463 141.829 166.994C141.015 166.524 140.324 165.868 139.813 165.079Z" fill="white"/>
<path d="M144.27 160.695C144.245 160.917 144.154 161.126 144.01 161.296C143.866 161.467 143.674 161.591 143.46 161.652C143.245 161.713 143.017 161.709 142.805 161.641C142.592 161.572 142.405 161.442 142.266 161.267C142.128 161.092 142.045 160.88 142.027 160.657C142.009 160.435 142.058 160.212 142.168 160.017C142.277 159.823 142.441 159.665 142.64 159.564C142.839 159.463 143.064 159.423 143.286 159.45C143.581 159.486 143.85 159.637 144.034 159.87C144.218 160.103 144.303 160.4 144.27 160.695Z" fill="#407BFF"/>
<path d="M145.456 158.245C145.442 158.369 145.391 158.485 145.311 158.58C145.23 158.675 145.124 158.744 145.004 158.778C144.884 158.812 144.757 158.81 144.639 158.772C144.52 158.734 144.416 158.662 144.338 158.564C144.261 158.467 144.214 158.349 144.203 158.225C144.193 158.101 144.22 157.977 144.28 157.868C144.34 157.759 144.431 157.67 144.541 157.613C144.652 157.556 144.777 157.533 144.901 157.546C145.067 157.566 145.218 157.651 145.322 157.781C145.426 157.912 145.474 158.079 145.456 158.245Z" fill="#407BFF"/>
<path d="M146.352 161.039C146.344 161.107 146.324 161.172 146.291 161.232C146.258 161.291 146.214 161.344 146.161 161.386C146.108 161.429 146.047 161.46 145.982 161.479C145.917 161.498 145.848 161.504 145.781 161.497C145.713 161.489 145.648 161.469 145.589 161.436C145.529 161.403 145.476 161.359 145.434 161.306C145.392 161.253 145.36 161.192 145.341 161.127C145.322 161.062 145.316 160.994 145.323 160.926C145.339 160.789 145.409 160.664 145.517 160.579C145.625 160.493 145.762 160.453 145.899 160.469C146.035 160.485 146.158 160.554 146.243 160.661C146.328 160.767 146.367 160.904 146.352 161.039Z" fill="#407BFF"/>
<path d="M141.923 164.469C141.905 164.646 141.835 164.815 141.721 164.953C141.607 165.09 141.455 165.191 141.284 165.242C141.113 165.293 140.93 165.292 140.76 165.238C140.589 165.185 140.438 165.083 140.326 164.943C140.214 164.804 140.146 164.635 140.13 164.457C140.115 164.279 140.153 164.1 140.239 163.944C140.325 163.787 140.456 163.66 140.615 163.578C140.774 163.497 140.954 163.464 141.131 163.485C141.366 163.511 141.582 163.629 141.73 163.813C141.879 163.997 141.948 164.233 141.923 164.469Z" fill="#407BFF"/>
<path d="M144.414 164.272C144.409 164.319 144.394 164.365 144.371 164.406C144.349 164.448 144.318 164.485 144.281 164.514C144.244 164.544 144.201 164.566 144.156 164.58C144.11 164.593 144.062 164.597 144.015 164.592C143.968 164.587 143.922 164.572 143.881 164.549C143.839 164.527 143.803 164.496 143.773 164.459C143.743 164.422 143.721 164.379 143.708 164.334C143.695 164.288 143.69 164.24 143.696 164.193C143.7 164.146 143.715 164.1 143.737 164.058C143.76 164.017 143.791 163.98 143.828 163.95C143.865 163.92 143.908 163.898 143.953 163.885C143.999 163.872 144.047 163.868 144.094 163.873C144.189 163.885 144.276 163.933 144.336 164.007C144.395 164.082 144.424 164.177 144.414 164.272Z" fill="#407BFF"/>
<path d="M140.821 160.759C140.8 160.946 140.725 161.122 140.604 161.266C140.483 161.41 140.322 161.515 140.141 161.567C139.961 161.619 139.769 161.617 139.59 161.56C139.411 161.503 139.252 161.394 139.135 161.247C139.018 161.1 138.947 160.922 138.931 160.734C138.915 160.547 138.955 160.359 139.046 160.195C139.137 160.031 139.275 159.897 139.442 159.811C139.609 159.725 139.798 159.69 139.985 159.711C140.234 159.74 140.463 159.866 140.619 160.062C140.776 160.259 140.849 160.509 140.821 160.759Z" fill="#407BFF"/>
<path d="M141.639 158.333C141.63 158.414 141.605 158.491 141.566 158.562C141.527 158.633 141.474 158.696 141.411 158.746C141.348 158.797 141.275 158.834 141.197 158.857C141.12 158.879 141.038 158.886 140.958 158.877C140.877 158.868 140.799 158.843 140.729 158.804C140.658 158.765 140.595 158.712 140.545 158.649C140.494 158.585 140.457 158.513 140.434 158.435C140.412 158.357 140.405 158.276 140.414 158.195C140.423 158.115 140.447 158.037 140.486 157.966C140.525 157.896 140.577 157.833 140.64 157.783C140.704 157.733 140.776 157.695 140.854 157.673C140.931 157.651 141.013 157.645 141.093 157.654C141.255 157.673 141.403 157.754 141.505 157.882C141.608 158.009 141.656 158.171 141.639 158.333Z" fill="#407BFF"/>
<path d="M139.145 157.123C139.136 157.182 139.105 157.236 139.059 157.273C139.012 157.311 138.953 157.329 138.894 157.325C138.834 157.317 138.78 157.287 138.744 157.24C138.707 157.193 138.69 157.133 138.697 157.074C138.7 157.045 138.709 157.016 138.723 156.991C138.737 156.965 138.756 156.942 138.779 156.924C138.802 156.906 138.828 156.892 138.856 156.884C138.884 156.876 138.914 156.874 138.943 156.877C138.972 156.879 139.001 156.888 139.027 156.902C139.054 156.915 139.077 156.934 139.096 156.957C139.115 156.98 139.129 157.007 139.137 157.035C139.145 157.064 139.148 157.094 139.145 157.123Z" fill="#407BFF"/>
<path d="M144.275 166.318C144.255 166.496 144.165 166.659 144.025 166.771C143.884 166.883 143.705 166.934 143.527 166.914C143.349 166.893 143.186 166.803 143.075 166.663C142.963 166.523 142.912 166.344 142.932 166.166C142.941 166.077 142.968 165.991 143.011 165.913C143.053 165.835 143.111 165.766 143.181 165.711C143.251 165.656 143.331 165.615 143.416 165.59C143.502 165.566 143.592 165.56 143.68 165.571C143.768 165.58 143.854 165.607 143.931 165.65C144.009 165.693 144.078 165.751 144.133 165.821C144.188 165.89 144.229 165.97 144.254 166.055C144.278 166.141 144.285 166.23 144.275 166.318Z" fill="#407BFF"/>
<path d="M148.571 164.395C148.545 164.625 148.452 164.843 148.302 165.02C148.153 165.197 147.955 165.325 147.732 165.39C147.51 165.454 147.273 165.451 147.052 165.381C146.832 165.31 146.637 165.176 146.492 164.995C146.348 164.814 146.26 164.595 146.241 164.364C146.221 164.133 146.27 163.902 146.382 163.699C146.494 163.496 146.664 163.331 146.869 163.225C147.075 163.118 147.308 163.075 147.538 163.101C147.691 163.118 147.839 163.164 147.974 163.238C148.109 163.312 148.228 163.412 148.324 163.533C148.42 163.653 148.491 163.791 148.534 163.939C148.576 164.087 148.589 164.242 148.571 164.395Z" fill="#407BFF"/>
<path d="M146.804 167.189C146.791 167.307 146.733 167.416 146.64 167.49C146.548 167.565 146.43 167.6 146.312 167.588C146.249 167.586 146.187 167.572 146.13 167.545C146.073 167.518 146.022 167.48 145.981 167.433C145.939 167.385 145.908 167.33 145.889 167.269C145.871 167.209 145.865 167.146 145.872 167.083C145.879 167.021 145.9 166.96 145.931 166.906C145.963 166.852 146.006 166.805 146.057 166.768C146.108 166.731 146.167 166.705 146.228 166.692C146.29 166.679 146.354 166.679 146.415 166.692C146.532 166.707 146.639 166.768 146.712 166.861C146.785 166.954 146.818 167.072 146.804 167.189Z" fill="#407BFF"/>
<path d="M151.847 164.311C151.839 164.381 151.81 164.448 151.764 164.502C151.718 164.556 151.658 164.595 151.589 164.615C151.521 164.635 151.449 164.634 151.381 164.612C151.314 164.591 151.254 164.55 151.21 164.495C151.166 164.439 151.139 164.372 151.132 164.302C151.126 164.231 151.141 164.16 151.175 164.098C151.209 164.036 151.26 163.985 151.323 163.952C151.385 163.919 151.457 163.905 151.527 163.913C151.622 163.924 151.709 163.972 151.769 164.046C151.828 164.121 151.856 164.216 151.847 164.311Z" fill="#407BFF"/>
<path d="M150.911 162.122C150.899 162.188 150.861 162.248 150.806 162.289C150.752 162.329 150.684 162.347 150.616 162.34C150.548 162.332 150.486 162.3 150.441 162.248C150.397 162.197 150.373 162.131 150.375 162.063C150.376 162.025 150.385 161.989 150.401 161.955C150.417 161.921 150.44 161.891 150.468 161.867C150.496 161.842 150.529 161.824 150.565 161.813C150.601 161.801 150.638 161.798 150.675 161.802C150.712 161.806 150.748 161.818 150.781 161.836C150.813 161.855 150.841 161.88 150.863 161.91C150.885 161.94 150.901 161.974 150.909 162.011C150.918 162.047 150.918 162.085 150.911 162.122Z" fill="#407BFF"/>
<path d="M150.445 166.284C150.43 166.416 150.376 166.541 150.289 166.643C150.203 166.744 150.089 166.818 149.961 166.854C149.833 166.891 149.697 166.889 149.57 166.848C149.443 166.808 149.331 166.73 149.248 166.626C149.165 166.522 149.115 166.395 149.104 166.263C149.093 166.13 149.121 165.997 149.185 165.881C149.25 165.764 149.347 165.669 149.466 165.608C149.584 165.547 149.717 165.522 149.85 165.536C150.027 165.559 150.189 165.649 150.3 165.789C150.411 165.929 150.463 166.106 150.445 166.284Z" fill="#407BFF"/>
<path d="M148.66 157.969C148.645 158.093 148.595 158.209 148.514 158.304C148.433 158.399 148.327 158.468 148.207 158.502C148.087 158.536 147.96 158.534 147.842 158.496C147.723 158.458 147.619 158.386 147.541 158.289C147.464 158.191 147.417 158.073 147.407 157.949C147.396 157.825 147.423 157.701 147.483 157.592C147.543 157.483 147.634 157.394 147.745 157.337C147.855 157.28 147.98 157.257 148.104 157.27C148.186 157.28 148.266 157.305 148.339 157.345C148.411 157.385 148.475 157.439 148.527 157.504C148.578 157.569 148.617 157.644 148.64 157.723C148.662 157.803 148.669 157.887 148.66 157.969Z" fill="#407BFF"/>
<path d="M149.495 155.386C149.488 155.448 149.463 155.506 149.422 155.553C149.382 155.601 149.329 155.635 149.269 155.653C149.21 155.67 149.146 155.669 149.087 155.65C149.028 155.631 148.975 155.596 148.937 155.547C148.898 155.499 148.874 155.44 148.868 155.378C148.863 155.316 148.876 155.254 148.906 155.199C148.935 155.145 148.98 155.1 149.035 155.071C149.09 155.042 149.153 155.03 149.214 155.037C149.298 155.047 149.374 155.089 149.426 155.154C149.478 155.22 149.503 155.303 149.495 155.386Z" fill="#407BFF"/>
<path d="M147.134 156.208C147.128 156.27 147.103 156.329 147.063 156.377C147.023 156.425 146.97 156.461 146.91 156.478C146.85 156.496 146.786 156.495 146.726 156.477C146.667 156.458 146.614 156.422 146.575 156.373C146.536 156.324 146.512 156.265 146.507 156.202C146.502 156.14 146.515 156.078 146.546 156.023C146.576 155.968 146.622 155.924 146.678 155.896C146.733 155.867 146.796 155.856 146.858 155.864C146.899 155.868 146.939 155.88 146.975 155.9C147.011 155.92 147.043 155.946 147.068 155.978C147.094 156.01 147.113 156.047 147.124 156.087C147.135 156.126 147.139 156.167 147.134 156.208Z" fill="#407BFF"/>
<path d="M146.382 151.637C146.374 151.708 146.345 151.774 146.299 151.828C146.253 151.882 146.193 151.921 146.125 151.941C146.057 151.961 145.984 151.96 145.917 151.938C145.849 151.917 145.789 151.876 145.745 151.821C145.701 151.765 145.674 151.698 145.667 151.628C145.661 151.557 145.676 151.486 145.71 151.424C145.744 151.362 145.795 151.311 145.858 151.278C145.921 151.245 145.992 151.231 146.062 151.239C146.157 151.25 146.244 151.298 146.304 151.372C146.364 151.447 146.392 151.542 146.382 151.637Z" fill="#407BFF"/>
<path d="M154.632 162.904C154.618 163.028 154.567 163.144 154.487 163.239C154.406 163.334 154.299 163.403 154.18 163.437C154.06 163.471 153.933 163.469 153.814 163.431C153.696 163.393 153.591 163.321 153.514 163.224C153.436 163.126 153.39 163.008 153.379 162.884C153.369 162.76 153.395 162.636 153.455 162.527C153.516 162.418 153.607 162.329 153.717 162.272C153.828 162.215 153.953 162.192 154.076 162.206C154.159 162.215 154.239 162.24 154.311 162.28C154.384 162.32 154.448 162.374 154.499 162.439C154.551 162.504 154.589 162.579 154.612 162.658C154.635 162.738 154.642 162.822 154.632 162.904Z" fill="#407BFF"/>
<path d="M153.579 165.005C153.576 165.048 153.566 165.09 153.547 165.128C153.528 165.167 153.501 165.201 153.468 165.229C153.436 165.257 153.398 165.277 153.357 165.29C153.315 165.303 153.272 165.307 153.23 165.302C153.187 165.297 153.146 165.284 153.108 165.263C153.071 165.241 153.038 165.213 153.013 165.179C152.987 165.144 152.968 165.105 152.958 165.063C152.948 165.022 152.946 164.978 152.954 164.936C152.964 164.853 153.006 164.777 153.071 164.724C153.136 164.672 153.22 164.647 153.303 164.655C153.386 164.665 153.461 164.708 153.513 164.773C153.565 164.839 153.588 164.922 153.579 165.005Z" fill="#407BFF"/>
<path d="M152.339 167.18C152.325 167.303 152.274 167.42 152.194 167.515C152.113 167.609 152.006 167.678 151.887 167.712C151.767 167.747 151.64 167.745 151.522 167.707C151.403 167.669 151.298 167.596 151.221 167.499C151.143 167.402 151.097 167.283 151.086 167.159C151.076 167.036 151.102 166.911 151.162 166.802C151.223 166.693 151.314 166.605 151.424 166.548C151.535 166.49 151.66 166.467 151.783 166.481C151.866 166.49 151.946 166.515 152.018 166.556C152.091 166.596 152.155 166.65 152.207 166.715C152.258 166.78 152.297 166.854 152.319 166.934C152.342 167.014 152.349 167.097 152.339 167.18Z" fill="#407BFF"/>
<path d="M148.507 168.208C148.495 168.313 148.452 168.413 148.383 168.495C148.315 168.576 148.224 168.636 148.122 168.666C148.02 168.696 147.911 168.695 147.81 168.664C147.708 168.633 147.618 168.572 147.55 168.49C147.483 168.407 147.441 168.307 147.43 168.201C147.42 168.095 147.44 167.989 147.49 167.895C147.54 167.8 147.616 167.723 147.709 167.672C147.802 167.621 147.909 167.598 148.015 167.607C148.087 167.614 148.157 167.634 148.221 167.668C148.285 167.701 148.342 167.748 148.387 167.804C148.433 167.86 148.468 167.924 148.488 167.994C148.508 168.063 148.515 168.136 148.507 168.208Z" fill="#407BFF"/>
<path d="M151.891 155.022C151.884 155.084 151.859 155.143 151.818 155.19C151.778 155.237 151.724 155.272 151.664 155.289C151.604 155.306 151.541 155.305 151.481 155.285C151.422 155.266 151.37 155.23 151.331 155.181C151.293 155.132 151.27 155.073 151.265 155.01C151.26 154.948 151.273 154.886 151.304 154.832C151.334 154.778 151.38 154.733 151.436 154.705C151.491 154.677 151.554 154.666 151.616 154.673C151.699 154.683 151.774 154.725 151.826 154.791C151.877 154.856 151.901 154.94 151.891 155.022Z" fill="#407BFF"/>
<path d="M155.311 160.124C155.301 160.207 155.259 160.283 155.193 160.334C155.128 160.386 155.045 160.41 154.962 160.4C154.879 160.39 154.803 160.348 154.75 160.283C154.698 160.217 154.673 160.134 154.681 160.051C154.691 159.967 154.734 159.891 154.8 159.839C154.866 159.787 154.95 159.763 155.033 159.773C155.117 159.782 155.193 159.825 155.245 159.891C155.297 159.957 155.321 160.041 155.311 160.124Z" fill="#407BFF"/>
<path d="M149.303 162.028C149.292 162.123 149.244 162.21 149.169 162.27C149.094 162.33 148.999 162.358 148.904 162.348C148.857 162.343 148.811 162.329 148.769 162.306C148.728 162.283 148.691 162.253 148.661 162.215C148.631 162.178 148.609 162.136 148.596 162.09C148.583 162.044 148.579 161.997 148.584 161.949C148.595 161.854 148.643 161.767 148.717 161.707C148.792 161.647 148.888 161.619 148.983 161.63C149.078 161.64 149.165 161.688 149.225 161.763C149.285 161.837 149.313 161.933 149.303 162.028Z" fill="#407BFF"/>
<path d="M140.447 153.645C140.439 153.725 140.407 153.802 140.355 153.864C140.303 153.926 140.234 153.972 140.157 153.994C140.079 154.017 139.996 154.017 139.919 153.992C139.842 153.968 139.773 153.921 139.723 153.858C139.672 153.795 139.641 153.718 139.634 153.638C139.627 153.557 139.645 153.476 139.684 153.405C139.723 153.334 139.782 153.277 139.854 153.24C139.926 153.203 140.008 153.188 140.088 153.197C140.141 153.203 140.193 153.219 140.24 153.244C140.287 153.27 140.328 153.304 140.361 153.346C140.395 153.388 140.42 153.435 140.434 153.487C140.449 153.538 140.454 153.592 140.447 153.645Z" fill="#407BFF"/>
<path d="M273.632 8.5739C267.118 8.31806 263.601 12.4164 264.776 15.8506C265.952 19.2847 265.077 23.0977 259.364 23.944C253.652 24.7902 248.993 23.1519 244.506 24.8197C240.019 26.4876 238.381 31.1715 237.298 36.5884C236.216 42.0053 231.311 44.2734 229.106 43.6387C226.902 43.0041 230.691 36.9771 229.638 37.4887C228.585 38.0004 222.996 40.4899 221.313 45.4985C219.631 50.5071 220.654 52.6128 214.465 54.6989C208.275 56.785 203.296 55.9142 196.905 58.4726C189.623 61.3901 185.161 72.2485 185.161 72.2485L185.432 72.6077C180.789 76.9534 177.937 82.8769 177.435 89.2165C176.933 95.5561 178.818 101.854 182.72 106.876C186.621 111.898 192.258 115.282 198.525 116.363C204.792 117.444 211.236 116.145 216.595 112.72C220.113 113.326 225.111 113.129 226.809 109.498C228.678 105.503 233.033 104.799 238.656 99.6874C240.317 98.1514 241.643 96.2896 242.552 94.2182C243.461 92.1468 243.934 89.9103 243.94 87.6482C238.858 91.2004 230.774 88.1057 232.964 84.155C235.153 80.2042 244.344 84.7552 251.064 78.8167C257.785 72.8783 261.008 61.5328 261.008 61.5328C261.008 61.5328 259.916 64.657 255.389 68.9374C250.863 73.2178 246.041 72.5487 246.041 72.5487C246.041 72.5487 254.69 66.8759 257.185 58.3791C259.679 49.8822 255.433 42.7433 256.472 37.6462C257.51 32.5491 266.459 34.1235 269.47 28.9771C272.481 23.8308 271.227 18.7386 270.11 14.9797C268.993 11.2209 273.632 8.5739 273.632 8.5739Z" fill="#407BFF"/>
<path d="M202.883 117.193C201.688 117.191 200.495 117.109 199.311 116.947C194.487 116.278 189.947 114.267 186.21 111.143C182.472 108.019 179.688 103.908 178.173 99.2787C176.659 94.6492 176.475 89.6874 177.644 84.9588C178.813 80.2301 181.286 75.9249 184.783 72.5338C184.729 72.4648 184.695 72.3829 184.684 72.2964C184.673 72.21 184.685 72.1221 184.719 72.0418C184.906 71.594 189.343 60.9767 196.733 58.0148C200.222 56.6225 203.331 56.224 206.332 55.8402C209.042 55.5788 211.718 55.0397 214.317 54.2313C218.922 52.6766 219.296 51.1908 220.039 48.229C220.251 47.3876 220.492 46.4332 220.861 45.3409C221.628 43.0531 223.715 39.7715 229.299 37.1097L229.437 37.0458C229.546 36.9798 229.673 36.9509 229.8 36.9633C229.927 36.9757 230.046 37.0288 230.14 37.1147C230.509 37.4542 230.307 37.9609 229.83 39.1909C229.387 40.3373 228.644 42.2512 228.994 42.9547C229.019 43.007 229.055 43.0531 229.1 43.0897C229.145 43.1263 229.198 43.1524 229.254 43.1663C230.16 43.4221 231.577 43.0876 232.866 42.3004C233.896 41.6644 234.781 40.8189 235.463 39.8187C236.146 38.8185 236.61 37.686 236.826 36.4947C237.874 31.25 239.508 26.1627 244.344 24.3571C246.976 23.3731 249.658 23.501 252.497 23.624C254.766 23.7915 257.047 23.7355 259.306 23.4567C261.628 23.1123 263.242 22.2464 264.063 20.8787C264.846 19.6044 264.924 17.8775 264.295 16.0079C264.048 15.2266 263.997 14.3967 264.146 13.5911C264.295 12.7855 264.64 12.0289 265.151 11.388C266.809 9.17399 269.987 7.94398 273.657 8.08174C273.765 8.08519 273.868 8.12363 273.951 8.19119C274.035 8.25876 274.094 8.35174 274.119 8.45597C274.145 8.5602 274.136 8.66995 274.093 8.76849C274.051 8.86704 273.977 8.94897 273.884 9.00179C273.839 9.02639 269.608 11.4864 270.597 14.8222C271.507 17.8824 273.195 23.5847 269.913 29.2033C268.359 31.8552 265.338 32.8343 262.666 33.6903C259.867 34.5956 257.446 35.373 256.969 37.7247C256.56 39.7272 257.013 42.0839 257.535 44.8145C258.302 48.8292 259.173 53.3851 257.672 58.497C255.704 65.198 250.1 70.0984 247.577 72.0368C250.404 71.7721 253.054 70.5441 255.084 68.5584C259.449 64.4305 260.565 61.3801 260.575 61.3506C260.622 61.2368 260.71 61.1449 260.822 61.0929C260.933 61.0409 261.061 61.0326 261.178 61.0697C261.295 61.1067 261.395 61.1865 261.456 61.2931C261.517 61.3998 261.537 61.5256 261.51 61.6458C261.377 62.1132 258.174 73.1979 251.424 79.1659C247.591 82.5459 243.03 82.6444 239.365 82.728C236.521 82.787 234.273 82.8362 233.422 84.3713C232.728 85.6259 233.348 86.5754 233.987 87.1511C235.778 88.7648 240.329 89.5717 243.69 87.2249C243.761 87.1756 243.844 87.1459 243.93 87.139C244.017 87.1321 244.104 87.1482 244.182 87.1855C244.261 87.2242 244.328 87.2834 244.377 87.3569C244.425 87.4305 244.453 87.5157 244.457 87.6037C244.463 89.9396 243.983 92.2512 243.046 94.391C242.109 96.5307 240.736 98.4518 239.016 100.032C237.015 101.815 234.854 103.411 232.561 104.799C230.101 106.374 228.295 107.515 227.282 109.685C225.2 114.142 218.918 113.567 216.728 113.217C212.578 115.816 207.78 117.194 202.883 117.193ZM185.712 72.1648L185.811 72.2878C185.885 72.3847 185.921 72.506 185.911 72.6278C185.901 72.7497 185.846 72.8635 185.757 72.947C182.315 76.1787 179.858 80.3181 178.669 84.887C177.48 89.456 177.607 94.2681 179.037 98.7675C180.467 103.267 183.141 107.27 186.749 110.314C190.357 113.359 194.754 115.32 199.429 115.972C205.318 116.784 211.304 115.478 216.32 112.287C216.422 112.221 216.544 112.195 216.664 112.214C218.47 112.528 224.502 113.232 226.347 109.262C227.483 106.831 229.476 105.562 231.995 103.958C234.252 102.612 236.382 101.062 238.356 99.3281C241.372 96.5032 243.19 92.6291 243.434 88.5041C239.941 90.418 235.439 89.7882 233.304 87.8645C232.044 86.728 231.764 85.2716 232.536 83.8744C233.663 81.8473 236.285 81.7883 239.321 81.7243C242.824 81.6456 247.193 81.5521 250.745 78.4082C254.656 74.9642 257.382 69.5522 258.952 65.7688C257.963 67.0067 256.888 68.1724 255.734 69.257C251.089 73.6506 246.189 73.0258 245.982 72.9962C245.883 72.9828 245.79 72.9391 245.716 72.8712C245.642 72.8033 245.59 72.7143 245.568 72.6162C245.546 72.5182 245.555 72.4158 245.593 72.3227C245.631 72.2297 245.696 72.1505 245.781 72.0959C245.864 72.0417 254.312 66.4182 256.723 58.2018C258.159 53.3162 257.308 48.8882 256.565 44.9768C256.019 42.1478 255.552 39.6977 256 37.5083C256.595 34.5956 259.394 33.6903 262.361 32.7359C264.984 31.8896 267.694 31.0139 269.057 28.6867C271.891 23.8454 270.848 19.1222 269.653 15.0829C268.846 12.3572 270.681 10.2269 272.058 9.07559C269.392 9.28223 267.163 10.3154 265.933 11.9587C265.516 12.4706 265.233 13.0781 265.11 13.7265C264.986 14.3749 265.025 15.044 265.225 15.6733C265.948 17.8233 265.835 19.8455 264.9 21.3756C263.916 22.9992 262.071 24.0225 259.444 24.4112C257.123 24.7 254.78 24.7594 252.447 24.5883C249.712 24.4653 247.129 24.3522 244.684 25.2624C240.3 26.8909 238.78 31.7027 237.796 36.6669C237.552 37.9934 237.032 39.2537 236.269 40.3658C235.506 41.478 234.517 42.417 233.368 43.122C231.828 44.0568 230.145 44.4258 228.974 44.106C228.786 44.0548 228.611 43.9643 228.461 43.8405C228.311 43.7166 228.189 43.5623 228.103 43.3877C227.562 42.2905 228.305 40.3717 228.905 38.8317C228.974 38.6546 229.048 38.4677 229.112 38.2856C224.29 40.7456 222.46 43.6238 221.781 45.6656C221.427 46.7185 221.196 47.6336 220.989 48.4799C220.207 51.5795 219.739 53.4491 214.622 55.1711C211.961 56.003 209.221 56.5586 206.445 56.8291C203.493 57.203 200.463 57.5917 197.097 58.9398C190.701 61.4884 186.46 70.5264 185.712 72.1648Z" fill="#263238"/>
<path opacity="0.59" d="M217.643 109.512C217.643 109.512 212.231 114.127 199.331 112.676C186.431 111.224 175.351 96.5923 181.314 84.2087C187.277 71.825 192.364 73.0452 192.364 73.0452C192.364 73.0452 192.413 63.9088 201.978 63.0281C211.542 62.1474 219.636 65.6652 222.583 59.7956C225.53 53.9261 225.136 51.6039 225.136 51.6039C225.136 51.6039 225.594 59.1659 229.751 57.0159C233.909 54.8658 235.562 51.7957 237.751 46.8167C239.941 41.8377 247.257 40.7061 247.257 40.7061C247.257 40.7061 243.321 46.4674 244.088 51.4464C244.856 56.4254 246.834 61.8768 243.96 67.1019C242.033 70.4181 239.368 73.2463 236.172 75.3674C236.172 75.3674 238.105 78.5212 241.363 78.5605C239.346 80.0469 236.997 81.0165 234.519 81.3846C230.539 81.916 225.486 86.2406 226.086 89.5764C226.686 92.9122 230.701 94.9884 230.45 97.2467C230.199 99.505 228.644 107.485 217.643 109.512Z" fill="white"/>
<path d="M230.804 70.8413C227.897 76.3911 221.456 75.6629 224.28 73.6999C227.104 71.7368 227.842 65.2817 227.842 65.2817C227.842 65.2817 222.819 69.2915 217.663 68.7257C212.507 68.1599 208.851 65.7737 205.88 66.0935C202.908 66.4133 203.42 67.7713 201.57 72.4649C199.72 77.1586 193.978 73.2521 188.522 81.1241C183.065 88.9961 182.834 99.7463 193.176 106.457C203.518 113.168 212.162 108.917 212.162 108.917C216.536 107.776 223.1 101.66 223.715 96.1793C224.33 90.6985 219.316 88.8289 221.368 85.1389C223.419 81.4489 231.208 79.0626 233.525 72.7995C235.005 68.5782 235.939 64.1851 236.305 59.7271C236.305 59.7271 233.717 65.2916 230.804 70.8413Z" fill="white"/>
<path d="M217.201 61.5377C218.781 60.9277 219.809 59.7961 219.504 59.0089C219.199 58.2217 217.674 58.0741 216.099 58.6841C214.525 59.2942 213.497 60.4258 213.802 61.213C214.107 62.0002 215.647 62.1429 217.201 61.5377Z" fill="white"/>
<path d="M239.429 52.9278C238.268 54.1479 237.815 55.6141 238.445 56.1947C239.075 56.7752 240.497 56.2586 241.658 55.0335C242.819 53.8085 243.271 52.3521 242.642 51.7667C242.012 51.1812 240.595 51.7027 239.429 52.9278Z" fill="white"/>
<path d="M242.903 64.9469C241.988 65.9014 241.634 67.0527 242.116 67.5053C242.598 67.958 243.725 67.5545 244.635 66.6001C245.545 65.6456 245.899 64.4943 245.422 64.0367C244.945 63.5792 243.813 63.9875 242.903 64.9469Z" fill="white"/>
<path d="M231.02 89.4882C230.115 88.6223 228.472 88.8781 227.35 90.054C226.228 91.2299 226.056 92.883 226.961 93.744C227.866 94.605 229.51 94.3541 230.631 93.1782C231.753 92.0023 231.925 90.3689 231.02 89.4882Z" fill="white"/>
<path d="M251.665 34.9547C251.173 34.4971 250.057 34.9055 249.142 35.8649C248.226 36.8243 247.877 37.9657 248.359 38.4233C248.841 38.8809 249.963 38.4725 250.878 37.518C251.793 36.5635 252.133 35.4123 251.665 34.9547Z" fill="white"/>
<path d="M196.404 94.4968C196.346 95.0082 196.138 95.491 195.806 95.8843C195.474 96.2775 195.033 96.5634 194.539 96.706C194.044 96.8486 193.518 96.8414 193.028 96.6853C192.538 96.5292 192.105 96.2312 191.783 95.829C191.462 95.4268 191.268 94.9384 191.224 94.4256C191.181 93.9129 191.29 93.3987 191.539 92.948C191.787 92.4974 192.164 92.1306 192.621 91.894C193.078 91.6574 193.595 91.5615 194.106 91.6186C194.446 91.6565 194.775 91.7611 195.075 91.9263C195.374 92.0915 195.638 92.3142 195.852 92.5815C196.065 92.8488 196.224 93.1555 196.318 93.4842C196.413 93.8128 196.442 94.1569 196.404 94.4968Z" fill="#407BFF"/>
<path d="M197.683 90.1275C198.487 90.1275 199.139 89.4755 199.139 88.6712C199.139 87.8669 198.487 87.2148 197.683 87.2148C196.879 87.2148 196.227 87.8669 196.227 88.6712C196.227 89.4755 196.879 90.1275 197.683 90.1275Z" fill="#407BFF"/>
<path d="M201.225 95.2984C201.198 95.5333 201.103 95.755 200.95 95.9354C200.797 96.1159 200.594 96.247 200.367 96.3121C200.14 96.3773 199.898 96.3736 199.673 96.3015C199.448 96.2294 199.249 96.0922 199.102 95.9072C198.955 95.7221 198.866 95.4976 198.846 95.262C198.826 95.0264 198.877 94.7902 198.992 94.5834C199.106 94.3766 199.28 94.2084 199.49 94.1001C199.7 93.9918 199.937 93.9482 200.172 93.9749C200.328 93.9927 200.479 94.041 200.617 94.1171C200.754 94.1932 200.875 94.2956 200.973 94.4185C201.071 94.5414 201.143 94.6824 201.187 94.8334C201.23 94.9843 201.243 95.1424 201.225 95.2984Z" fill="#407BFF"/>
<path d="M191.026 103.21C190.98 103.619 190.813 104.005 190.547 104.319C190.282 104.634 189.929 104.862 189.533 104.976C189.138 105.09 188.717 105.083 188.325 104.958C187.933 104.833 187.587 104.595 187.331 104.273C187.074 103.951 186.919 103.56 186.884 103.15C186.85 102.74 186.938 102.329 187.137 101.969C187.336 101.609 187.637 101.316 188.003 101.127C188.368 100.938 188.782 100.862 189.191 100.908C189.739 100.971 190.24 101.248 190.584 101.68C190.928 102.111 191.087 102.662 191.026 103.21Z" fill="#407BFF"/>
<path d="M196.724 102.802C196.706 102.965 196.639 103.119 196.533 103.245C196.427 103.37 196.286 103.462 196.128 103.507C195.97 103.552 195.802 103.55 195.645 103.5C195.488 103.45 195.35 103.355 195.248 103.226C195.145 103.097 195.083 102.941 195.069 102.778C195.056 102.614 195.091 102.449 195.17 102.306C195.25 102.162 195.37 102.045 195.516 101.969C195.662 101.894 195.828 101.863 195.991 101.882C196.21 101.908 196.409 102.019 196.547 102.191C196.684 102.363 196.748 102.583 196.724 102.802Z" fill="#407BFF"/>
<path d="M188.427 94.644C188.379 95.0732 188.205 95.4785 187.926 95.8085C187.647 96.1386 187.277 96.3786 186.862 96.4983C186.447 96.618 186.006 96.6119 185.594 96.4809C185.183 96.3499 184.819 96.0998 184.55 95.7623C184.28 95.4247 184.117 95.0148 184.08 94.5844C184.044 94.1541 184.135 93.7225 184.344 93.3443C184.553 92.966 184.869 92.6582 185.252 92.4595C185.636 92.2609 186.07 92.1804 186.499 92.2283C187.075 92.2938 187.601 92.5848 187.962 93.0377C188.324 93.4905 188.491 94.0681 188.427 94.644Z" fill="#407BFF"/>
<path d="M190.313 89.05C190.281 89.3293 190.167 89.5928 189.986 89.8074C189.804 90.0219 189.563 90.1778 189.293 90.2554C189.023 90.3329 188.735 90.3287 188.468 90.2431C188.2 90.1576 187.964 89.9946 187.788 89.7748C187.613 89.555 187.507 89.2882 187.484 89.0081C187.46 88.728 187.52 88.4472 187.656 88.2011C187.792 87.9551 187.997 87.7549 188.247 87.6257C188.497 87.4966 188.779 87.4444 189.058 87.4756C189.433 87.5189 189.776 87.7088 190.011 88.0038C190.246 88.2989 190.355 88.675 190.313 89.05Z" fill="#407BFF"/>
<path d="M184.556 86.2508C184.54 86.388 184.47 86.5133 184.363 86.5998C184.255 86.6864 184.117 86.7271 183.98 86.7132C183.878 86.7019 183.781 86.6605 183.702 86.5942C183.623 86.5279 183.565 86.4397 183.536 86.3408C183.508 86.2418 183.509 86.1365 183.54 86.0381C183.571 85.9398 183.63 85.8529 183.711 85.7883C183.791 85.7237 183.889 85.6844 183.991 85.6754C184.094 85.6663 184.197 85.6879 184.287 85.7374C184.378 85.7868 184.452 85.862 184.499 85.9534C184.547 86.0448 184.567 86.1483 184.556 86.2508Z" fill="#407BFF"/>
<path d="M196.408 107.481C196.373 107.787 196.248 108.076 196.049 108.311C195.85 108.547 195.586 108.718 195.289 108.803C194.993 108.888 194.678 108.883 194.384 108.79C194.091 108.696 193.831 108.517 193.639 108.276C193.447 108.035 193.33 107.743 193.304 107.436C193.278 107.129 193.344 106.821 193.493 106.551C193.642 106.281 193.867 106.061 194.141 105.919C194.414 105.777 194.724 105.72 195.03 105.754C195.442 105.801 195.818 106.009 196.076 106.332C196.334 106.656 196.454 107.069 196.408 107.481Z" fill="#407BFF"/>
<path d="M206.328 103.048C206.267 103.578 206.051 104.079 205.706 104.486C205.361 104.894 204.903 105.19 204.39 105.337C203.877 105.485 203.332 105.477 202.823 105.314C202.315 105.152 201.866 104.843 201.533 104.426C201.2 104.008 200.998 103.502 200.953 102.97C200.908 102.438 201.021 101.904 201.279 101.437C201.537 100.969 201.927 100.589 202.401 100.343C202.875 100.097 203.411 99.9977 203.942 100.056C204.655 100.137 205.307 100.497 205.754 101.058C206.202 101.619 206.408 102.335 206.328 103.048Z" fill="#407BFF"/>
<path d="M202.253 109.498C202.229 109.701 202.146 109.893 202.014 110.05C201.881 110.206 201.705 110.32 201.508 110.376C201.311 110.433 201.102 110.43 200.907 110.368C200.711 110.305 200.539 110.187 200.411 110.027C200.283 109.866 200.205 109.672 200.187 109.468C200.17 109.264 200.213 109.059 200.312 108.879C200.41 108.699 200.56 108.553 200.742 108.458C200.923 108.363 201.129 108.324 201.333 108.346C201.608 108.377 201.859 108.516 202.031 108.732C202.204 108.948 202.283 109.223 202.253 109.498Z" fill="#407BFF"/>
<path d="M213.89 102.851C213.872 103.014 213.805 103.168 213.699 103.294C213.593 103.419 213.452 103.51 213.294 103.556C213.136 103.601 212.968 103.599 212.811 103.549C212.654 103.499 212.516 103.404 212.414 103.275C212.311 103.146 212.249 102.99 212.235 102.826C212.222 102.663 212.257 102.498 212.336 102.354C212.416 102.211 212.536 102.093 212.682 102.018C212.828 101.943 212.994 101.912 213.157 101.931C213.266 101.943 213.371 101.976 213.466 102.029C213.562 102.082 213.646 102.153 213.714 102.239C213.782 102.324 213.833 102.422 213.863 102.527C213.893 102.632 213.902 102.742 213.89 102.851Z" fill="#407BFF"/>
<path d="M211.735 97.7932C211.729 97.8778 211.707 97.9604 211.669 98.036C211.63 98.1116 211.577 98.1787 211.512 98.2331C211.447 98.2874 211.372 98.328 211.29 98.3524C211.209 98.3767 211.124 98.3842 211.04 98.3745C210.956 98.3648 210.874 98.3381 210.801 98.296C210.727 98.2538 210.663 98.1972 210.612 98.1295C210.561 98.0617 210.524 97.9844 210.504 97.902C210.484 97.8197 210.481 97.7341 210.495 97.6505C210.516 97.4863 210.6 97.3368 210.73 97.2339C210.859 97.131 211.024 97.0827 211.189 97.0994C211.353 97.1192 211.503 97.2033 211.605 97.3333C211.708 97.4634 211.754 97.6288 211.735 97.7932Z" fill="#407BFF"/>
<path d="M210.656 107.407C210.621 107.713 210.496 108.002 210.297 108.237C210.098 108.473 209.834 108.644 209.537 108.729C209.241 108.814 208.926 108.81 208.633 108.716C208.339 108.622 208.08 108.444 207.887 108.203C207.695 107.962 207.579 107.669 207.552 107.362C207.526 107.055 207.592 106.747 207.741 106.477C207.89 106.207 208.115 105.987 208.389 105.845C208.663 105.703 208.972 105.646 209.279 105.68C209.69 105.727 210.066 105.935 210.324 106.259C210.582 106.582 210.702 106.995 210.656 107.407Z" fill="#407BFF"/>
<path d="M205.087 89.4932C205.891 89.4932 206.543 88.8412 206.543 88.0369C206.543 87.2326 205.891 86.5806 205.087 86.5806C204.283 86.5806 203.631 87.2326 203.631 88.0369C203.631 88.8412 204.283 89.4932 205.087 89.4932Z" fill="#407BFF"/>
<path d="M207.734 82.8855C208.136 82.8855 208.462 82.5595 208.462 82.1574C208.462 81.7552 208.136 81.4292 207.734 81.4292C207.332 81.4292 207.006 81.7552 207.006 82.1574C207.006 82.5595 207.332 82.8855 207.734 82.8855Z" fill="#407BFF"/>
<path d="M203.012 84.1398C202.996 84.2827 202.937 84.4175 202.844 84.5273C202.751 84.6371 202.628 84.7169 202.49 84.7566C202.352 84.7963 202.205 84.7942 202.068 84.7506C201.931 84.7069 201.81 84.6236 201.72 84.5112C201.63 84.3988 201.576 84.2624 201.563 84.1191C201.551 83.9758 201.581 83.832 201.651 83.706C201.72 83.5799 201.825 83.4772 201.953 83.4108C202.08 83.3444 202.225 83.3173 202.368 83.3329C202.463 83.3433 202.555 83.3725 202.64 83.4187C202.724 83.4649 202.798 83.5273 202.858 83.6023C202.918 83.6773 202.962 83.7634 202.989 83.8556C203.015 83.9479 203.023 84.0444 203.012 84.1398Z" fill="#407BFF"/>
<path d="M201.27 73.5767C201.252 73.7414 201.186 73.8971 201.08 74.0242C200.973 74.1513 200.832 74.2439 200.673 74.2905C200.514 74.337 200.345 74.3353 200.187 74.2856C200.029 74.2358 199.889 74.1403 199.786 74.0111C199.682 73.8819 199.619 73.7248 199.605 73.5598C199.59 73.3948 199.625 73.2293 199.705 73.0842C199.785 72.9391 199.906 72.8211 200.054 72.7449C200.201 72.6688 200.367 72.6381 200.532 72.6566C200.751 72.6826 200.951 72.7936 201.089 72.9657C201.227 73.1378 201.292 73.3572 201.27 73.5767Z" fill="#407BFF"/>
<path d="M220.33 99.5936C220.301 99.8859 220.186 100.163 219.999 100.389C219.812 100.616 219.561 100.781 219.28 100.864C218.998 100.948 218.698 100.945 218.418 100.857C218.138 100.769 217.89 100.599 217.707 100.37C217.524 100.14 217.413 99.8615 217.39 99.5688C217.366 99.2761 217.43 98.9829 217.574 98.7269C217.717 98.4708 217.934 98.2634 218.196 98.1312C218.459 97.999 218.754 97.948 219.046 97.9848C219.236 98.0056 219.42 98.0637 219.588 98.156C219.755 98.2482 219.903 98.3726 220.022 98.5221C220.142 98.6717 220.23 98.8433 220.283 99.0272C220.336 99.2111 220.352 99.4036 220.33 99.5936Z" fill="#407BFF"/>
<path d="M217.899 104.455C217.882 104.598 217.824 104.732 217.731 104.842C217.638 104.952 217.515 105.032 217.377 105.072C217.238 105.111 217.091 105.109 216.954 105.066C216.817 105.022 216.696 104.939 216.606 104.826C216.517 104.714 216.462 104.577 216.45 104.434C216.438 104.291 216.468 104.147 216.537 104.021C216.607 103.895 216.712 103.792 216.839 103.726C216.967 103.659 217.111 103.632 217.254 103.648C217.35 103.658 217.442 103.687 217.526 103.734C217.61 103.78 217.684 103.842 217.744 103.917C217.804 103.992 217.849 104.078 217.875 104.171C217.902 104.263 217.91 104.359 217.899 104.455Z" fill="#407BFF"/>
<path d="M215.031 109.468C215.002 109.76 214.887 110.037 214.7 110.264C214.513 110.49 214.262 110.656 213.981 110.739C213.699 110.822 213.399 110.82 213.119 110.732C212.839 110.644 212.592 110.474 212.408 110.244C212.225 110.015 212.115 109.736 212.091 109.443C212.067 109.151 212.131 108.857 212.275 108.601C212.418 108.345 212.635 108.138 212.897 108.006C213.16 107.873 213.455 107.823 213.747 107.859C213.937 107.88 214.121 107.938 214.289 108.03C214.456 108.123 214.604 108.247 214.723 108.397C214.843 108.546 214.931 108.718 214.984 108.902C215.037 109.086 215.053 109.278 215.031 109.468Z" fill="#407BFF"/>
<path d="M206.179 111.825C206.151 112.07 206.051 112.302 205.892 112.491C205.732 112.68 205.52 112.817 205.283 112.885C205.045 112.954 204.793 112.95 204.557 112.875C204.322 112.8 204.114 112.656 203.96 112.463C203.806 112.27 203.713 112.035 203.692 111.789C203.671 111.543 203.724 111.296 203.843 111.08C203.963 110.863 204.144 110.687 204.363 110.574C204.583 110.461 204.831 110.415 205.077 110.442C205.406 110.481 205.706 110.648 205.913 110.907C206.119 111.166 206.215 111.496 206.179 111.825Z" fill="#407BFF"/>
<path d="M213.275 82.0442C213.677 82.0442 214.003 81.7182 214.003 81.3161C214.003 80.9139 213.677 80.5879 213.275 80.5879C212.873 80.5879 212.547 80.9139 212.547 81.3161C212.547 81.7182 212.873 82.0442 213.275 82.0442Z" fill="#407BFF"/>
<path d="M221.89 93.173C221.874 93.3162 221.817 93.4517 221.724 93.5622C221.632 93.6727 221.508 93.7532 221.37 93.7937C221.232 93.8342 221.085 93.8327 220.947 93.7895C220.81 93.7463 220.688 93.6633 220.598 93.551C220.508 93.4387 220.453 93.3022 220.44 93.1587C220.428 93.0151 220.458 92.8711 220.527 92.7448C220.596 92.6184 220.702 92.5155 220.829 92.449C220.957 92.3825 221.102 92.3553 221.245 92.371C221.437 92.3921 221.612 92.4884 221.733 92.6387C221.854 92.7891 221.91 92.9812 221.89 93.173Z" fill="#407BFF"/>
<path d="M207.99 97.5815C207.971 97.7449 207.905 97.8991 207.798 98.0246C207.692 98.1502 207.551 98.2414 207.393 98.2869C207.235 98.3323 207.067 98.3298 206.911 98.2798C206.754 98.2298 206.616 98.1345 206.513 98.0059C206.411 97.8773 206.349 97.7212 206.335 97.5574C206.321 97.3935 206.356 97.2293 206.436 97.0854C206.515 96.9415 206.636 96.8244 206.782 96.749C206.928 96.6735 207.093 96.6431 207.257 96.6615C207.475 96.6874 207.675 96.7986 207.812 96.9709C207.949 97.1431 208.013 97.3625 207.99 97.5815Z" fill="#407BFF"/>
<path d="M187.553 78.2112C187.533 78.3949 187.458 78.5683 187.339 78.7096C187.22 78.8509 187.062 78.9538 186.884 79.0051C186.707 79.0565 186.518 79.0541 186.342 78.9982C186.165 78.9423 186.01 78.8354 185.894 78.6911C185.779 78.5468 185.709 78.3715 185.693 78.1874C185.677 78.0032 185.716 77.8185 185.805 77.6566C185.894 77.4947 186.029 77.3628 186.193 77.2776C186.357 77.1924 186.543 77.1577 186.727 77.178C186.849 77.1915 186.967 77.2289 187.075 77.2881C187.182 77.3473 187.277 77.4272 187.354 77.5232C187.431 77.6192 187.488 77.7293 187.522 77.8474C187.556 77.9654 187.567 78.089 187.553 78.2112Z" fill="#407BFF"/>
<path d="M203.616 -14.8163C199.68 -13.3994 194.15 -7.95785 190.573 -3.22481C186.996 1.50823 184.132 -1.12889 184.054 0.219193C183.975 1.56727 183.729 5.69515 180.556 8.25355C177.382 10.812 172.782 9.72955 173.49 7.01371C173.692 6.22671 174.06 5.49198 174.569 4.85891C175.078 4.22584 175.717 3.70909 176.442 3.3434L170.868 4.66688C165.299 5.98544 163.301 7.24004 156.989 16.4749C150.676 25.7097 147.956 20.6126 141.884 21.08C135.813 21.5474 131.449 25.6851 129.501 30.7921C127.552 35.899 124.32 39.5497 121.417 37.4587C118.514 35.3677 122.982 29.5867 122.982 29.5867C122.982 29.5867 118.15 32.3271 114.19 38.9593C110.229 45.5914 116.074 48.9616 110.391 52.199C104.709 55.4364 90.0177 52.9222 82.6426 56.8828C77.27 59.7709 75.8038 63.1755 75.4053 64.8139C71.172 67.9594 67.6771 71.992 65.1654 76.6295C62.6537 81.267 61.1857 86.3973 60.8642 91.6616C60.5427 96.9258 61.3755 102.197 63.3042 107.105C65.233 112.014 68.2111 116.442 72.0303 120.079C75.8494 123.716 80.4172 126.475 85.4141 128.162C90.411 129.85 95.7162 130.424 100.958 129.847C106.201 129.269 111.253 127.552 115.763 124.818C120.273 122.083 124.13 118.396 127.065 114.014C130.48 113.463 134.445 112.538 136.659 109.763C140.812 104.513 136.399 100.135 138.588 95.5934C140.777 91.0522 143.921 93.709 153.904 87.4311C163.887 81.1532 162.42 73.3698 162.42 73.3698C157.992 78.8801 150.229 75.1262 151.021 71.0524C151.813 66.9787 157.702 64.8532 165.914 60.6663C174.125 56.4794 176.024 52.1941 176.024 52.1941C176.024 52.1941 162.47 53.8718 163.916 47.9137C165.363 41.9556 173.805 43.2741 182.017 39.0872C190.228 34.9003 193.446 22.1821 193.446 22.1821C193.446 22.1821 187.778 25.1341 183.881 26.0148C179.985 26.8954 179.631 23.5547 184.447 16.4306C189.264 9.30643 200.26 9.11947 200.26 9.11947C200.26 9.11947 198.115 8.16992 196.236 7.51064C194.356 6.85136 193.215 2.09863 196.698 -5.09933C202.243 -16.5137 212.442 -15.7118 212.442 -15.7118C212.442 -15.7118 207.547 -16.2431 203.616 -14.8163Z" fill="#407BFF"/>
<path d="M97.043 130.545C89.347 130.546 81.8454 128.127 75.5999 123.63C69.3545 119.133 64.6813 112.786 62.2417 105.487C59.8021 98.1876 59.7196 90.3061 62.006 82.9574C64.2923 75.6088 68.8317 69.1653 74.9818 64.5386C75.4738 62.6788 77.1121 59.3184 82.4208 56.4648C86.3863 54.3345 92.2608 54.0393 97.9139 53.7539C102.873 53.503 107.552 53.2619 110.155 51.7859C112.881 50.2361 112.694 48.77 112.408 46.556C112.147 44.524 111.828 41.9902 113.776 38.7233C117.756 32.0518 122.548 29.2917 122.75 29.1736C122.849 29.119 122.963 29.0999 123.074 29.1196C123.185 29.1393 123.286 29.1966 123.36 29.2818C123.431 29.3695 123.47 29.4789 123.47 29.5918C123.47 29.7047 123.431 29.8141 123.36 29.9018C123.331 29.9411 120.615 33.5032 120.949 35.8058C120.978 36.0573 121.059 36.3 121.188 36.518C121.317 36.7359 121.49 36.9241 121.697 37.0702C121.995 37.3069 122.346 37.467 122.72 37.5364C123.094 37.6059 123.479 37.5827 123.842 37.4687C125.638 36.9324 127.626 34.3101 129.033 30.625C131.257 24.7948 136.044 21.0458 141.825 20.598C143.451 20.5214 145.078 20.7041 146.646 21.1392C149.928 21.8969 152.295 22.448 156.56 16.2192C162.922 6.87125 165.057 5.54284 170.73 4.19476L176.363 2.89588C176.482 2.87024 176.606 2.88952 176.712 2.95001C176.817 3.0105 176.897 3.10791 176.935 3.22346C176.972 3.339 176.966 3.46449 176.917 3.57572C176.868 3.68694 176.779 3.77602 176.668 3.82576C176.008 4.1592 175.427 4.6304 174.965 5.20755C174.502 5.7847 174.169 6.45438 173.987 7.17136C173.899 7.46921 173.916 7.78814 174.034 8.07535C174.152 8.36256 174.364 8.60082 174.636 8.75068C175.857 9.5428 178.361 9.4444 180.275 7.89952C183.276 5.47888 183.507 1.50352 183.586 0.219402C183.64 -0.730158 184.516 -0.705558 185.096 -0.695718C186.189 -0.671118 188.024 -0.621915 190.203 -3.50995C193.692 -8.12491 199.33 -13.778 203.487 -15.2688C207.482 -16.7103 212.343 -16.174 212.55 -16.1494C212.678 -16.1346 212.795 -16.0701 212.876 -15.9698C212.957 -15.8695 212.995 -15.7414 212.983 -15.6132C212.97 -15.4852 212.908 -15.3672 212.81 -15.2845C212.711 -15.2017 212.585 -15.1607 212.456 -15.1704C212.053 -15.2048 202.528 -15.7952 197.204 -4.83836C194.744 0.248924 194.671 4.01764 195.433 5.88724C195.512 6.14755 195.645 6.38863 195.822 6.59526C195.998 6.80189 196.216 6.96957 196.461 7.08772C198.341 7.74701 200.501 8.7064 200.52 8.71624C200.623 8.76118 200.707 8.83979 200.759 8.9391C200.811 9.0384 200.828 9.15245 200.806 9.26237C200.783 9.37517 200.721 9.47633 200.631 9.54825C200.541 9.62017 200.429 9.65829 200.314 9.65597C200.211 9.65597 189.514 9.91673 184.904 16.7506C180.737 22.9252 181.367 24.8096 181.662 25.2376C182.066 25.828 183.059 25.7296 183.827 25.5771C187.61 24.7309 193.214 21.8182 193.268 21.7887C193.352 21.7449 193.447 21.7263 193.541 21.735C193.636 21.7437 193.725 21.7794 193.8 21.8379C193.872 21.8955 193.926 21.9722 193.956 22.0592C193.987 22.1462 193.992 22.24 193.972 22.3299C193.839 22.8563 190.602 35.3187 182.287 39.5499C179.109 41.1735 175.916 41.9754 173.096 42.6839C168.555 43.8303 165.269 44.6519 164.442 48.0566C164.325 48.417 164.303 48.8015 164.378 49.1729C164.453 49.5444 164.623 49.8902 164.87 50.1771C166.804 52.3419 173.569 52.0319 176.014 51.7318C176.099 51.7245 176.185 51.7395 176.262 51.7754C176.34 51.8112 176.407 51.8666 176.456 51.9361C176.506 52.0056 176.537 52.0868 176.545 52.1717C176.554 52.2567 176.54 52.3425 176.506 52.4206C176.422 52.6026 174.44 56.9126 166.174 61.129C164.762 61.8522 163.438 62.5017 162.154 63.1314C156.127 66.0834 152.147 68.0514 151.542 71.1707C151.257 72.6467 152.314 74.1965 154.174 75.0624C155.516 75.6938 157.036 75.8428 158.475 75.4843C159.914 75.1258 161.186 74.2817 162.076 73.0944C162.133 73.0225 162.21 72.9683 162.297 72.9378C162.384 72.9074 162.478 72.902 162.568 72.9222C162.659 72.9453 162.742 72.9941 162.807 73.0631C162.871 73.132 162.915 73.218 162.932 73.3109C162.996 73.6406 164.344 81.4929 154.194 87.8741C150.981 89.966 147.467 91.5538 143.773 92.5826C141.313 93.3058 140.108 93.6748 139.06 95.8396C138.179 97.6649 138.455 99.4952 138.74 101.439C139.124 104.022 139.562 106.954 137.072 110.098C134.858 112.897 131.124 113.876 127.385 114.496C124.02 119.443 119.496 123.492 114.207 126.289C108.918 129.086 103.026 130.548 97.043 130.545ZM121.19 31.5106C118.573 33.6869 116.351 36.2984 114.622 39.2301C112.846 42.1821 113.146 44.4502 113.387 46.433C113.682 48.7552 113.938 50.7626 110.642 52.642C107.838 54.2361 103.041 54.4821 97.9631 54.7379C92.4035 55.0184 86.6471 55.3086 82.8882 57.3308C77.7468 60.0958 76.3003 63.2889 75.892 64.9469C75.8648 65.057 75.8005 65.1543 75.7099 65.2224C71.5395 68.3272 68.0974 72.3052 65.6243 76.8786C63.1512 81.452 61.7068 86.5103 61.3919 91.7C61.0771 96.8897 61.8995 102.085 63.8016 106.924C65.7037 111.763 68.6396 116.128 72.4042 119.714C76.1687 123.3 80.671 126.021 85.5964 127.686C90.5218 129.351 95.7514 129.92 100.92 129.354C106.088 128.788 111.07 127.1 115.518 124.407C119.966 121.715 123.773 118.084 126.671 113.768C126.709 113.712 126.757 113.664 126.814 113.628C126.871 113.592 126.934 113.567 127.001 113.557C130.617 112.971 134.238 112.081 136.285 109.488C138.514 106.678 138.145 104.204 137.761 101.581C137.466 99.5788 137.156 97.5124 138.169 95.4116C139.404 92.8532 140.939 92.3956 143.488 91.6379C147.095 90.6314 150.527 89.0766 153.662 87.0279C161.16 82.3145 162.026 76.8435 162.026 74.5557C160.953 75.6102 159.583 76.3101 158.099 76.5608C156.616 76.8116 155.091 76.6011 153.731 75.9579C151.453 74.9001 150.174 72.9026 150.543 70.9887C151.247 67.3774 155.399 65.3356 161.692 62.2508C162.971 61.6259 164.29 60.9765 165.702 60.2828C171.571 57.2914 174.159 54.2361 175.114 52.8339C172.654 53.0405 166.258 53.3259 164.098 50.8659C163.742 50.4609 163.495 49.9717 163.382 49.4447C163.268 48.9178 163.291 48.3705 163.448 47.8548C164.432 43.8795 168.309 42.9004 172.796 41.7639C175.566 41.0702 178.7 40.2879 181.78 38.7086C188.324 35.3728 191.664 26.3102 192.648 23.1909C190.823 24.0863 186.941 25.892 183.979 26.5512C182.056 26.9793 181.185 26.384 180.791 25.8083C179.448 23.8403 181.81 19.5009 184.029 16.2143C187.699 10.7728 194.715 9.26237 198.193 8.83433C197.534 8.56373 196.776 8.26852 196.058 8.0176C195.68 7.85608 195.342 7.61585 195.064 7.31297C194.787 7.01008 194.577 6.6515 194.449 6.26116C193.357 3.6142 194.026 -0.700634 196.245 -5.26639C199 -10.9441 202.926 -13.6747 206.223 -14.9834C205.386 -14.8454 204.562 -14.633 203.763 -14.3487C199.984 -12.9859 194.454 -7.56896 190.946 -2.91956C188.462 0.367004 186.228 0.312883 185.042 0.283363C184.878 0.273523 184.714 0.273523 184.55 0.283363C184.457 1.78889 184.171 5.99549 180.87 8.64736C178.587 10.4924 175.625 10.5563 174.08 9.55756C173.632 9.29696 173.284 8.89379 173.091 8.41229C172.899 7.93079 172.873 7.39868 173.018 6.90076C173.259 5.9579 173.721 5.08598 174.366 4.35712L170.996 5.15416C165.529 6.44812 163.616 7.67812 157.411 16.7703C152.747 23.5599 149.844 22.8908 146.46 22.1085C144.985 21.6939 143.453 21.5195 141.923 21.5919C136.511 22.0052 132.049 25.5279 129.963 30.9842C128.403 35.0727 126.278 37.7836 124.133 38.4232C123.625 38.5774 123.088 38.6083 122.566 38.5133C122.044 38.4183 121.552 38.2002 121.131 37.8771C120.817 37.6547 120.553 37.3691 120.356 37.0387C120.158 36.7083 120.032 36.3403 119.985 35.9583C119.783 34.5364 120.472 32.8341 121.19 31.5106Z" fill="#263238"/>
<path opacity="0.59" d="M165.304 38.123C161.86 39.599 156.512 40.1254 158.549 35.4662C160.585 30.8069 163.798 32.2583 168.457 28.4699C173.117 24.6815 171.665 16.8145 171.665 16.8145C170.82 19.0517 169.745 21.1952 168.457 23.2105C166.125 26.9989 163.798 24.6865 159.424 26.1231C155.05 27.5597 153.22 30.5511 149.23 37.0209C145.24 43.4907 140.482 41.567 137.86 40.4059C135.238 39.2447 146.313 31.3678 146.313 31.3678C146.313 31.3678 137.57 31.9533 132.615 37.7638C127.661 43.5743 129.407 47.1118 125.329 56.4155C122.446 63.0034 113.029 63.6283 107.74 63.4265C101.783 61.3309 95.3426 61.0313 89.2173 62.5649C83.0921 64.0985 77.5524 67.3978 73.2862 72.0529C69.0201 76.708 66.2154 82.5139 65.2208 88.7494C64.2261 94.9848 65.0851 101.375 67.6912 107.127C70.2973 112.878 74.5356 117.737 79.8796 121.1C85.2237 124.463 91.438 126.183 97.7508 126.044C104.064 125.906 110.197 123.916 115.388 120.322C120.58 116.727 124.601 111.687 126.952 105.827C131.971 104.882 134.332 102.801 133.486 97.7977C132.615 92.5529 132.01 89.0548 139.026 86.4325C143.145 84.8999 147.139 83.0493 150.972 80.8975C150.972 80.8975 147.479 80.6022 146.017 78.5654C144.556 76.5285 148.935 66.6147 148.935 66.6147L144.876 72.7598C142.549 76.2579 137.594 78.2997 134.096 78.2997C130.598 78.2997 132.62 75.9676 134.972 69.5569C137.324 63.1461 140.507 65.183 147.085 61.1387C153.663 57.0945 155.37 54.1081 155.37 54.1081C153.642 55.5537 151.775 56.8243 149.796 57.9014C146.593 59.6529 143.68 60.2335 141.924 58.7771C140.167 57.3208 143.4 54.113 149.501 49.4291C155.602 44.7453 158.534 47.0971 163.198 43.3087C167.862 39.5203 170.485 33.9607 170.485 33.9607C169.154 35.7803 167.367 37.2162 165.304 38.123Z" fill="white"/>
<path d="M121.332 98.595C123.163 93.5323 125.224 96.627 128.791 91.7808C131.219 88.3299 133.402 84.713 135.325 80.9568C134.469 82.5312 131.595 87.0133 126.523 87.5496C120.358 88.199 119.709 89.1732 119.709 89.1732C120.65 87.3595 121.734 85.6238 122.951 83.9826C124.919 81.3848 126.848 81.7096 129.765 79.1167C132.683 76.5239 131.733 71.9778 131.389 66.1377C131.044 60.2977 141.445 50.8857 141.445 50.8857C141.445 50.8857 136.255 52.8537 133.982 55.4269C130.784 58.9606 128.45 63.1878 127.163 67.7761C125.549 73.6161 114.863 73.9409 114.863 73.9409C114.863 73.9409 116.486 72.9569 120.378 71.0184C124.27 69.0799 123.945 63.5597 123.945 63.5597C120.993 66.678 117.315 69.0173 113.239 70.369C106.43 72.642 103.182 68.1008 90.9611 70.4329C78.7399 72.765 65.8691 86.9149 73.3279 104.824C80.7866 122.733 94.1001 123.249 94.1001 123.249C114.538 123.574 117.46 114.491 121.352 110.27C125.244 106.049 130.115 99.2444 130.115 99.2444C128.307 101.026 126.354 102.654 124.274 104.11C121.332 106.054 119.497 103.658 121.332 98.595Z" fill="white"/>
<path d="M135.326 80.9714C135.513 80.6319 135.607 80.4253 135.607 80.4253C135.607 80.4253 135.528 80.6319 135.326 80.9714Z" fill="white"/>
<path d="M119.29 57.749C121.834 56.4255 123.359 54.305 122.695 53.0455C122.031 51.786 119.433 51.8204 116.89 53.1488C114.346 54.4772 112.826 56.5928 113.49 57.8474C114.154 59.102 116.747 59.0725 119.29 57.749Z" fill="white"/>
<path d="M148.694 32.2537C148.305 31.5058 146.775 31.5304 145.279 32.3127C143.784 33.095 142.883 34.3348 143.272 35.0827C143.661 35.8305 145.196 35.8059 146.691 35.0237C148.187 34.2414 149.088 33.0015 148.694 32.2537Z" fill="white"/>
<path d="M142.686 67.717C141.185 68.4993 140.29 69.7391 140.679 70.487C141.067 71.2348 142.602 71.2102 144.098 70.4279C145.594 69.6457 146.494 68.4058 146.1 67.658C145.707 66.9101 144.182 66.9347 142.686 67.717Z" fill="white"/>
<path d="M137.435 87.3577C135.959 88.1399 135.039 89.3798 135.433 90.1276C135.827 90.8754 137.352 90.8508 138.847 90.0686C140.343 89.2863 141.243 88.0464 140.855 87.2986C140.466 86.5508 138.931 86.5754 137.435 87.3577Z" fill="white"/>
<path d="M83.8029 103.948C85.8137 103.948 87.4437 102.318 87.4437 100.307C87.4437 98.2961 85.8137 96.666 83.8029 96.666C81.7922 96.666 80.1621 98.2961 80.1621 100.307C80.1621 102.318 81.7922 103.948 83.8029 103.948Z" fill="#407BFF"/>
<path d="M90.3569 91.9972C90.3618 92.4022 90.2461 92.7996 90.0245 93.1387C89.8029 93.4778 89.4854 93.7433 89.1125 93.9015C88.7396 94.0597 88.328 94.1033 87.9302 94.027C87.5324 93.9506 87.1663 93.7576 86.8785 93.4725C86.5907 93.1875 86.3941 92.8233 86.3139 92.4262C86.2337 92.0292 86.2733 91.6172 86.4279 91.2428C86.5824 90.8684 86.8449 90.5483 87.1818 90.3235C87.5187 90.0986 87.9149 89.979 88.32 89.98C88.8568 89.98 89.372 90.1919 89.7534 90.5696C90.1348 90.9473 90.3517 91.4604 90.3569 91.9972Z" fill="#407BFF"/>
<path d="M92.6103 102.339C93.5342 102.339 94.2831 101.59 94.2831 100.666C94.2831 99.7421 93.5342 98.9932 92.6103 98.9932C91.6864 98.9932 90.9375 99.7421 90.9375 100.666C90.9375 101.59 91.6864 102.339 92.6103 102.339Z" fill="#407BFF"/>
<path d="M78.4107 116.184C80.0193 116.184 81.3233 114.88 81.3233 113.271C81.3233 111.662 80.0193 110.358 78.4107 110.358C76.8021 110.358 75.498 111.662 75.498 113.271C75.498 114.88 76.8021 116.184 78.4107 116.184Z" fill="#407BFF"/>
<path d="M89.1914 111.815C89.1905 112.045 89.1213 112.27 88.9925 112.461C88.8638 112.653 88.6814 112.801 88.4682 112.889C88.2551 112.976 88.0208 112.999 87.7949 112.953C87.5691 112.908 87.3617 112.796 87.1992 112.633C87.0366 112.47 86.926 112.262 86.8814 112.036C86.8368 111.81 86.8602 111.576 86.9486 111.363C87.037 111.15 87.1865 110.968 87.3781 110.84C87.5698 110.712 87.795 110.644 88.0254 110.644C88.1789 110.644 88.331 110.674 88.4728 110.733C88.6146 110.792 88.7433 110.879 88.8517 110.987C88.96 111.096 89.0458 111.225 89.1041 111.367C89.1624 111.509 89.1921 111.661 89.1914 111.815Z" fill="#407BFF"/>
<path d="M73.3083 104.824C74.9984 104.824 76.3685 103.453 76.3685 101.763C76.3685 100.073 74.9984 98.7031 73.3083 98.7031C71.6182 98.7031 70.248 100.073 70.248 101.763C70.248 103.453 71.6182 104.824 73.3083 104.824Z" fill="#407BFF"/>
<path d="M78.12 93.6796C78.12 94.0747 78.0029 94.4609 77.7834 94.7894C77.5639 95.1179 77.2519 95.3739 76.8869 95.5251C76.5219 95.6763 76.1203 95.7159 75.7328 95.6388C75.3453 95.5617 74.9894 95.3715 74.7101 95.0921C74.4307 94.8127 74.2405 94.4568 74.1634 94.0694C74.0863 93.6819 74.1259 93.2802 74.2771 92.9152C74.4282 92.5502 74.6843 92.2383 75.0128 92.0188C75.3412 91.7993 75.7274 91.6821 76.1225 91.6821C76.3848 91.6821 76.6446 91.7338 76.8869 91.8342C77.1293 91.9346 77.3495 92.0817 77.535 92.2672C77.7205 92.4527 77.8676 92.6729 77.968 92.9152C78.0684 93.1576 78.12 93.4173 78.12 93.6796Z" fill="#407BFF"/>
<path d="M69.6689 90.6885C69.6729 90.8333 69.6335 90.9759 69.5559 91.0982C69.4783 91.2205 69.366 91.3169 69.2333 91.3751C69.1007 91.4332 68.9537 91.4505 68.8112 91.4246C68.6687 91.3988 68.5371 91.331 68.4333 91.23C68.3295 91.129 68.2581 90.9993 68.2284 90.8576C68.1987 90.7158 68.2119 90.5684 68.2664 90.4342C68.3209 90.3 68.4141 90.1851 68.5343 90.1042C68.6544 90.0233 68.7959 89.98 68.9408 89.98C69.1305 89.9799 69.3128 90.0539 69.4488 90.1863C69.5848 90.3186 69.6638 90.4988 69.6689 90.6885Z" fill="#407BFF"/>
<path d="M89.4862 118.373C89.4872 118.807 89.3592 119.231 89.1186 119.592C88.8779 119.953 88.5355 120.235 88.1346 120.401C87.7338 120.567 87.2927 120.61 86.8673 120.525C86.4418 120.44 86.0513 120.23 85.7452 119.923C85.4391 119.615 85.2313 119.224 85.1481 118.798C85.0649 118.372 85.11 117.931 85.2779 117.531C85.4457 117.131 85.7286 116.79 86.0907 116.551C86.4528 116.312 86.8777 116.186 87.3116 116.189C87.8892 116.191 88.4423 116.422 88.8499 116.832C89.2574 117.241 89.4862 117.795 89.4862 118.373Z" fill="#407BFF"/>
<path d="M101.488 113.327C102.967 111.847 102.967 109.449 101.488 107.969C100.008 106.49 97.6094 106.49 96.13 107.969C94.6505 109.449 94.6505 111.847 96.13 113.327C97.6094 114.806 100.008 114.806 101.488 113.327Z" fill="#407BFF"/>
<path d="M97.9344 120.268C97.9344 120.559 97.8479 120.845 97.6857 121.088C97.5235 121.33 97.293 121.519 97.0233 121.631C96.7536 121.743 96.4568 121.772 96.1705 121.715C95.8842 121.658 95.6212 121.518 95.4147 121.311C95.2083 121.105 95.0677 120.842 95.0108 120.555C94.9538 120.269 94.9831 119.972 95.0948 119.703C95.2065 119.433 95.3957 119.202 95.6384 119.04C95.8811 118.878 96.1665 118.792 96.4584 118.792C96.8499 118.792 97.2253 118.947 97.5021 119.224C97.7789 119.501 97.9344 119.876 97.9344 120.268Z" fill="#407BFF"/>
<path d="M113.088 109.192C113.088 109.423 113.02 109.648 112.891 109.84C112.763 110.032 112.581 110.181 112.368 110.27C112.155 110.358 111.921 110.381 111.694 110.336C111.468 110.291 111.26 110.18 111.097 110.017C110.934 109.854 110.823 109.646 110.778 109.42C110.733 109.194 110.756 108.959 110.845 108.746C110.933 108.533 111.082 108.351 111.274 108.223C111.466 108.095 111.691 108.026 111.922 108.026C112.231 108.026 112.528 108.149 112.746 108.368C112.965 108.587 113.088 108.883 113.088 109.192Z" fill="#407BFF"/>
<path d="M109.298 102.491C109.298 102.665 109.247 102.834 109.15 102.979C109.054 103.123 108.917 103.235 108.757 103.301C108.596 103.367 108.42 103.384 108.25 103.35C108.08 103.316 107.924 103.232 107.802 103.109C107.679 102.986 107.596 102.83 107.563 102.659C107.53 102.489 107.548 102.313 107.615 102.153C107.682 101.993 107.795 101.857 107.94 101.761C108.084 101.665 108.254 101.615 108.428 101.616C108.542 101.616 108.656 101.638 108.762 101.682C108.868 101.727 108.964 101.791 109.045 101.873C109.126 101.954 109.19 102.051 109.234 102.157C109.277 102.263 109.299 102.377 109.298 102.491Z" fill="#407BFF"/>
<path d="M109.299 116.056C109.299 116.488 109.171 116.91 108.93 117.27C108.69 117.629 108.349 117.909 107.95 118.074C107.551 118.24 107.112 118.283 106.688 118.199C106.264 118.114 105.875 117.906 105.57 117.601C105.264 117.295 105.056 116.906 104.972 116.482C104.887 116.058 104.931 115.619 105.096 115.22C105.261 114.821 105.541 114.48 105.901 114.24C106.26 114 106.682 113.872 107.114 113.872C107.694 113.872 108.249 114.102 108.659 114.511C109.068 114.921 109.299 115.477 109.299 116.056Z" fill="#407BFF"/>
<path d="M100.556 89.9798C100.556 90.3838 100.436 90.7788 100.212 91.1147C99.9872 91.4505 99.6681 91.7122 99.2947 91.8666C98.9213 92.021 98.5105 92.0612 98.1143 91.982C97.7181 91.9028 97.3543 91.7079 97.0689 91.4218C96.7836 91.1358 96.5895 90.7715 96.5113 90.3751C96.4331 89.9787 96.4742 89.568 96.6295 89.195C96.7848 88.822 97.0473 88.5035 97.3837 88.2797C97.7201 88.0559 98.1153 87.937 98.5194 87.938C98.7873 87.938 99.0525 87.9908 99.3 88.0935C99.5474 88.1962 99.7722 88.3466 99.9614 88.5363C100.151 88.726 100.301 88.9511 100.403 89.1988C100.505 89.4465 100.557 89.7119 100.556 89.9798Z" fill="#407BFF"/>
<path d="M101.284 82.3836C101.847 82.3836 102.303 81.9276 102.303 81.3651C102.303 80.8026 101.847 80.3467 101.284 80.3467C100.722 80.3467 100.266 80.8026 100.266 81.3651C100.266 81.9276 100.722 82.3836 101.284 82.3836Z" fill="#407BFF"/>
<path d="M95.0213 84.8583C95.0223 85.0611 94.963 85.2596 94.8509 85.4287C94.7388 85.5977 94.5791 85.7297 94.3919 85.8077C94.2047 85.8858 93.9985 85.9065 93.7995 85.8671C93.6006 85.8278 93.4178 85.7303 93.2743 85.5868C93.1309 85.4434 93.0334 85.2606 92.994 85.0617C92.9547 84.8627 92.9754 84.6565 93.0534 84.4693C93.1315 84.2821 93.2634 84.1223 93.4325 84.0103C93.6015 83.8982 93.8001 83.8389 94.0029 83.8399C94.2726 83.8411 94.5309 83.9489 94.7216 84.1396C94.9123 84.3303 95.02 84.5886 95.0213 84.8583Z" fill="#407BFF"/>
<path d="M90.9415 70.4326C90.9415 70.6631 90.8732 70.8883 90.7453 71.08C90.6174 71.2716 90.4355 71.4211 90.2228 71.5095C90.01 71.5979 89.7758 71.6212 89.5497 71.5766C89.3237 71.532 89.1159 71.4215 88.9526 71.2589C88.7894 71.0963 88.6779 70.889 88.6324 70.6631C88.5868 70.4373 88.6092 70.203 88.6967 69.9898C88.7842 69.7767 88.9329 69.5942 89.124 69.4655C89.3151 69.3368 89.5401 69.2676 89.7705 69.2666C89.924 69.266 90.0762 69.2956 90.2182 69.354C90.3603 69.4123 90.4894 69.4981 90.5982 69.6064C90.707 69.7147 90.7933 69.8435 90.8522 69.9853C90.9111 70.1271 90.9415 70.2791 90.9415 70.4326Z" fill="#407BFF"/>
<path d="M119.499 105.699C120.626 105.699 121.541 104.785 121.541 103.658C121.541 102.53 120.626 101.616 119.499 101.616C118.371 101.616 117.457 102.53 117.457 103.658C117.457 104.785 118.371 105.699 119.499 105.699Z" fill="#407BFF"/>
<path d="M117.899 111.815C118.462 111.815 118.918 111.359 118.918 110.796C118.918 110.234 118.462 109.778 117.899 109.778C117.337 109.778 116.881 110.234 116.881 110.796C116.881 111.359 117.337 111.815 117.899 111.815Z" fill="#407BFF"/>
<path d="M115.709 118.225C115.71 118.63 115.591 119.025 115.367 119.362C115.143 119.698 114.824 119.961 114.45 120.116C114.077 120.271 113.666 120.312 113.27 120.233C112.873 120.154 112.509 119.96 112.223 119.674C111.937 119.388 111.743 119.024 111.664 118.627C111.585 118.231 111.626 117.82 111.781 117.447C111.937 117.073 112.199 116.755 112.536 116.531C112.872 116.307 113.267 116.188 113.672 116.188C114.212 116.188 114.73 116.403 115.112 116.785C115.494 117.167 115.709 117.685 115.709 118.225Z" fill="#407BFF"/>
<path d="M103.763 122.89C103.764 123.237 103.662 123.576 103.47 123.865C103.278 124.153 103.004 124.379 102.684 124.512C102.364 124.645 102.011 124.68 101.671 124.613C101.331 124.545 101.018 124.378 100.773 124.133C100.528 123.888 100.361 123.575 100.293 123.235C100.226 122.895 100.261 122.542 100.394 122.222C100.527 121.902 100.752 121.628 101.041 121.436C101.33 121.244 101.669 121.142 102.016 121.143C102.479 121.143 102.924 121.327 103.251 121.655C103.579 121.982 103.763 122.426 103.763 122.89Z" fill="#407BFF"/>
<path d="M109.885 79.3231C109.886 79.5257 109.826 79.7241 109.715 79.893C109.603 80.0619 109.443 80.1939 109.256 80.2721C109.069 80.3503 108.863 80.3713 108.665 80.3323C108.466 80.2934 108.283 80.1963 108.139 80.0534C107.996 79.9105 107.898 79.7282 107.858 79.5295C107.818 79.3309 107.838 79.1249 107.915 78.9376C107.993 78.7503 108.124 78.5902 108.292 78.4775C108.461 78.3648 108.659 78.3047 108.861 78.3047C109.132 78.3047 109.391 78.4118 109.583 78.6027C109.775 78.7935 109.883 79.0526 109.885 79.3231Z" fill="#407BFF"/>
<path d="M122.705 94.477C122.706 94.6798 122.647 94.8783 122.534 95.0473C122.422 95.2164 122.263 95.3483 122.075 95.4264C121.888 95.5044 121.682 95.5251 121.483 95.4858C121.284 95.4465 121.101 95.3489 120.958 95.2055C120.815 95.0621 120.717 94.8793 120.678 94.6803C120.638 94.4813 120.659 94.2752 120.737 94.088C120.815 93.9008 120.947 93.741 121.116 93.6289C121.285 93.5169 121.484 93.4575 121.686 93.4585C121.957 93.4585 122.216 93.5658 122.407 93.7568C122.598 93.9478 122.705 94.2068 122.705 94.477Z" fill="#407BFF"/>
<path d="M104.039 102.772C104.039 103.003 103.971 103.228 103.843 103.42C103.714 103.612 103.532 103.761 103.319 103.849C103.106 103.938 102.872 103.961 102.646 103.916C102.419 103.871 102.212 103.76 102.049 103.597C101.885 103.433 101.774 103.226 101.729 102.999C101.684 102.773 101.708 102.539 101.796 102.326C101.884 102.113 102.034 101.931 102.225 101.802C102.417 101.674 102.642 101.606 102.873 101.606C103.026 101.606 103.178 101.636 103.319 101.695C103.461 101.753 103.589 101.839 103.698 101.947C103.806 102.056 103.892 102.184 103.95 102.326C104.009 102.467 104.039 102.619 104.039 102.772Z" fill="#407BFF"/>
<path d="M71.2726 80.3465C71.9981 80.3465 72.5863 79.7584 72.5863 79.0329C72.5863 78.3074 71.9981 77.7192 71.2726 77.7192C70.5471 77.7192 69.959 78.3074 69.959 79.0329C69.959 79.7584 70.5471 80.3465 71.2726 80.3465Z" fill="#407BFF"/>
</svg>
