<?xml version="1.0" encoding="UTF-8" standalone="no"?>
<svg
   width="153.80684"
   height="150.08501"
   viewBox="0 0 153.80682 150.085"
   fill="none"
   version="1.1"
   id="svg91"
   sodipodi:docname="Social Growth-bro 1.svg"
   inkscape:version="1.3 (0e150ed6c4, 2023-07-21)"
   inkscape:export-filename="socialship3.svg"
   inkscape:export-xdpi="96"
   inkscape:export-ydpi="96"
   xmlns:inkscape="http://www.inkscape.org/namespaces/inkscape"
   xmlns:sodipodi="http://sodipodi.sourceforge.net/DTD/sodipodi-0.dtd"
   xmlns="http://www.w3.org/2000/svg"
   xmlns:svg="http://www.w3.org/2000/svg">
  <defs
     id="defs91" />
  <sodipodi:namedview
     id="namedview91"
     pagecolor="#ffffff"
     bordercolor="#000000"
     borderopacity="0.25"
     inkscape:showpageshadow="false"
     inkscape:pageopacity="0.0"
     inkscape:pagecheckerboard="false"
     inkscape:deskcolor="#d1d1d1"
     inkscape:zoom="16.186209"
     inkscape:cx="115.34511"
     inkscape:cy="71.511495"
     inkscape:window-width="1600"
     inkscape:window-height="877"
     inkscape:window-x="-8"
     inkscape:window-y="-8"
     inkscape:window-maximized="1"
     inkscape:current-layer="svg91"
     showborder="false"
     borderlayer="false"
     inkscape:clip-to-page="false" />
  <path
     d="m 122.93657,19.262929 c 0,0 -3.472,-6.3373 -8.928,-2.756 -5.456,3.5813 -3.17,8.5382 -5.759,9.3683 -2.589,0.8301 -4.608,-2.2057 -7.202,-0.8301 -2.594,1.3756 -1.731,3.5813 -3.472,3.5813 -1.741,0 -4.895,-1.3756 -6.338,-0.8254 -1.444,0.5503 -3.472,3.5813 -3.472,3.5813 0,0 -14.687,0.8254 -12.961,2.4808 1.726,1.6555 42.919,0 42.919,0 0,0 -9.503,2.201 -4.32,3.3205 5.183,1.1194 28.232,0 28.232,0 0,0 3.472,-4.1316 1.726,-6.8875 -1.746,-2.7559 -8.352,0.2751 -9.796,-1.3756 -1.443,-1.6507 2.307,-2.7559 -0.863,-6.0621 -3.169,-3.3062 -6.889,-2.4951 -9.766,-3.5955 z"
     fill="#ffffff"
     stroke="#2e353a"
     stroke-linecap="round"
     stroke-linejoin="round"
     id="path1" />
  <g
     style="mix-blend-mode:multiply"
     opacity="0.51"
     id="g2"
     transform="translate(-43.58643,-39.601571)">
    <path
       d="m 187.438,72.018 c -0.037,-0.1737 -0.037,-0.3528 0,-0.5265 -0.022,-0.5673 -0.193,-1.1203 -0.496,-1.608 -1.726,-2.756 -8.353,0.2751 -9.796,-1.3756 -1.444,-1.6507 2.306,-2.756 -0.863,-6.0621 -2.158,-2.2532 -4.578,-2.5852 -6.815,-2.9172 -0.465,0.1868 -0.909,0.4189 -1.325,0.6925 -5.456,3.5813 -3.169,8.5382 -5.763,9.3635 -2.594,0.8254 -4.608,-2.2009 -7.202,-0.8253 -2.594,1.3756 -1.726,3.5813 -3.472,3.5813 -1.746,0 -4.896,-1.3756 -6.334,-0.8254 -0.878,0.3368 -1.984,1.5938 -2.688,2.5235 9.701,-0.2182 18.605,-0.5739 18.605,-0.5739 0,0 -9.504,2.2009 -4.321,3.3204 5.184,1.1194 28.233,0 28.233,0 0,0 2.043,-2.4097 2.237,-4.7672 z"
       fill="#22d3ee"
       id="path2" />
  </g>
  <path
     d="m 30.35227,96.841429 c 0,0 -2.1377,-3.918 -5.5254,-1.702 -3.3877,2.215 -1.984,5.284001 -3.5662,5.796001 -1.5823,0.512 -2.852,-1.366001 -4.464,-0.512 -1.612,0.854 -1.0714,2.215 -2.1378,2.215 -1.0664,0 -3.0306,-0.849 -3.9234,-0.512 -0.8927998,0.336 -2.1376998,2.22 -2.1376998,2.22 0,0 -9.08179997,0.507 -8.01039997,1.555 1.07129997,1.049 26.55579977,0 26.55579977,0 0,0 -5.8825,1.362 -2.6734,2.045 3.2091,0.683 17.4691,0 17.4691,0 0,0 2.1378,-2.557 1.0714,-4.269 -1.0664,-1.713 -5.1733,0.17 -6.0612,-0.854 -0.8878,-1.025 1.4236,-1.703 -0.5356,-3.747001 -1.9592,-2.045 -4.2805,-1.552 -6.0612,-2.235 z"
     fill="#ffffff"
     stroke="#2e353a"
     stroke-linecap="round"
     stroke-linejoin="round"
     id="path3" />
  <g
     style="mix-blend-mode:multiply"
     opacity="0.51"
     id="g4"
     transform="translate(-43.58643,-39.601571)">
    <path
       d="m 85.5253,147.524 c 0,0 2.1377,-2.557 1.0713,-4.269 -1.0664,-1.713 -5.1732,0.171 -6.0611,-0.854 -0.8878,-1.025 1.4235,-1.703 -0.5357,-3.747 -1.8848,-1.969 -4.0969,-1.575 -5.8478,-2.149 -2.351,2.319 -1.3045,5.132 -2.7627,5.635 -1.6021,0.56 -2.852,-1.485 -4.464,-0.555 -1.612,0.93 -1.0714,2.41 -2.1378,2.41 -1.0664,0 -3.0305,-0.925 -3.9233,-0.555 -0.8928,0.37 -2.0188,2.215 -2.1279,2.395 6.1851,-0.133 11.9834,-0.365 11.9834,-0.365 0,0 -5.8826,1.361 -2.6734,2.044 0.8993,0.153 1.8098,0.237 2.723,0.252 3.7349,-0.124 6.4926,-0.242 6.4926,-0.242 0,0 -0.4265,0.104 -0.992,0.275 4.6029,-0.052 9.2554,-0.275 9.2554,-0.275 z"
       fill="#22d3ee"
       id="path4" />
  </g>
  <path
     d="m 54.16097,12.408729 c 0,0 -2.1378,-3.9181004 -5.5254,-1.7029 -3.3877,2.2152 -1.984,5.2842 -3.5663,5.7965 -1.5822,0.5123 -2.852,-1.3661 -4.464,-0.5123 -1.612,0.8538 -1.0713,2.2152 -2.1377,2.2152 -1.0664,0 -3.0306,-0.8538 -3.9234,-0.5123 -0.8928,0.3415 -2.1377,2.2199 -2.1377,2.2199 0,0 -9.0917,0.5075 -8.0204,1.5321 1.0714,1.0246 26.5559,0 26.5559,0 0,0 -5.8826,1.3614 -2.6735,2.0444 3.2092,0.6831 17.4691,0 17.4691,0 0,0 2.138,-2.5567 1.071,-4.269 -1.066,-1.7124 -5.173,0.1707 -6.061,-0.8539 -0.888,-1.0245 1.424,-1.7028 -0.535,-3.7473 -1.96,-2.0444 -4.2709,-1.5273 -6.0516,-2.2104 z"
     fill="#ffffff"
     stroke="#2e353a"
     stroke-linecap="round"
     stroke-linejoin="round"
     id="path5" />
  <g
     style="mix-blend-mode:multiply"
     opacity="0.51"
     id="g6"
     transform="translate(-43.58643,-39.601571)">
    <path
       d="m 109.333,63.091 c 0,0 2.138,-2.5567 1.071,-4.2691 -1.066,-1.7124 -5.173,0.1708 -6.061,-0.8538 -0.887,-1.0246 1.424,-1.7029 -0.535,-3.7473 -1.617,-1.6887 -3.472,-1.6365 -5.0794,-1.9496 -3.2438,2.2105 -1.8749,5.2178 -3.472,5.7206 -1.5971,0.5028 -2.852,-1.3661 -4.464,-0.5123 -1.612,0.8538 -1.0664,2.2152 -2.1377,2.2152 -1.0714,0 -3.0306,-0.8538 -3.9234,-0.5123 -0.8928,0.3415 -2.1377,2.2199 -2.1377,2.2199 6.1652,-0.1328 11.9387,-0.3652 11.9387,-0.3652 0,0 -5.8826,1.3614 -2.6735,2.0444 0.2946,0.0601 0.5928,0.1029 0.8928,0.1281 4.6624,-0.1233 8.3972,-0.2751 8.3972,-0.2751 0,0 -0.779,0.1802 -1.6119,0.4411 4.7669,-0.0427 9.7959,-0.2846 9.7959,-0.2846 z"
       fill="#22d3ee"
       id="path6" />
  </g>
  <path
     d="m 140.38057,33.455329 c 0,0 -2.138,-3.918 -5.525,-1.7029 -3.388,2.2152 -1.96,5.2842 -3.562,5.7965 -1.602,0.5123 -2.852,-1.3661 -4.464,-0.5123 -1.612,0.8538 -1.066,2.2152 -2.137,2.2152 -1.072,0 -3.031,-0.8538 -3.924,-0.5123 -0.893,0.3415 -2.138,2.2152 -2.138,2.2152 0,0 -9.091,0.5123 -8.02,1.5369 1.071,1.0245 26.556,0 26.556,0 0,0 -5.878,1.3613 -2.673,2.0444 3.204,0.683 17.469,0 17.469,0 0,0 2.137,-2.5567 1.071,-4.2691 -1.066,-1.7124 -5.168,0.1708 -6.061,-0.8538 -0.893,-1.0246 1.423,-1.7029 -0.536,-3.7521 -1.959,-2.0491 -4.27,-1.5226 -6.056,-2.2057 z"
     fill="#ffffff"
     stroke="#2e353a"
     stroke-linecap="round"
     stroke-linejoin="round"
     id="path7" />
  <g
     style="mix-blend-mode:multiply"
     opacity="0.51"
     id="g8"
     transform="translate(-43.58643,-39.601571)">
    <path
       d="m 195.553,84.1375 c 0,0 2.138,-2.5567 1.071,-4.2691 -1.066,-1.7124 -5.168,0.1708 -6.061,-0.8538 -0.892,-1.0246 1.275,-1.6649 -0.382,-3.5718 -0.2,-0.0479 -0.397,-0.1081 -0.59,-0.1803 -0.173,-0.2966 -0.374,-0.5776 -0.6,-0.8395 -1.458,-0.9108 -3.026,-0.8539 -4.37,-1.1764 -0.193,0.0911 -0.378,0.1958 -0.555,0.3131 -3.388,2.2151 -1.984,5.2841 -3.567,5.7917 -1.582,0.5075 -2.852,-1.3614 -4.464,-0.5076 -1.612,0.8538 -1.071,2.2152 -2.142,2.2152 -1.072,0 -3.031,-0.8538 -3.919,-0.5123 -0.669,0.2562 -1.537,1.3709 -1.929,1.8974 6.448,-0.1281 12.702,-0.3795 12.702,-0.3795 0,0 -5.877,1.3614 -2.673,2.0444 1.571,0.2231 3.159,0.3231 4.747,0.2989 l 3.551,-0.1281 c 0,0 -0.198,0.0427 -0.496,0.1233 4.732,-0.0284 9.677,-0.2656 9.677,-0.2656 z"
       fill="#22d3ee"
       id="path8" />
  </g>
  <path
     d="m 73.82557,26.985329 v 1.7503"
     stroke="#ffffff"
     stroke-linecap="round"
     stroke-linejoin="round"
     id="path9" />
  <path
     d="m 102.26557,81.160429 16.864,31.781001 c 0.124,0.236 0.184,0.498 0.172,0.762 -0.012,0.264 -0.094,0.521 -0.238,0.747 -0.145,0.225 -0.347,0.411 -0.588,0.54 -0.241,0.13 -0.513,0.198 -0.789,0.199 h -22.568 c -0.607,0.004 -1.191,-0.223 -1.623,-0.63 -0.433,-0.407 -0.678,-0.962 -0.684,-1.542 V 81.933429 Z"
     fill="#2e353a"
     stroke="#2e353a"
     stroke-linecap="round"
     stroke-linejoin="round"
     id="path10" />
  <path
     d="m 115.33157,115.13743 -17.856,-33.584001 -4.648,0.38 v 31.083001 c 0,0.582 0.241,1.139 0.671,1.55 0.43,0.411 1.013,0.642 1.621,0.642 h 20.241 c -0.007,-0.025 -0.017,-0.048 -0.029,-0.071 z"
     fill="#ffffff"
     stroke="#000000"
     stroke-miterlimit="10"
     id="path11" />
  <path
     d="m 57.56757,81.160429 -16.8637,31.781001 c -0.1242,0.236 -0.1833,0.498 -0.1717,0.762 0.0117,0.264 0.0937,0.521 0.2383,0.747 0.1446,0.225 0.347,0.411 0.5879,0.54 0.241,0.13 0.5125,0.198 0.7889,0.199 h 22.5783 c 0.605,0.001 1.186,-0.226 1.616,-0.633 0.43,-0.407 0.675,-0.961 0.68,-1.539 V 81.933429 Z"
     fill="#2e353a"
     stroke="#2e353a"
     stroke-linecap="round"
     stroke-linejoin="round"
     id="path12" />
  <path
     d="m 44.49797,115.13743 17.8556,-33.584001 4.643,0.38 v 31.083001 c 0,0.582 -0.241,1.139 -0.671,1.55 -0.43,0.411 -1.013,0.642 -1.621,0.642 h -20.2363 z"
     fill="#ffffff"
     stroke="#000000"
     stroke-miterlimit="10"
     id="path13" />
  <g
     style="mix-blend-mode:multiply"
     id="g14"
     transform="translate(-43.58643,-39.601571)">
    <path
       d="m 105.945,121.155 -13.6403,25.653 c 4.7864,-3.264 11.0263,-6.546 18.2823,-8.107 v -17.166 z"
       fill="#22d3ee"
       id="path14" />
  </g>
  <path
     d="m 72.09457,102.21643 -6.011,9.951 h 12.018 z"
     fill="#22d3ee"
     stroke="#2e353a"
     stroke-linecap="round"
     stroke-linejoin="round"
     id="path15" />
  <path
     d="m 87.82857,102.21643 -6.007,9.951 h 12.018 z"
     fill="#22d3ee"
     stroke="#2e353a"
     stroke-linecap="round"
     stroke-linejoin="round"
     id="path16" />
  <path
     d="m 78.26057,112.06343 h -12.425 v 2.144 h 12.425 z"
     fill="#2e353a"
     stroke="#2e353a"
     stroke-linecap="round"
     stroke-linejoin="round"
     id="path17" />
  <path
     d="m 93.98257,112.06343 h -12.424 v 2.144 h 12.424 z"
     fill="#2e353a"
     stroke="#2e353a"
     stroke-linecap="round"
     stroke-linejoin="round"
     id="path18" />
  <path
     d="m 82.06957,1.4565286 c -0.272,-0.2987 -0.607,-0.53819996 -0.984,-0.70239996 -0.377,-0.1641 -0.786,-0.249 -1.201,-0.249 -0.414,0 -0.823,0.0849 -1.2,0.249 -0.377,0.1642 -0.713,0.40369996 -0.984,0.70239996 -5.719,6.2945 -20.738,24.4239004 -20.738,41.5382004 v 50.0287 l 8.273,14.444001 h 29.418 l 8.273,-14.444001 v -50.0287 c 0,-17.119 -15.103,-35.2532004 -20.857,-41.5382004 z"
     fill="#ffffff"
     stroke="#000000"
     stroke-miterlimit="10"
     id="path19" />
  <path
     d="m 79.75757,2.4950286 c 0,-0.8918 -2.639,4.4256 -4.499,6.7499 0.03,-0.1992 0.065,-0.3937 0.094,-0.5929 0,0 -11.056,13.4808004 -14.384,26.1695004 -0.348,1.3054 -0.625,2.6275 -0.828,3.9607 -0.248,1.5938 -0.556,37.2452 -0.719,58.5622 l 5.813,10.123001 h 14.359 c -0.288,-1.039 0.496,-5.825 0.164,-7.078 z"
     fill="#22d3ee"
     id="path20" />
  <path
     d="m 62.25457,92.155429 c 0.408,0 0.739,-0.317 0.739,-0.707 0,-0.39 -0.331,-0.707 -0.739,-0.707 -0.409,0 -0.739,0.317 -0.739,0.707 0,0.39 0.33,0.707 0.739,0.707 z"
     stroke="#2e353a"
     stroke-linecap="round"
     stroke-linejoin="round"
     id="path21" />
  <path
     d="m 66.28157,92.155429 c 0.408,0 0.739,-0.317 0.739,-0.707 0,-0.39 -0.331,-0.707 -0.739,-0.707 -0.408,0 -0.739,0.317 -0.739,0.707 0,0.39 0.331,0.707 0.739,0.707 z"
     stroke="#2e353a"
     stroke-linecap="round"
     stroke-linejoin="round"
     id="path22" />
  <path
     d="m 70.30857,92.155429 c 0.408,0 0.739,-0.317 0.739,-0.707 0,-0.39 -0.331,-0.707 -0.739,-0.707 -0.408,0 -0.739,0.317 -0.739,0.707 0,0.39 0.331,0.707 0.739,0.707 z"
     stroke="#2e353a"
     stroke-linecap="round"
     stroke-linejoin="round"
     id="path23" />
  <path
     d="m 74.33657,92.155429 c 0.408,0 0.739,-0.317 0.739,-0.707 0,-0.39 -0.331,-0.707 -0.739,-0.707 -0.409,0 -0.739,0.317 -0.739,0.707 0,0.39 0.33,0.707 0.739,0.707 z"
     stroke="#2e353a"
     stroke-linecap="round"
     stroke-linejoin="round"
     id="path24" />
  <path
     d="m 85.42757,92.155429 c 0.409,0 0.739,-0.317 0.739,-0.707 0,-0.39 -0.33,-0.707 -0.739,-0.707 -0.408,0 -0.739,0.317 -0.739,0.707 0,0.39 0.331,0.707 0.739,0.707 z"
     stroke="#2e353a"
     stroke-linecap="round"
     stroke-linejoin="round"
     id="path25" />
  <path
     d="m 89.45557,92.155429 c 0.408,0 0.739,-0.317 0.739,-0.707 0,-0.39 -0.331,-0.707 -0.739,-0.707 -0.408,0 -0.739,0.317 -0.739,0.707 0,0.39 0.331,0.707 0.739,0.707 z"
     stroke="#2e353a"
     stroke-linecap="round"
     stroke-linejoin="round"
     id="path26" />
  <path
     d="m 93.48257,92.155429 c 0.408,0 0.739,-0.317 0.739,-0.707 0,-0.39 -0.331,-0.707 -0.739,-0.707 -0.408,0 -0.739,0.317 -0.739,0.707 0,0.39 0.331,0.707 0.739,0.707 z"
     stroke="#2e353a"
     stroke-linecap="round"
     stroke-linejoin="round"
     id="path27" />
  <path
     d="m 97.50957,92.155429 c 0.409,0 0.739,-0.317 0.739,-0.707 0,-0.39 -0.33,-0.707 -0.739,-0.707 -0.408,0 -0.739,0.317 -0.739,0.707 0,0.39 0.331,0.707 0.739,0.707 z"
     stroke="#2e353a"
     stroke-linecap="round"
     stroke-linejoin="round"
     id="path28" />
  <path
     d="m 59.65557,45.598629 v 46.9128"
     stroke="#2e353a"
     stroke-linecap="round"
     stroke-linejoin="round"
     id="path29" />
  <path
     d="m 64.10857,26.586929 c -2.168,4.6011 -3.824,9.5485 -4.31,14.4722"
     stroke="#2e353a"
     stroke-linecap="round"
     stroke-linejoin="round"
     id="path30" />
  <path
     d="m 82.17857,4.6960286 c -0.231,-0.2946 -0.531,-0.5337 -0.875,-0.6983 -0.344,-0.1647 -0.724,-0.2504 -1.109,-0.2504 -0.385,0 -0.765,0.0857 -1.109,0.2504 -0.345,0.1646 -0.644,0.4037 -0.875,0.6983 -4.512,5.4172004 -8.462,11.2410004 -11.795,17.3894004"
     stroke="#2e353a"
     stroke-linecap="round"
     stroke-linejoin="round"
     id="path31" />
  <path
     d="m 86.69157,71.122429 c 0.206,-0.015 0.397,-0.104 0.537,-0.248 0.14,-0.145 0.218,-0.335 0.218,-0.532 0,-0.197 -0.078,-0.387 -0.218,-0.531 -0.14,-0.145 -0.331,-0.234 -0.537,-0.249 -0.205,0.015 -0.397,0.104 -0.537,0.249 -0.14,0.144 -0.218,0.334 -0.218,0.531 0,0.197 0.078,0.387 0.218,0.532 0.14,0.144 0.332,0.233 0.537,0.248 z"
     fill="#ffffff"
     id="path54" />
  <path
     d="m 79.94657,116.25643 c -0.263,0 -0.515,-0.1 -0.701,-0.278 -0.186,-0.178 -0.291,-0.419 -0.291,-0.671 l -1.021,-33.241001 c -0.001,-0.255 0.051,-0.507 0.152,-0.742 0.102,-0.235 0.251,-0.449 0.439,-0.628 0.188,-0.18 0.411,-0.323 0.657,-0.42 0.246,-0.097 0.509,-0.146 0.775,-0.146 0.266,0 0.529,0.05 0.774,0.148 0.245,0.097 0.468,0.24 0.655,0.419 0.188,0.18 0.337,0.393 0.438,0.628 0.101,0.235 0.153,0.487 0.152,0.741 l -1.032,33.241001 c 0,0.125 -0.026,0.249 -0.076,0.365 -0.05,0.115 -0.123,0.22 -0.216,0.308 -0.093,0.088 -0.203,0.158 -0.324,0.205 -0.12,0.048 -0.25,0.072 -0.381,0.071 z"
     fill="#2e353a"
     stroke="#2e353a"
     stroke-linecap="round"
     stroke-linejoin="round"
     id="path56" />
  <path
     d="m 79.98157,133.24743 v 2.215"
     stroke="#2e353a"
     stroke-linecap="round"
     stroke-linejoin="round"
     id="path57" />
  <path
     d="m 77.69957,1.4609286 c -3.688,4.0603 -7.066,8.369 -10.108,12.8926004 h 24.646 c -3.059,-4.5332004 -6.457,-8.8484004 -10.168,-12.9116004 -0.273,-0.2975 -0.61,-0.53559996 -0.988,-0.69809996 -0.378,-0.1625 -0.787,-0.2456 -1.201,-0.2438 -0.415,0.0018 -0.823,0.0885 -1.2,0.2543 -0.376,0.1657 -0.71,0.40669996 -0.981,0.70659996 z"
     fill="#2e353a"
     stroke="#2e353a"
     stroke-linecap="round"
     stroke-linejoin="round"
     id="path58" />
  <path
     d="m 73.84957,13.708429 c 0.408,0 0.739,-0.3164 0.739,-0.7067 0,-0.3904 -0.331,-0.7068 -0.739,-0.7068 -0.408,0 -0.739,0.3164 -0.739,0.7068 0,0.3903 0.331,0.7067 0.739,0.7067 z"
     fill="#ffffff"
     id="path59" />
  <path
     d="m 78.61657,13.001829 c 0,0.1409 -0.044,0.2787 -0.126,0.3958 -0.082,0.1171 -0.198,0.2083 -0.335,0.262 -0.136,0.0537 -0.286,0.0675 -0.43,0.0397 -0.145,-0.0279 -0.277,-0.0961 -0.381,-0.1961 -0.104,-0.1 -0.174,-0.2272 -0.202,-0.3655 -0.029,-0.1384 -0.013,-0.2816 0.044,-0.4115 0.057,-0.1299 0.153,-0.2407 0.276,-0.3183 0.123,-0.0776 0.267,-0.1186 0.415,-0.1176 0.097,0 0.194,0.0184 0.284,0.0542 0.09,0.0358 0.171,0.0883 0.24,0.1544 0.069,0.0662 0.123,0.1447 0.16,0.2309 0.037,0.0863 0.056,0.1788 0.055,0.272 z"
     fill="#ffffff"
     id="path60" />
  <path
     d="m 81.90057,13.708429 c 0.408,0 0.739,-0.3164 0.739,-0.7067 0,-0.3904 -0.331,-0.7068 -0.739,-0.7068 -0.408,0 -0.739,0.3164 -0.739,0.7068 0,0.3903 0.331,0.7067 0.739,0.7067 z"
     fill="#ffffff"
     id="path61" />
  <path
     d="m 85.92757,13.708429 c 0.409,0 0.739,-0.3164 0.739,-0.7067 0,-0.3904 -0.33,-0.7068 -0.739,-0.7068 -0.408,0 -0.739,0.3164 -0.739,0.7068 0,0.3903 0.331,0.7067 0.739,0.7067 z"
     fill="#ffffff"
     id="path62" />
  <path
     d="m 72.03457,13.087129 c 0,0 4.96,-7.6321004 6.979,-9.9612004"
     stroke="#ffffff"
     stroke-linecap="round"
     stroke-linejoin="round"
     id="path63" />
  <path
     d="m 94.65357,107.46743 8.273,-14.444001 h -45.964 l 8.273,14.444001 z"
     fill="#2e353a"
     stroke="#2e353a"
     stroke-linecap="round"
     stroke-linejoin="round"
     id="path64" />
  <path
     d="m 66.49457,99.635429 c -0.03,0.013 -0.057,0.031 -0.079,0.053 -0.023,0.023 -0.041,0.049 -0.053,0.078 -0.012,0.029 -0.018,0.06 -0.017,0.092 0,0.031 0.007,0.062 0.021,0.09 l 0.744,1.665001 c 0.019,0.043 0.051,0.079 0.091,0.104 0.041,0.025 0.088,0.039 0.137,0.039 0.032,0.007 0.066,0.007 0.099,0 0.03,-0.013 0.057,-0.031 0.08,-0.053 0.023,-0.023 0.04,-0.049 0.052,-0.078 0.012,-0.029 0.018,-0.06 0.018,-0.092 -0.001,-0.031 -0.008,-0.062 -0.021,-0.09 l -0.744,-1.665001 c -0.012,-0.03 -0.029,-0.058 -0.052,-0.081 -0.023,-0.024 -0.05,-0.043 -0.081,-0.056 -0.03,-0.013 -0.063,-0.02 -0.097,-0.021 -0.033,-0.001 -0.066,0.004 -0.098,0.015 z"
     fill="#ffffff"
     id="path65" />
  <path
     d="m 67.75957,96.808429 c 0.021,0.042 0.053,0.077 0.093,0.103 0.04,0.025 0.087,0.039 0.135,0.04 0.035,-0.001 0.069,-0.009 0.1,-0.024 0.03,-0.013 0.057,-0.03 0.08,-0.053 0.022,-0.022 0.04,-0.049 0.052,-0.078 0.012,-0.029 0.018,-0.06 0.017,-0.091 0,-0.032 -0.007,-0.063 -0.02,-0.091 l -1.652,-3.591 h -0.536 z"
     fill="#ffffff"
     id="path66" />
  <path
     d="m 91.45357,100.88843 c 0.035,0.006 0.07,0.006 0.105,0 0.046,0.001 0.092,-0.011 0.132,-0.035 0.04,-0.023 0.071,-0.058 0.091,-0.098 l 3.789,-7.751001 h -0.55 l -3.696,7.566001 c -0.013,0.029 -0.021,0.06 -0.022,0.092 -0.001,0.031 0.004,0.063 0.016,0.093 0.013,0.029 0.031,0.056 0.054,0.079 0.023,0.023 0.051,0.041 0.081,0.054 z"
     fill="#ffffff"
     id="path67" />
  <path
     d="m 67.27257,107.04043 c 0.02,0.042 0.051,0.078 0.092,0.103 0.041,0.026 0.088,0.039 0.136,0.039 0.033,0.007 0.067,0.007 0.1,0 0.03,-0.012 0.057,-0.03 0.079,-0.053 0.023,-0.022 0.041,-0.049 0.053,-0.078 0.012,-0.029 0.018,-0.06 0.017,-0.091 0,-0.032 -0.007,-0.062 -0.021,-0.091 l -6.304,-13.827001 h -0.54 z"
     fill="#ffffff"
     id="path68" />
  <path
     d="m 98.41857,93.023429 -6.523,12.774001 c -0.014,0.028 -0.022,0.059 -0.024,0.09 -0.003,0.031 0.002,0.062 0.012,0.092 0.011,0.029 0.028,0.056 0.049,0.08 0.022,0.023 0.048,0.042 0.078,0.056 0.033,0.017 0.071,0.025 0.109,0.024 0.046,0 0.091,-0.012 0.129,-0.036 0.039,-0.024 0.07,-0.057 0.089,-0.097 l 6.631,-12.983001 z"
     fill="#ffffff"
     id="path69" />
  <path
     d="m 65.88357,98.881429 c 0.02,0.042 0.052,0.078 0.092,0.104 0.041,0.025 0.088,0.038 0.137,0.038 0.032,0.007 0.066,0.007 0.099,0 0.03,-0.012 0.057,-0.03 0.08,-0.053 0.023,-0.022 0.04,-0.049 0.052,-0.078 0.012,-0.029 0.018,-0.06 0.018,-0.091 -0.001,-0.031 -0.008,-0.062 -0.021,-0.091 l -2.535,-5.668 h -0.54 z"
     fill="#ffffff"
     id="path70" />
  <path
     d="m 103.96857,51.793429 v 1.5654"
     stroke="#2e353a"
     stroke-linecap="round"
     stroke-linejoin="round"
     id="path71" />
  <path
     d="m 103.96857,42.581729 v 8.1682"
     stroke="#2e353a"
     stroke-linecap="round"
     stroke-linejoin="round"
     id="path72" />
  <path
     d="m 104.94057,59.776629 v 6.4988"
     stroke="#2e353a"
     stroke-linecap="round"
     stroke-linejoin="round"
     id="path73" />
  <path
     d="m 104.77057,44.758929 v 13.8698 c 0,0 0.372,0 0.56,-0.9914 0.189,-0.9914 -0.188,-2.9694 0.283,-3.7947 0.471,-0.8254 1.131,-1.3519 1.414,-2.163 0.282,-0.8112 -0.66,-1.4231 -0.283,-2.7939 0.377,-1.3709 1.984,-0.6309 1.696,-2.4334 -0.149,-0.9487 -1.25,-1.2807 -2.018,-1.6981 -0.255,-0.1068 -0.465,-0.2922 -0.596,-0.5266 -0.153,-0.37 0.333,-1.2143 0,-1.4894 -0.332,-0.2751 -0.828,0.166 -0.992,0.4743 -0.203,0.4507 -0.064,1.0863 -0.064,1.5464 z"
     fill="#ffffff"
     stroke="#2e353a"
     stroke-miterlimit="10"
     id="path74" />
  <path
     d="m 41.89797,123.73743 v 17.83"
     stroke="#2e353a"
     stroke-linecap="round"
     stroke-linejoin="round"
     id="path75" />
  <path
     d="m 41.92807,115.98643 v 6.916 c 0,0 -0.1835,0 -0.2777,-0.474 -0.0943,-0.475 0.0942,-1.48 -0.1439,-1.898 -0.2682,-0.338 -0.5039,-0.698 -0.7043,-1.077 -0.1389,-0.403 0.3274,-0.721 0.1389,-1.394 -0.1885,-0.674 -0.992,-0.313 -0.8432,-1.215 0.0744,-0.474 0.6249,-0.635 0.992,-0.844 0.1274,-0.054 0.2322,-0.148 0.2976,-0.265 0.0744,-0.185 -0.1637,-0.603 0,-0.74 0.1637,-0.138 0.4117,0.08 0.496,0.237 0.0635,0.246 0.0786,0.502 0.0446,0.754 z"
     fill="#ffffff"
     stroke="#2e353a"
     stroke-miterlimit="10"
     id="path76" />
  <path
     d="m 55.07177,45.266629 v 7.2716"
     stroke="#2e353a"
     stroke-linecap="round"
     stroke-linejoin="round"
     id="path77" />
  <path
     d="m 55.07177,54.132029 v 2.6611"
     stroke="#2e353a"
     stroke-linecap="round"
     stroke-linejoin="round"
     id="path78" />
  <path
     d="m 54.16357,69.657429 v 2.661"
     stroke="#2e353a"
     stroke-linecap="round"
     stroke-linejoin="round"
     id="path79" />
  <path
     d="m 54.35757,45.826229 v 22.7682 c 0,0 -0.3769,0 -0.5654,-1.627 -0.1885,-1.627 0.1884,-4.886 -0.2828,-6.214 -0.4712,-1.3278 -1.1308,-2.2196 -1.4135,-3.5525 -0.2828,-1.3329 0.6596,-2.3717 0.2827,-4.5869 -0.377,-2.2152 -1.984,-1.0388 -1.6964,-3.9987 0.1488,-1.5701 1.25,-2.1061 2.0188,-2.7939 0.2879,-0.2212 0.4961,-0.5231 0.5952,-0.8633 0.1537,-0.6071 -0.3323,-1.997 0,-2.4429 0.3323,-0.4458 0.8333,0.2704 0.992,0.7875 0.2033,0.721 0.0694,1.7693 0.0694,2.5235 z"
     fill="#ffffff"
     stroke="#2e353a"
     stroke-miterlimit="10"
     id="path80" />
  <path
     d="m 79.98157,118.31043 v 13.277"
     stroke="#2e353a"
     stroke-linecap="round"
     stroke-linejoin="round"
     id="path81" />
  <path
     d="m 56.76357,108.49143 v 1.566"
     stroke="#2e353a"
     stroke-linecap="round"
     stroke-linejoin="round"
     id="path82" />
  <path
     d="m 56.76357,99.280429 v 8.168001"
     stroke="#2e353a"
     stroke-linecap="round"
     stroke-linejoin="round"
     id="path83" />
  <path
     d="m 55.78657,116.47043 v 15.297"
     stroke="#2e353a"
     stroke-linecap="round"
     stroke-linejoin="round"
     id="path84" />
  <path
     d="m 55.95917,101.45743 v 13.87 c 0,0 -0.377,0 -0.5655,-0.992 -0.1884,-0.991 0.1885,-2.974 -0.2827,-3.795 -0.4712,-0.82 -1.1309,-1.351 -1.4136,-2.163 -0.2827,-0.811 0.6597,-1.423 0.2827,-2.793 -0.3769,-1.371 -1.984,-0.631 -1.6963,-2.434 0.1488,-0.949 1.2499,-1.281 2.0187,-1.703 0.2553,-0.103 0.4655,-0.287 0.5952,-0.522 0.1538,-0.37 -0.3323,-1.214001 0,-1.489001 0.3324,-0.275 0.8333,0.166 0.992,0.474 0.2183,0.451001 0.0695,1.087001 0.0695,1.547001 z"
     fill="#ffffff"
     stroke="#2e353a"
     stroke-miterlimit="10"
     id="path85" />
  <path
     d="m 117.50357,123.73743 v 7.333"
     stroke="#2e353a"
     stroke-linecap="round"
     stroke-linejoin="round"
     id="path86" />
  <path
     d="m 117.47357,115.98643 v 6.916 c 0,0 0.189,0 0.283,-0.474 0.094,-0.475 -0.094,-1.48 0.139,-1.898 0.268,-0.338 0.504,-0.698 0.704,-1.077 0.139,-0.403 -0.327,-0.721 -0.139,-1.394 0.189,-0.674 0.992,-0.313 0.844,-1.215 -0.075,-0.474 -0.62,-0.635 -0.992,-0.844 -0.128,-0.054 -0.233,-0.148 -0.298,-0.265 -0.074,-0.185 0.169,-0.603 0,-0.74 -0.169,-0.138 -0.412,0.08 -0.496,0.237 -0.066,0.246 -0.081,0.502 -0.045,0.754 z"
     fill="#ffffff"
     stroke="#2e353a"
     stroke-miterlimit="10"
     id="path87" />
  <path
     d="m 102.07357,114.85243 v 1.565"
     stroke="#2e353a"
     stroke-linecap="round"
     stroke-linejoin="round"
     id="path88" />
  <path
     d="m 102.07357,105.64043 v 8.169"
     stroke="#2e353a"
     stroke-linecap="round"
     stroke-linejoin="round"
     id="path89" />
  <path
     d="m 103.04457,122.83543 v 26.777"
     stroke="#2e353a"
     stroke-linecap="round"
     stroke-linejoin="round"
     id="path90" />
  <path
     d="m 102.87557,107.79943 v 13.874 c 0,0 0.377,0 0.566,-0.991 0.188,-0.992 -0.189,-2.974 0.283,-3.795 0.471,-0.821 1.13,-1.352 1.413,-2.163 0.283,-0.811 -0.659,-1.423 -0.283,-2.789 0.377,-1.366 1.984,-0.631 1.692,-2.433 -0.149,-0.949 -1.245,-1.286 -2.014,-1.703 -0.254,-0.107 -0.465,-0.29 -0.6,-0.522 -0.154,-0.375 0.332,-1.219 0,-1.49 -0.332,-0.27 -0.833,0.166 -0.992,0.475 -0.208,0.46 -0.065,1.1 -0.065,1.537 z"
     fill="#ffffff"
     stroke="#2e353a"
     stroke-miterlimit="10"
     id="path91" />
</svg>
