<svg xmlns="http://www.w3.org/2000/svg" enable-background="new 0 0 256 256" viewBox="0 0 256 256" id="discord"><path fill="#3193F3" d="M205.892,5.855H50.108c-12.852,0-23.261,10.424-23.261,23.276v157.802
				c0,12.852,10.409,23.261,23.261,23.261h128.214v-22.001l16.083,19.604l1.973,2.397l32.774,39.951c0-10.018,0-210.366,0-221.014
				C229.153,16.279,218.744,5.855,205.892,5.855z"></path><path fill="#FFE2E2" d="M194.753,125.955c-2.477-17.211-6.345-33.536-12.753-50.894l-1.465-3.952
				c-2.983-11.193-31.038-18.17-35.149-17.959l24.778,23.007c-23.387-15.788-60.664-16.052-84.441,0l24.788-23.007
				c0,0-4.806-0.253-18.971,5.059C76.818,63.73,75.469,70.802,73.898,75.06c-5.923,16.03-10.139,32.64-12.563,49.556
				c-1.665,11.551,2.909,20.341,10.571,25.452l19.635,13.09l7.841-11.129c-13.153-5.312-13.153-17.453-13.153-17.453
				c18.286,17.358,65.144,17.358,83.429,0c0,0,0,12.141-13.153,17.453l7.841,11.129l19.635-13.09
				C191.918,144.778,196.112,135.398,194.753,125.955z M106.654,127.746c-5.86,0-10.624-5.66-10.624-12.637
				c0-6.988,4.764-12.647,10.624-12.647c5.87,0,10.624,5.66,10.624,12.647C117.278,122.087,112.525,127.746,106.654,127.746z
				 M149.339,127.746c-5.87,0-10.624-5.66-10.624-12.637c0-6.988,4.753-12.647,10.624-12.647s10.624,5.66,10.624,12.647
				C159.963,122.087,155.209,127.746,149.339,127.746z"></path><path fill="#35B1FC" d="M42.652,29.13v157.805c0,12.848,10.413,23.26,23.26,23.26H50.104c-12.848,0-23.26-10.413-23.26-23.26
				V29.13c0-12.847,10.413-23.271,23.26-23.271h15.809C53.065,5.859,42.652,16.282,42.652,29.13z"></path><path fill="#307FED" d="M229.157,29.13v221.01l-15.809-19.266V29.13c0-12.847-10.413-23.271-23.26-23.271h15.809
				C218.744,5.859,229.157,16.282,229.157,29.13z"></path><g><path fill="#5F266D" d="M205.892,1.855H50.108c-15.031,0-27.261,12.236-27.261,27.275v157.802c0,15.031,12.229,27.26,27.261,27.26
			h128.214c2.209,0,4-1.791,4-4v-10.819l43.737,53.307c2.374,2.892,7.093,1.215,7.093-2.537V29.13
			C233.152,14.091,220.923,1.855,205.892,1.855z M225.152,238.961l-43.737-53.307c-2.374-2.892-7.093-1.215-7.093,2.537v18.001
			H50.108c-10.62,0-19.261-8.64-19.261-19.26V29.13c0-10.628,8.641-19.275,19.261-19.275h155.783
			c10.62,0,19.261,8.647,19.261,19.275V238.961z"></path><path fill="#5F266D" d="M149.339,98.462c-8.063,0-14.624,7.468-14.624,16.647c0,9.173,6.561,16.637,14.624,16.637
			s14.624-7.463,14.624-16.637C163.963,105.93,157.402,98.462,149.339,98.462z M149.339,123.746c-3.591,0-6.624-3.955-6.624-8.637
			c0-4.768,2.972-8.647,6.624-8.647s6.624,3.879,6.624,8.647C155.963,119.791,152.93,123.746,149.339,123.746z"></path><path fill="#5F266D" d="M184.345,69.876c-3.988-13.921-34.742-20.975-39.162-20.722c-3.522,0.18-5.105,4.523-2.518,6.926
			l7.457,6.924c-14.292-3.711-30.052-3.713-44.346-0.003l7.457-6.921c2.587-2.402,1.006-6.741-2.512-6.926
			c-0.939-0.048-6.363-0.025-20.586,5.309C74.819,60.208,72.112,68.02,70.494,72.688c-1.644,4.75-9.191,23.954-13.117,51.357
			c-1.768,12.255,2.719,22.953,12.311,29.351l19.635,13.09c1.811,1.207,4.243,0.743,5.488-1.024l7.842-11.129
			c1.481-2.1,0.621-5.045-1.771-6.013c-1.892-0.764-3.447-1.695-4.727-2.708c18.489,8.093,45.102,8.092,63.589-0.004
			c-1.281,1.015-2.84,1.947-4.735,2.713c-2.392,0.967-3.253,3.912-1.771,6.013l7.841,11.129c1.249,1.774,3.686,2.226,5.488,1.024
			l19.635-13.09c9.17-6.113,14.081-17.109,12.512-28.012C195.455,102.743,190.767,87.206,184.345,69.876z M181.763,146.741
			l-16.392,10.927l-2.936-4.168c11.08-6.896,11.223-18.382,11.223-18.924c0-3.507-4.213-5.316-6.754-2.901
			c-16.75,15.9-61.171,15.899-77.921,0c-2.544-2.415-6.754-0.605-6.754,2.901c0,0.542,0.142,12.027,11.224,18.924l-2.937,4.168
			l-16.391-10.927c-7.023-4.686-10.16-12.34-8.83-21.557c2.926-20.42,7.188-33.838,12.758-49.876
			c1.378-3.978,3.094-8.929,14.892-13.354c1.282-0.48,2.482-0.913,3.604-1.303L83.002,73.225c-3.596,3.338,0.893,8.986,4.96,6.247
			c22.045-14.884,57.917-14.884,79.964,0c4.059,2.74,8.558-2.905,4.96-6.247L159.18,60.498c7.878,2.81,16.276,7.084,17.49,11.639
			c0.032,0.122,0.07,0.242,0.114,0.36c3.98,10.742,10.166,27.321,14.01,54.027C191.927,134.393,188.382,142.328,181.763,146.741z"></path><path fill="#5F266D" d="M106.654,98.462c-8.063,0-14.623,7.468-14.623,16.647c0,9.173,6.56,16.637,14.623,16.637
			s14.624-7.463,14.624-16.637C121.278,105.93,114.718,98.462,106.654,98.462z M106.654,123.746c-3.59,0-6.623-3.955-6.623-8.637
			c0-4.688,3.033-8.647,6.623-8.647c3.652,0,6.624,3.879,6.624,8.647C113.278,119.872,110.307,123.746,106.654,123.746z"></path></g></svg>