<svg xmlns="http://www.w3.org/2000/svg" enable-background="new 0 0 256 256" viewBox="0 0 256 256" id="spotify"><path fill="#44C7B6" d="M240.94,127.915c0,52.75-36.16,97.06-85.04,109.46c-68.972,18.194-140.84-34.102-140.84-109.46
							c0-59.97,46.73-109.03,105.77-112.71C185.206,10.913,240.94,62.239,240.94,127.915z"></path><path fill="#4BDBC3" d="M135.13,240.625c-63.401,4.274-120.07-46.235-120.07-112.71c0-65.535,55.585-117.012,120.11-112.71
							C76.124,18.881,29.39,67.958,29.39,127.915C29.39,187.848,76.106,236.937,135.13,240.625z"></path><path fill="#3BB2A0" d="M240.94,127.915c0,65.627-55.698,117.004-120.11,112.71c59.051-3.675,105.78-52.748,105.78-112.71
							c0-59.961-46.738-109.035-105.78-112.71C185.206,10.913,240.94,62.239,240.94,127.915z"></path><g><path fill="#796E84" d="M64.761 93.825l.639 1.163c1.818 3.308 5.813 4.923 9.593 3.937 57.531-15.023 100.427 2.43 116.234 10.644 3.839 1.995 8.632.825 10.979-2.69 2.512-3.762 1.246-8.739-2.759-11.047C146.703 65.426 91.327 76.377 69.707 82.59 64.719 84.023 62.343 89.427 64.761 93.825zM68.451 134.757l.565 1.027c1.606 2.922 5.135 4.349 8.473 3.477 50.819-13.27 88.71 2.147 102.673 9.402 3.391 1.762 7.625.729 9.698-2.376 2.223-3.329 1.095-7.722-2.437-9.758-46.591-26.858-95.506-17.185-114.603-11.698C68.414 126.098 66.316 130.872 68.451 134.757zM75.42 178.01l.471.856c1.338 2.435 4.279 3.624 7.061 2.898 42.348-11.058 73.923 1.789 85.559 7.835 2.826 1.468 6.354.607 8.082-1.98 1.854-2.777.909-6.437-2.031-8.132-38.825-22.382-79.587-14.321-95.501-9.748C75.389 170.795 73.64 174.773 75.42 178.01z"></path></g><g><path fill="#5F266D" d="M120.581,11.213C59.167,15.041,11.06,66.303,11.06,127.915c0,77.246,73.559,132.4,145.823,113.337
			c51.847-13.152,88.057-59.758,88.057-113.337C244.94,58.546,185.852,6.855,120.581,11.213z M154.88,233.507
			C87.894,251.177,19.06,200.168,19.06,127.915c0-57.397,44.812-105.152,102.036-108.719
			c60.911-4.057,115.844,44.19,115.844,108.719C236.94,177.83,203.21,221.247,154.88,233.507z"></path><path fill="#5F266D" d="M69.011 59.238c.099-.112 10.052-11.325 28.607-17.699 2.089-.718 3.201-2.993 2.484-5.083-.718-2.09-2.996-3.198-5.083-2.484-20.553 7.06-31.572 19.475-32.031 20-1.454 1.663-1.285 4.19.378 5.644C65.03 61.07 67.557 60.901 69.011 59.238zM111.465 38.15c2.167-.327 4.386-.57 6.599-.721 2.204-.151 3.868-2.06 3.718-4.264-.151-2.203-2.045-3.862-4.264-3.718-2.429.166-4.867.433-7.248.792-2.185.33-3.688 2.369-3.357 4.553C107.244 36.984 109.29 38.48 111.465 38.15zM201.445 92.367C147.328 61.17 90.517 72.448 68.602 78.745c-15.712 4.514-8.096 28.103 7.401 24.05 56.17-14.669 98.002 2.333 113.379 10.323 5.607 2.914 12.701 1.147 16.15-4.018C209.365 103.362 207.397 95.798 201.445 92.367zM193.071 106.02c-32.161-16.712-75.169-22.435-119.089-10.965-2.015.524-4.152-.313-5.077-1.993l-.639-1.163c0 0 0 0 0 0-1.207-2.197.085-4.758 2.545-5.465 20.933-6.015 75.176-16.803 126.638 12.864C202.221 102.048 197.909 108.534 193.071 106.02zM189.421 133.064c-47.957-27.646-98.291-17.656-117.705-12.076-6.887 1.978-10.135 9.573-6.77 15.696-.535-1 3.582 9.058 13.554 6.448 49.461-12.918 86.283 2.048 99.818 9.082 5.253 2.728 11.642 1.127 14.869-3.705C196.751 143.173 194.864 136.201 189.421 133.064zM182.006 145.115c-28.352-14.733-66.441-19.93-105.528-9.723-2.938.766-3.972-1.562-4.522-2.562-.903-1.643.042-3.6 1.968-4.154 18.434-5.296 66.198-14.797 111.501 11.318C189.115 142.124 185.745 147.056 182.006 145.115zM176.559 176.022c-40.184-23.166-82.341-14.799-98.603-10.127-5.538 1.592-9.512 7.723-5.571 14.898 2.227 4.05 6.985 6.041 11.577 4.841 40.993-10.703 71.494 1.689 82.704 7.515 4.675 2.429 10.372 1.006 13.252-3.308C183.098 185.079 181.436 178.833 176.559 176.022zM170.354 186.05c-23.505-12.215-55.395-16.779-88.414-8.156-1.024.267-2.094-.134-2.544-.953-.002-.003-.471-.858-.471-.858-.56-1.017.075-2.164 1.24-2.499 15.28-4.39 54.869-12.265 92.398 9.369C174.904 184.304 172.677 187.255 170.354 186.05z"></path></g></svg>