<svg xmlns="http://www.w3.org/2000/svg" enable-background="new 0 0 256 256" viewBox="0 0 256 256" id="steam"><path fill="#87828E" d="M205.424,217.455c0,0,0,0-0.01,0c-62.097,54.218-161.522,29.01-189.11-50.73
					C-12.118,84.58,55.728,3.152,135.484,10.095c28.381,1.749,56.591,13.957,77.41,35.66c0.02,0.02,0.03,0.03,0.04,0.05
					C256.868,89.744,260.215,168.83,205.424,217.455z"></path><path fill="#A4A4A5" d="M135.554,246.045c-53.869,3.442-102.15-29.893-119.25-79.32c-28.379-82.02,39.014-163.333,119.25-156.64
					c-0.02,0-0.05,0-0.07,0.01C55.27,14.905,2.577,98.291,33.834,173.355v0.01C50.474,213.467,88.929,243.086,135.554,246.045z"></path><path fill="#796E84" d="M246.274,128.069c0,68.348-57.807,122.362-125.72,117.98c61.8-3.86,110.72-55.21,110.72-117.98
					s-48.92-114.12-110.72-117.98C188.488,5.707,246.274,59.74,246.274,128.069z"></path><g><path fill="#FFE2E2" d="M211.094,100.115c0,25.06-20.31,45.37-45.37,45.37c-0.75,0-1.5-0.02-2.24-0.05l-35.63,26.08
				c0.2,1.5,0.31,3.03,0.31,4.59c0,19.59-15.88,35.46-35.46,35.46c-17.43,0-31.91-12.56-34.89-29.13l-23.98-9.07v-0.01l-17.53-6.63
				c-4.806-13.89-6.81-29.009-6.46-39.57c68.166,25.608,56.598,21.262,59.44,22.33c5.88-5.18,13.49-8.44,21.85-8.8l29.21-40.48
				v-0.09c0-25.06,20.32-45.38,45.38-45.38S211.094,75.055,211.094,100.115z"></path></g><g><path fill="#5F266D" d="M215.781,42.986C168.57-6.231,81.226-10.366,31.896,52.896C6.935,84.909-1.598,127.221,12.524,168.032
			c28.683,82.904,131.738,108.196,195.555,52.415C259.31,174.98,266.289,96.466,215.781,42.986z M13.88,132.943
			c0.261,0.098,74.181,27.874,74.45,27.948c6.09,1.679,10.343,7.265,10.343,13.583c0,9.931-9.462,15.574-17.904,12.369
			c-45.818-17.345-60.263-22.805-61.264-23.184C16.268,153.816,14.284,142.722,13.88,132.943z M123.889,172.044
			c2.495,18.668-12.149,35.521-31.185,35.521c-12.626,0-23.719-7.451-28.696-18.511l8.613,3.26
			c5.023,6.168,12.627,9.821,20.592,9.821c14.64,0,26.55-11.915,26.55-26.56c0-14.641-11.911-26.551-26.55-26.551
			c-3.216,0-6.33,0.571-9.284,1.685l-6.125-2.301c4.144-2.228,8.766-3.524,13.502-3.729c1.223-0.053,2.355-0.662,3.071-1.655
			l29.21-40.479c0.492-0.682,0.756-1.591,0.756-2.431c0-22.817,18.563-41.381,41.38-41.381c22.812,0,41.37,18.563,41.37,41.381
			c0,22.919-18.919,42.335-43.447,41.322c-0.917-0.039-1.795,0.234-2.526,0.77l-35.63,26.08
			C124.31,169.152,123.695,170.593,123.889,172.044z M99.364,158.095c7.21,2.545,12.4,9.41,12.4,17.481
			c0,9.981-7.922,18.124-17.802,18.521c8.156-3.441,12.711-11.387,12.711-19.622C106.674,168.089,103.891,162.193,99.364,158.095z
			 M202.783,214.443c-56.902,49.682-148.649,30.798-179.496-40.798c17.361,6.569,13.693,5.179,31.053,11.75
			c4.237,17.613,20.011,30.17,38.364,30.17c22.849,0,40.989-19.482,39.361-42.176l32.671-23.914c0.329,0.006,0.658,0.01,0.987,0.01
			c27.223,0,49.37-22.146,49.37-49.369c0-27.229-22.147-49.381-49.37-49.381c-26.79,0-48.665,21.444-49.363,48.154l-27.374,37.936
			c-7.429,0.7-14.553,3.53-20.453,8.103l-54.812-20.589c0.73-23.67,9.028-46.701,24.483-66.523
			c44.119-56.585,123.624-57.801,171.9-9.183C252.589,91.122,255.657,167.443,202.783,214.443z"></path><path fill="#5F266D" d="M112.132 30.113c-3.493.519-6.953 1.211-10.286 2.057-2.141.543-3.437 2.72-2.893 4.86.545 2.15 2.729 3.436 4.861 2.894 3.072-.779 6.267-1.418 9.495-1.898 2.185-.324 3.693-2.359 3.368-4.544C116.352 31.296 114.321 29.78 112.132 30.113zM87.059 37.219C54.385 51.485 42.832 78.724 42.357 79.876c-.843 2.042.129 4.381 2.171 5.224 2.044.843 4.381-.13 5.224-2.171.104-.252 10.764-25.392 40.509-38.378 2.024-.884 2.949-3.242 2.065-5.267C91.441 37.258 89.081 36.334 87.059 37.219zM165.72 129.663c16.294 0 29.551-13.257 29.551-29.552 0-16.294-13.257-29.551-29.551-29.551s-29.551 13.257-29.551 29.551C136.169 116.406 149.426 129.663 165.72 129.663zM165.72 78.561c11.883 0 21.551 9.668 21.551 21.551 0 11.884-9.668 21.552-21.551 21.552s-21.551-9.668-21.551-21.552C144.169 88.229 153.837 78.561 165.72 78.561z"></path></g></svg>