<svg xmlns="http://www.w3.org/2000/svg" enable-background="new 0 0 256 256" viewBox="0 0 256 256" id="facebook"><path fill="#3193F3" d="M240.94,127.895c0,52.75-36.16,97.06-85.04,109.46c-68.972,18.194-140.84-34.102-140.84-109.46
							c0-62.006,49.814-111.472,109.72-112.9C191.661,13.744,240.94,66.832,240.94,127.895z"></path><path fill="#35B1FC" d="M135.13,240.605c-63.401,4.274-120.07-46.235-120.07-112.71c0-65.638,55.7-117.004,120.11-112.71
							C76.124,18.861,29.39,67.938,29.39,127.895C29.39,187.828,76.106,236.917,135.13,240.605z"></path><path fill="#307FED" d="M240.94,127.895c0,65.627-55.698,117.004-120.11,112.71c59.051-3.675,105.78-52.748,105.78-112.71
							c0-59.961-46.738-109.035-105.78-112.71C185.254,10.89,240.94,62.271,240.94,127.895z"></path><g><path fill="#FFE2E2" d="M135.13,105.625v21.55h33.46l-5.82,31.88h-27.64v81.55c-10.98,0.74-22.743-0.363-31.88-2.5v-79.05H87.41
				v-31.88h15.84v-21.55c0-18.74,15.24-33.98,33.97-33.98h31.37v31.88h-31.37C136.07,103.525,135.13,104.465,135.13,105.625z"></path></g><g><path fill="#5F266D" d="M131.294,10.996C62.366,9.705,11.06,64.597,11.06,127.895c0,66.93,55.188,117.131,116.667,117.131
			c63.876,0,117.213-51.593,117.213-117.131C244.94,64.508,194.071,12.54,131.294,10.996z M135.13,131.175h28.664l-4.359,23.88
			H135.13c-2.209,0-4,1.791-4,4v77.735c-7.884,0.223-16.405-0.463-23.88-1.92v-75.815c0-2.209-1.791-4-4-4H91.41v-23.88h11.84
			c2.209,0,4-1.791,4-4v-21.55c0-16.531,13.444-29.98,29.97-29.98h27.37v23.88h-27.37c-3.358,0-6.09,2.736-6.09,6.1v21.55
			C131.13,129.384,132.921,131.175,135.13,131.175z M139.13,236.397v-73.341h23.64c1.932,0,3.588-1.381,3.935-3.282l5.82-31.88
			c0.447-2.453-1.438-4.718-3.935-4.718h-29.46v-15.65h29.46c2.209,0,4-1.791,4-4v-31.88c0-2.209-1.791-4-4-4h-31.37
			c-20.937,0-37.97,17.038-37.97,37.98v17.55H87.41c-2.209,0-4,1.791-4,4v31.88c0,2.209,1.791,4,4,4h11.84v70.047
			c-45.143-12.579-80.19-53.761-80.19-105.207c0-59.722,48.49-108.94,108.94-108.94c60.502,0,108.94,49.265,108.94,108.94
			C236.94,183.643,195.139,230.335,139.13,236.397z"></path><path fill="#5F266D" d="M95.02 33.963c-20.553 7.06-31.572 19.475-32.031 20-1.454 1.663-1.285 4.19.378 5.644 1.663 1.454 4.19 1.285 5.644-.378.099-.112 10.052-11.325 28.607-17.699 2.089-.718 3.201-2.993 2.484-5.083C99.385 34.357 97.107 33.249 95.02 33.963zM117.518 29.438c-2.429.166-4.867.433-7.248.792-2.185.33-3.688 2.369-3.357 4.553.331 2.192 2.378 3.688 4.553 3.357 2.167-.327 4.386-.57 6.599-.721 2.204-.151 3.868-2.06 3.718-4.264C121.631 30.952 119.732 29.287 117.518 29.438z"></path></g></svg>