<svg width="310" height="316" viewBox="0 0 310 316" fill="none" xmlns="http://www.w3.org/2000/svg">
<path d="M247.731 40.35C247.731 40.35 240.731 26.9901 229.731 34.5401C218.731 42.0901 223.341 52.54 218.121 54.29C212.901 56.04 208.831 49.64 203.601 52.54C198.371 55.44 200.111 60.09 196.601 60.09C193.091 60.09 186.731 57.1901 183.821 58.3501C180.911 59.5101 176.821 65.9 176.821 65.9C176.821 65.9 147.211 67.6401 150.691 71.1301C154.171 74.6201 237.221 71.1301 237.221 71.1301C237.221 71.1301 218.061 75.7701 228.511 78.1301C238.961 80.4901 285.431 78.1301 285.431 78.1301C285.431 78.1301 292.431 69.4201 288.911 63.6101C285.391 57.8001 272.071 64.1901 269.161 60.7101C266.251 57.2301 273.811 54.9 267.421 47.93C261.031 40.96 253.531 42.67 247.731 40.35Z" fill="white" stroke="#2E353A" stroke-linecap="round" stroke-linejoin="round"/>
<g style="mix-blend-mode:multiply" opacity="0.51">
<path d="M289.9 68.08C289.825 67.7138 289.825 67.3362 289.9 66.97C289.856 65.774 289.512 64.6082 288.9 63.58C285.42 57.77 272.06 64.16 269.15 60.68C266.24 57.2 273.8 54.87 267.41 47.9C263.06 43.15 258.18 42.45 253.67 41.75C252.732 42.1439 251.838 42.6331 251 43.21C240 50.76 244.61 61.21 239.38 62.95C234.15 64.69 230.09 58.31 224.86 61.21C219.63 64.11 221.38 68.76 217.86 68.76C214.34 68.76 207.99 65.86 205.09 67.02C203.32 67.73 201.09 70.38 199.67 72.34C219.23 71.88 237.18 71.13 237.18 71.13C237.18 71.13 218.02 75.77 228.47 78.13C238.92 80.49 285.39 78.13 285.39 78.13C285.39 78.13 289.51 73.05 289.9 68.08Z" fill="#22D3EE"/>
</g>
<path d="M61.0699 203.9C61.0699 203.9 56.7599 195.64 49.9299 200.31C43.0999 204.98 45.9299 211.45 42.7399 212.53C39.5499 213.61 36.9899 209.65 33.7399 211.45C30.4899 213.25 31.5799 216.12 29.4299 216.12C27.2799 216.12 23.3199 214.33 21.5199 215.04C19.7199 215.75 17.2099 219.72 17.2099 219.72C17.2099 219.72 -1.10007 220.79 1.05993 223C3.21993 225.21 54.5999 223 54.5999 223C54.5999 223 42.7399 225.87 49.2099 227.31C55.6799 228.75 84.4299 227.31 84.4299 227.31C84.4299 227.31 88.7399 221.92 86.5899 218.31C84.4399 214.7 76.1599 218.67 74.3699 216.51C72.5799 214.35 77.2399 212.92 73.2899 208.61C69.3399 204.3 64.6599 205.34 61.0699 203.9Z" fill="white" stroke="#2E353A" stroke-linecap="round" stroke-linejoin="round"/>
<g style="mix-blend-mode:multiply" opacity="0.51">
<path d="M84.4299 227.26C84.4299 227.26 88.7399 221.87 86.5899 218.26C84.4399 214.65 76.1599 218.62 74.3699 216.46C72.5799 214.3 77.2399 212.87 73.2899 208.56C69.4899 204.41 65.0299 205.24 61.4999 204.03C56.7599 208.92 58.8699 214.85 55.9299 215.91C52.6999 217.09 50.1799 212.78 46.9299 214.74C43.6799 216.7 44.7699 219.82 42.6199 219.82C40.4699 219.82 36.5099 217.87 34.7099 218.65C32.9099 219.43 30.6399 223.32 30.4199 223.7C42.8899 223.42 54.5799 222.93 54.5799 222.93C54.5799 222.93 42.7199 225.8 49.1899 227.24C51.0031 227.561 52.8388 227.738 54.6799 227.77C62.2099 227.51 67.7699 227.26 67.7699 227.26C67.7699 227.26 66.9099 227.48 65.7699 227.84C75.0499 227.73 84.4299 227.26 84.4299 227.26Z" fill="#22D3EE"/>
</g>
<path d="M109.07 25.9C109.07 25.9 104.76 17.64 97.9302 22.31C91.1002 26.98 93.9302 33.45 90.7402 34.53C87.5502 35.61 84.9902 31.65 81.7402 33.45C78.4902 35.25 79.5802 38.12 77.4302 38.12C75.2802 38.12 71.3202 36.32 69.5202 37.04C67.7202 37.76 65.2102 41.72 65.2102 41.72C65.2102 41.72 46.8802 42.79 49.0402 44.95C51.2002 47.11 102.58 44.95 102.58 44.95C102.58 44.95 90.7202 47.82 97.1902 49.26C103.66 50.7 132.41 49.26 132.41 49.26C132.41 49.26 136.72 43.87 134.57 40.26C132.42 36.65 124.14 40.62 122.35 38.46C120.56 36.3 125.22 34.87 121.27 30.56C117.32 26.25 112.66 27.34 109.07 25.9Z" fill="white" stroke="#2E353A" stroke-linecap="round" stroke-linejoin="round"/>
<g style="mix-blend-mode:multiply" opacity="0.51">
<path d="M132.43 49.2599C132.43 49.2599 136.74 43.87 134.59 40.26C132.44 36.65 124.16 40.62 122.37 38.46C120.58 36.3 125.24 34.87 121.29 30.56C118.03 27 114.29 27.11 111.05 26.45C104.51 31.11 107.27 37.45 104.05 38.51C100.83 39.57 98.2995 35.63 95.0495 37.43C91.7995 39.23 92.8995 42.1 90.7395 42.1C88.5795 42.1 84.6295 40.3 82.8295 41.02C81.0295 41.74 78.5195 45.7 78.5195 45.7C90.9495 45.42 102.59 44.93 102.59 44.93C102.59 44.93 90.7295 47.8 97.1995 49.24C97.7935 49.3666 98.3946 49.4568 98.9995 49.5099C108.4 49.2499 115.93 48.9299 115.93 48.9299C115.93 48.9299 114.36 49.31 112.68 49.86C122.29 49.77 132.43 49.2599 132.43 49.2599Z" fill="#22D3EE"/>
</g>
<path d="M282.9 70.2699C282.9 70.2699 278.59 62.0099 271.76 66.6799C264.93 71.3499 267.81 77.8199 264.58 78.8999C261.35 79.9799 258.83 76.0199 255.58 77.8199C252.33 79.6199 253.43 82.4899 251.27 82.4899C249.11 82.4899 245.16 80.6899 243.36 81.4099C241.56 82.1299 239.05 86.0799 239.05 86.0799C239.05 86.0799 220.72 87.1599 222.88 89.3199C225.04 91.4799 276.42 89.3199 276.42 89.3199C276.42 89.3199 264.57 92.1899 271.03 93.6299C277.49 95.0699 306.25 93.6299 306.25 93.6299C306.25 93.6299 310.56 88.2399 308.41 84.6299C306.26 81.0199 297.99 84.9899 296.19 82.8299C294.39 80.6699 299.06 79.2399 295.11 74.9199C291.16 70.5999 286.5 71.7099 282.9 70.2699Z" fill="white" stroke="#2E353A" stroke-linecap="round" stroke-linejoin="round"/>
<g style="mix-blend-mode:multiply" opacity="0.51">
<path d="M306.261 93.6299C306.261 93.6299 310.571 88.2399 308.421 84.6299C306.271 81.0199 298.001 84.9899 296.201 82.8299C294.401 80.6699 298.771 79.3199 295.431 75.2999C295.026 75.199 294.629 75.0721 294.241 74.9199C293.892 74.2947 293.487 73.7022 293.031 73.1499C290.091 71.2299 286.931 71.3499 284.221 70.6699C283.832 70.8621 283.457 71.0827 283.101 71.3299C276.271 75.9999 279.101 82.4699 275.911 83.5399C272.721 84.6099 270.161 80.6699 266.911 82.4699C263.661 84.2699 264.751 87.1399 262.591 87.1399C260.431 87.1399 256.481 85.3399 254.691 86.0599C253.341 86.5999 251.591 88.9499 250.801 90.0599C263.801 89.7899 276.411 89.2599 276.411 89.2599C276.411 89.2599 264.561 92.1299 271.021 93.5699C274.188 94.0402 277.389 94.2509 280.591 94.1999L287.751 93.9299C287.751 93.9299 287.351 94.0199 286.751 94.1899C296.291 94.1299 306.261 93.6299 306.261 93.6299Z" fill="#22D3EE"/>
</g>
<path d="M148.721 56.6301V60.3201" stroke="white" stroke-linecap="round" stroke-linejoin="round"/>
<path d="M206.06 170.84L240.06 237.84C240.31 238.338 240.43 238.891 240.406 239.448C240.383 240.005 240.217 240.546 239.926 241.021C239.634 241.496 239.226 241.888 238.74 242.161C238.255 242.434 237.707 242.578 237.15 242.58H191.65C190.426 242.588 189.25 242.11 188.378 241.252C187.506 240.393 187.011 239.224 187 238V172.47L206.06 170.84Z" fill="#2E353A" stroke="#2E353A" stroke-linecap="round" stroke-linejoin="round"/>
<path d="M232.401 242.47L196.401 171.67L187.031 172.47V238C187.031 239.225 187.518 240.4 188.384 241.267C189.251 242.133 190.426 242.62 191.651 242.62H232.461C232.446 242.568 232.426 242.518 232.401 242.47Z" fill="white" stroke="black" stroke-miterlimit="10"/>
<path d="M115.941 170.84L81.9408 237.84C81.6904 238.338 81.5712 238.891 81.5947 239.448C81.6182 240.005 81.7835 240.546 82.0751 241.021C82.3666 241.496 82.7746 241.888 83.2604 242.161C83.7462 242.434 84.2937 242.578 84.8509 242.58H130.371C131.591 242.583 132.763 242.103 133.63 241.245C134.498 240.387 134.99 239.22 135.001 238V172.47L115.941 170.84Z" fill="#2E353A" stroke="#2E353A" stroke-linecap="round" stroke-linejoin="round"/>
<path d="M89.5912 242.47L125.591 171.67L134.951 172.47V238C134.951 239.225 134.465 240.4 133.598 241.267C132.732 242.133 131.557 242.62 130.331 242.62H89.5312L89.5912 242.47Z" fill="white" stroke="black" stroke-miterlimit="10"/>
<g style="mix-blend-mode:multiply">
<path d="M125.6 171.67L98.0996 225.75C107.75 218.87 120.33 211.95 134.96 208.66V172.47L125.6 171.67Z" fill="#22D3EE"/>
</g>
<path d="M145.231 215.23L133.111 236.21H157.341L145.231 215.23Z" fill="#22D3EE" stroke="#2E353A" stroke-linecap="round" stroke-linejoin="round"/>
<path d="M176.95 215.23L164.84 236.21H189.07L176.95 215.23Z" fill="#22D3EE" stroke="#2E353A" stroke-linecap="round" stroke-linejoin="round"/>
<path d="M157.661 235.99H132.611V240.51H157.661V235.99Z" fill="#2E353A" stroke="#2E353A" stroke-linecap="round" stroke-linejoin="round"/>
<path d="M189.361 235.99H164.311V240.51H189.361V235.99Z" fill="#2E353A" stroke="#2E353A" stroke-linecap="round" stroke-linejoin="round"/>
<path d="M165.341 2.80994C164.793 2.18015 164.116 1.67524 163.356 1.32924C162.596 0.98324 161.771 0.804199 160.936 0.804199C160.101 0.804199 159.276 0.98324 158.516 1.32924C157.756 1.67524 157.079 2.18015 156.531 2.80994C145.001 16.0799 114.721 54.2999 114.721 90.3799V195.85L131.401 226.3H190.711L207.391 195.85V90.3799C207.391 54.2899 176.941 16.0599 165.341 2.80994Z" fill="white" stroke="black" stroke-miterlimit="10"/>
<path d="M160.68 5.00013C160.68 3.12013 155.36 14.3301 151.61 19.2301C151.67 18.8101 151.74 18.4001 151.8 17.9801C151.8 17.9801 129.51 46.4001 122.8 73.1501C122.096 75.9021 121.539 78.6893 121.13 81.5001C120.63 84.8601 120.01 160.02 119.68 204.96L131.4 226.3H160.35C159.77 224.11 161.35 214.02 160.68 211.38V5.00013Z" fill="#22D3EE"/>
<path d="M125.39 194.02C126.213 194.02 126.88 193.353 126.88 192.53C126.88 191.707 126.213 191.04 125.39 191.04C124.567 191.04 123.9 191.707 123.9 192.53C123.9 193.353 124.567 194.02 125.39 194.02Z" stroke="#2E353A" stroke-linecap="round" stroke-linejoin="round"/>
<path d="M133.51 194.02C134.332 194.02 135 193.353 135 192.53C135 191.707 134.332 191.04 133.51 191.04C132.687 191.04 132.02 191.707 132.02 192.53C132.02 193.353 132.687 194.02 133.51 194.02Z" stroke="#2E353A" stroke-linecap="round" stroke-linejoin="round"/>
<path d="M141.631 194.02C142.454 194.02 143.121 193.353 143.121 192.53C143.121 191.707 142.454 191.04 141.631 191.04C140.808 191.04 140.141 191.707 140.141 192.53C140.141 193.353 140.808 194.02 141.631 194.02Z" stroke="#2E353A" stroke-linecap="round" stroke-linejoin="round"/>
<path d="M149.75 194.02C150.573 194.02 151.24 193.353 151.24 192.53C151.24 191.707 150.573 191.04 149.75 191.04C148.927 191.04 148.26 191.707 148.26 192.53C148.26 193.353 148.927 194.02 149.75 194.02Z" stroke="#2E353A" stroke-linecap="round" stroke-linejoin="round"/>
<path d="M172.111 194.02C172.934 194.02 173.601 193.353 173.601 192.53C173.601 191.707 172.934 191.04 172.111 191.04C171.288 191.04 170.621 191.707 170.621 192.53C170.621 193.353 171.288 194.02 172.111 194.02Z" stroke="#2E353A" stroke-linecap="round" stroke-linejoin="round"/>
<path d="M180.23 194.02C181.053 194.02 181.72 193.353 181.72 192.53C181.72 191.707 181.053 191.04 180.23 191.04C179.407 191.04 178.74 191.707 178.74 192.53C178.74 193.353 179.407 194.02 180.23 194.02Z" stroke="#2E353A" stroke-linecap="round" stroke-linejoin="round"/>
<path d="M188.351 194.02C189.174 194.02 189.841 193.353 189.841 192.53C189.841 191.707 189.174 191.04 188.351 191.04C187.528 191.04 186.861 191.707 186.861 192.53C186.861 193.353 187.528 194.02 188.351 194.02Z" stroke="#2E353A" stroke-linecap="round" stroke-linejoin="round"/>
<path d="M196.47 194.02C197.293 194.02 197.96 193.353 197.96 192.53C197.96 191.707 197.293 191.04 196.47 191.04C195.648 191.04 194.98 191.707 194.98 192.53C194.98 193.353 195.648 194.02 196.47 194.02Z" stroke="#2E353A" stroke-linecap="round" stroke-linejoin="round"/>
<path d="M120.15 95.8701V194.77" stroke="#2E353A" stroke-linecap="round" stroke-linejoin="round"/>
<path d="M129.131 55.79C124.761 65.49 121.421 75.92 120.441 86.3" stroke="#2E353A" stroke-linecap="round" stroke-linejoin="round"/>
<path d="M165.561 9.64014C165.096 9.01916 164.492 8.51514 163.797 8.168C163.103 7.82086 162.337 7.64014 161.561 7.64014C160.785 7.64014 160.019 7.82086 159.325 8.168C158.631 8.51514 158.027 9.01916 157.561 9.64014C148.465 21.0605 140.501 33.3383 133.781 46.3001" stroke="#2E353A" stroke-linecap="round" stroke-linejoin="round"/>
<path d="M181.071 105.23C177.532 105.23 174.138 103.825 171.634 101.323C169.131 98.822 167.723 95.429 167.721 91.89C167.721 88.3494 169.127 84.9538 171.631 82.4502C174.134 79.9466 177.53 78.54 181.071 78.54C184.61 78.5427 188.003 79.9504 190.504 82.4537C193.006 84.957 194.411 88.3511 194.411 91.89C194.411 95.428 193.005 98.8211 190.504 101.323C188.002 103.825 184.609 105.23 181.071 105.23Z" fill="#2E353A" stroke="#2E353A" stroke-linecap="round" stroke-linejoin="round"/>
<path d="M181.07 106C178.272 106.002 175.537 105.174 173.21 103.621C170.884 102.068 169.07 99.8599 167.998 97.2757C166.927 94.6916 166.646 91.8477 167.191 89.1039C167.736 86.36 169.083 83.8396 171.061 81.8615C173.04 79.8834 175.56 78.5365 178.304 77.9912C181.048 77.4459 183.892 77.7268 186.476 78.7982C189.06 79.8697 191.268 81.6836 192.821 84.0105C194.374 86.3373 195.202 89.0725 195.2 91.87C195.195 95.6159 193.704 99.2068 191.056 101.856C188.407 104.504 184.816 105.995 181.07 106ZM181.07 79.31C178.586 79.31 176.157 80.0466 174.092 81.4267C172.026 82.8068 170.417 84.7684 169.466 87.0635C168.515 89.3585 168.267 91.8839 168.751 94.3203C169.236 96.7567 170.432 98.9947 172.189 100.751C173.945 102.508 176.183 103.704 178.62 104.189C181.056 104.673 183.581 104.425 185.876 103.474C188.171 102.523 190.133 100.913 191.513 98.8479C192.893 96.7825 193.63 94.3541 193.63 91.87C193.622 88.5431 192.296 85.3551 189.941 83.0046C187.587 80.654 184.397 79.3326 181.07 79.33V79.31Z" fill="white" stroke="#2E353A" stroke-width="0.75" stroke-miterlimit="10"/>
<path fill-rule="evenodd" clip-rule="evenodd" d="M188.76 91.56C188.681 89.7195 187.898 87.9795 186.574 86.699C185.249 85.4186 183.483 84.6954 181.641 84.6788C179.799 84.6621 178.021 85.3532 176.673 86.6094C175.326 87.8657 174.512 89.5912 174.4 91.43C174.4 91.54 174.4 91.64 174.4 91.74C174.391 93.0381 174.737 94.314 175.4 95.43L174.1 99.25L178.1 97.99C179.167 98.5727 180.363 98.8787 181.58 98.88C182.52 98.8827 183.451 98.7001 184.321 98.3427C185.191 97.9853 185.982 97.4601 186.648 96.797C187.315 96.134 187.845 95.3462 188.207 94.4785C188.569 93.6108 188.757 92.6803 188.76 91.74V91.56ZM181.58 97.74C180.395 97.7427 179.237 97.3947 178.25 96.74L175.93 97.48L176.68 95.25C175.935 94.2273 175.532 92.9953 175.53 91.73C175.52 91.5368 175.52 91.3432 175.53 91.15C175.546 89.5587 176.193 88.0389 177.329 86.9249C178.466 85.811 179.998 85.1941 181.59 85.21C183.181 85.2259 184.701 85.8733 185.815 87.0098C186.929 88.1463 187.546 89.6787 187.53 91.27C187.53 91.42 187.53 91.58 187.53 91.73C187.532 93.3144 186.908 94.8356 185.793 95.9615C184.679 97.0875 183.164 97.7268 181.58 97.74Z" fill="white"/>
<path fill-rule="evenodd" clip-rule="evenodd" d="M184.871 93.18C184.691 93.1 183.871 92.67 183.671 92.62C183.471 92.57 183.391 92.53 183.271 92.7C183.151 92.87 182.811 93.27 182.711 93.39C182.66 93.4401 182.592 93.4682 182.521 93.4682C182.45 93.4682 182.381 93.4401 182.331 93.39C181.81 93.1864 181.329 92.8919 180.911 92.52C180.517 92.1705 180.18 91.7623 179.911 91.31C179.811 91.14 179.911 91.05 179.991 90.96C180.071 90.87 180.161 90.75 180.251 90.65L180.321 90.57L180.431 90.36C180.458 90.3129 180.472 90.2594 180.472 90.205C180.472 90.1506 180.458 90.0971 180.431 90.05C180.431 89.97 180.041 89.05 179.891 88.75C179.741 88.45 179.601 88.46 179.491 88.46H179.161C179.071 88.4612 178.983 88.4814 178.902 88.5194C178.821 88.5573 178.749 88.612 178.691 88.68C178.489 88.8651 178.33 89.0912 178.223 89.343C178.116 89.5948 178.064 89.8665 178.071 90.14C178.076 90.3397 178.106 90.538 178.161 90.73C178.296 91.1683 178.509 91.5783 178.791 91.94C179.522 93.0854 180.562 94.0007 181.791 94.58C183.581 95.28 183.581 95.05 183.901 95.02C184.147 94.9748 184.381 94.8773 184.586 94.7341C184.791 94.5909 184.963 94.4054 185.091 94.19C185.206 93.9295 185.244 93.6415 185.201 93.36C185.102 93.2817 184.99 93.2208 184.871 93.18Z" fill="white"/>
<path d="M162.241 134.57C160.487 134.57 158.752 134.225 157.132 133.554C155.512 132.883 154.04 131.9 152.801 130.66C151.561 129.42 150.578 127.949 149.907 126.329C149.236 124.709 148.891 122.973 148.891 121.22C148.893 117.681 150.301 114.288 152.804 111.787C155.308 109.285 158.702 107.88 162.241 107.88C165.779 107.88 169.172 109.286 171.673 111.787C174.175 114.289 175.581 117.682 175.581 121.22C175.581 124.759 174.175 128.153 171.674 130.656C169.173 133.16 165.78 134.567 162.241 134.57Z" fill="#2E353A" stroke="#2E353A" stroke-linecap="round" stroke-linejoin="round"/>
<path d="M162.241 135.35C159.447 135.35 156.715 134.521 154.391 132.969C152.067 131.416 150.256 129.209 149.187 126.627C148.117 124.045 147.838 121.204 148.383 118.463C148.928 115.723 150.274 113.205 152.25 111.229C154.226 109.253 156.744 107.907 159.485 107.362C162.226 106.816 165.067 107.096 167.649 108.166C170.231 109.235 172.437 111.046 173.99 113.37C175.543 115.694 176.371 118.425 176.371 121.22C176.366 124.966 174.876 128.557 172.227 131.206C169.578 133.854 165.987 135.345 162.241 135.35ZM162.241 108.66C158.91 108.66 155.716 109.983 153.36 112.339C151.005 114.694 149.681 117.889 149.681 121.22C149.681 124.551 151.005 127.746 153.36 130.101C155.716 132.457 158.91 133.78 162.241 133.78C165.572 133.78 168.767 132.457 171.123 130.101C173.478 127.746 174.801 124.551 174.801 121.22C174.801 117.889 173.478 114.694 171.123 112.339C168.767 109.983 165.572 108.66 162.241 108.66Z" fill="white" stroke="#2E353A" stroke-width="0.75" stroke-miterlimit="10"/>
<path d="M170.21 117.19C170.117 116.836 169.932 116.512 169.674 116.253C169.416 115.993 169.093 115.806 168.74 115.71C164.419 115.243 160.061 115.243 155.74 115.71C155.386 115.806 155.064 115.993 154.806 116.253C154.548 116.512 154.363 116.836 154.27 117.19C153.803 119.857 153.803 122.584 154.27 125.25C154.363 125.604 154.548 125.928 154.806 126.188C155.064 126.448 155.386 126.635 155.74 126.73C160.061 127.197 164.419 127.197 168.74 126.73C169.093 126.635 169.416 126.448 169.674 126.188C169.932 125.928 170.117 125.604 170.21 125.25C170.676 122.584 170.676 119.857 170.21 117.19Z" fill="white"/>
<path d="M160.541 123.7V118.75L164.891 121.22L160.541 123.7Z" fill="#2E353A"/>
<path d="M162.241 74.1499C158.702 74.1499 155.308 72.7448 152.804 70.2434C150.301 67.7419 148.893 64.3489 148.891 60.81C148.891 57.2693 150.297 53.8737 152.801 51.3701C155.304 48.8665 158.7 47.46 162.241 47.46C165.78 47.4626 169.173 48.8703 171.674 51.3736C174.175 53.8769 175.581 57.271 175.581 60.81C175.581 64.3479 174.175 67.741 171.673 70.2428C169.172 72.7445 165.779 74.1499 162.241 74.1499Z" fill="#2E353A" stroke="#2E353A" stroke-linecap="round" stroke-linejoin="round"/>
<path d="M162.241 74.9399C159.447 74.9399 156.715 74.1112 154.391 72.5586C152.067 71.006 150.256 68.7992 149.187 66.2173C148.117 63.6353 147.838 60.7943 148.383 58.0533C148.928 55.3124 150.274 52.7946 152.25 50.8185C154.226 48.8424 156.744 47.4967 159.485 46.9514C162.226 46.4062 165.067 46.6861 167.649 47.7555C170.231 48.825 172.437 50.6361 173.99 52.9597C175.543 55.2834 176.371 58.0153 176.371 60.8099C176.366 64.5558 174.876 68.1468 172.227 70.7955C169.578 73.4443 165.987 74.9346 162.241 74.9399ZM162.241 48.2499C159.757 48.2499 157.329 48.9866 155.263 50.3667C153.198 51.7468 151.588 53.7084 150.637 56.0034C149.687 58.2985 149.438 60.8239 149.923 63.2603C150.407 65.6967 151.604 67.9346 153.36 69.6912C155.117 71.4477 157.355 72.644 159.791 73.1286C162.227 73.6132 164.753 73.3645 167.048 72.4139C169.343 71.4632 171.304 69.8534 172.685 67.7879C174.065 65.7224 174.801 63.2941 174.801 60.8099C174.799 57.4796 173.475 54.2865 171.12 51.9316C168.765 49.5767 165.572 48.2526 162.241 48.2499Z" fill="white" stroke="#2E353A" stroke-width="0.75" stroke-miterlimit="10"/>
<path d="M160.12 68.88H163.37V60.74H165.64L165.88 58.02H163.37V56.47C163.37 55.82 163.5 55.57 164.12 55.57H165.88V52.74H163.63C161.21 52.74 160.12 53.81 160.12 55.84V58H158.43V60.75H160.12V68.88Z" fill="white"/>
<path d="M143.161 167.48C139.622 167.48 136.228 166.075 133.724 163.573C131.221 161.072 129.813 157.679 129.811 154.14C129.811 150.599 131.217 147.204 133.721 144.7C136.224 142.197 139.62 140.79 143.161 140.79C146.699 140.793 150.093 142.2 152.594 144.704C155.095 147.207 156.501 150.601 156.501 154.14C156.501 157.678 155.095 161.071 152.593 163.573C150.092 166.075 146.699 167.48 143.161 167.48Z" fill="#2E353A" stroke="#2E353A" stroke-linecap="round" stroke-linejoin="round"/>
<path d="M143.16 168.27C140.362 168.272 137.627 167.444 135.3 165.891C132.973 164.338 131.159 162.13 130.088 159.546C129.017 156.962 128.736 154.118 129.281 151.374C129.826 148.63 131.173 146.11 133.151 144.132C135.129 142.153 137.65 140.806 140.394 140.261C143.137 139.716 145.981 139.997 148.566 141.068C151.15 142.14 153.358 143.954 154.911 146.28C156.464 148.607 157.292 151.343 157.29 154.14C157.284 157.886 155.794 161.477 153.145 164.126C150.497 166.774 146.906 168.265 143.16 168.27ZM143.16 141.58C140.676 141.58 138.247 142.317 136.182 143.697C134.116 145.077 132.506 147.038 131.556 149.333C130.605 151.629 130.356 154.154 130.841 156.59C131.326 159.027 132.522 161.265 134.278 163.021C136.035 164.778 138.273 165.974 140.709 166.459C143.146 166.943 145.671 166.695 147.966 165.744C150.261 164.793 152.223 163.183 153.603 161.118C154.983 159.052 155.72 156.624 155.72 154.14C155.717 150.81 154.393 147.617 152.038 145.262C149.683 142.907 146.49 141.583 143.16 141.58Z" fill="white" stroke="#2E353A" stroke-width="0.75" stroke-miterlimit="10"/>
<path d="M143.161 148.14C145.161 148.14 145.341 148.14 146.161 148.14C146.626 148.144 147.086 148.228 147.521 148.39C147.836 148.514 148.122 148.701 148.361 148.94C148.6 149.179 148.788 149.465 148.911 149.78C149.073 150.215 149.158 150.676 149.161 151.14C149.161 151.91 149.161 152.14 149.161 154.14C149.161 156.14 149.161 156.32 149.161 157.14C149.158 157.605 149.073 158.065 148.911 158.5C148.788 158.815 148.6 159.101 148.361 159.34C148.122 159.579 147.836 159.766 147.521 159.89C147.086 160.052 146.626 160.136 146.161 160.14C145.391 160.14 145.161 160.14 143.161 160.14C141.161 160.14 140.971 160.14 140.161 160.14C139.697 160.136 139.237 160.052 138.801 159.89C138.483 159.773 138.196 159.585 137.961 159.34C137.718 159.105 137.53 158.818 137.411 158.5C137.25 158.065 137.165 157.605 137.161 157.14C137.161 156.37 137.161 156.14 137.161 154.14C137.161 152.14 137.161 151.95 137.161 151.14C137.165 150.676 137.25 150.215 137.411 149.78C137.549 149.48 137.75 149.214 138.001 149C138.236 148.755 138.523 148.567 138.841 148.45C139.277 148.288 139.737 148.204 140.201 148.2C140.971 148.2 141.201 148.2 143.201 148.2M143.201 146.88C141.201 146.88 140.961 146.88 140.201 146.88C139.593 146.895 138.992 147.01 138.421 147.22C137.938 147.413 137.5 147.703 137.132 148.07C136.764 148.438 136.475 148.877 136.281 149.36C136.071 149.931 135.957 150.532 135.941 151.14C135.941 151.92 135.941 152.14 135.941 154.14C135.941 156.14 135.941 156.37 135.941 157.14C135.957 157.748 136.071 158.349 136.281 158.92C136.47 159.406 136.758 159.847 137.127 160.215C137.495 160.583 137.936 160.871 138.421 161.06C138.992 161.27 139.593 161.385 140.201 161.4C140.981 161.4 141.201 161.4 143.201 161.4C145.201 161.4 145.431 161.4 146.201 161.4C146.809 161.385 147.411 161.27 147.981 161.06C148.469 160.876 148.913 160.589 149.282 160.22C149.651 159.851 149.937 159.408 150.121 158.92C150.331 158.349 150.446 157.748 150.461 157.14C150.461 156.36 150.461 156.14 150.461 154.14C150.461 152.14 150.461 151.9 150.461 151.14C150.446 150.532 150.331 149.931 150.121 149.36C149.937 148.873 149.653 148.429 149.288 148.057C148.923 147.686 148.485 147.394 148.001 147.2C147.431 146.99 146.829 146.875 146.221 146.86C145.441 146.86 145.221 146.86 143.221 146.86" fill="white"/>
<path d="M143.161 150.38C142.417 150.378 141.689 150.597 141.069 151.009C140.449 151.421 139.966 152.007 139.68 152.694C139.394 153.381 139.318 154.137 139.462 154.867C139.606 155.597 139.963 156.268 140.488 156.795C141.014 157.322 141.684 157.681 142.413 157.827C143.143 157.973 143.9 157.899 144.587 157.615C145.275 157.33 145.863 156.848 146.276 156.23C146.69 155.611 146.911 154.884 146.911 154.14C146.911 153.144 146.516 152.19 145.813 151.485C145.11 150.78 144.156 150.383 143.161 150.38ZM143.161 156.57C142.678 156.57 142.205 156.427 141.804 156.158C141.403 155.889 141.09 155.508 140.905 155.061C140.721 154.615 140.673 154.124 140.768 153.65C140.863 153.177 141.097 152.742 141.439 152.401C141.781 152.06 142.217 151.829 142.691 151.736C143.165 151.643 143.656 151.692 144.101 151.879C144.547 152.065 144.927 152.379 145.194 152.782C145.461 153.184 145.603 153.657 145.601 154.14C145.601 154.46 145.537 154.777 145.415 155.072C145.292 155.368 145.112 155.636 144.885 155.862C144.659 156.087 144.39 156.266 144.094 156.388C143.798 156.509 143.481 156.571 143.161 156.57Z" fill="white"/>
<path d="M147.94 150.23C147.94 150.404 147.888 150.574 147.791 150.719C147.695 150.864 147.557 150.977 147.396 151.043C147.236 151.11 147.059 151.127 146.888 151.093C146.717 151.059 146.56 150.975 146.437 150.852C146.314 150.729 146.231 150.572 146.197 150.402C146.163 150.231 146.18 150.054 146.247 149.893C146.313 149.733 146.426 149.595 146.571 149.498C146.715 149.402 146.886 149.35 147.06 149.35C147.293 149.35 147.517 149.443 147.682 149.608C147.847 149.773 147.94 149.997 147.94 150.23Z" fill="white"/>
<path d="M142.161 105.23C138.622 105.23 135.228 103.825 132.724 101.323C130.221 98.822 128.813 95.429 128.811 91.89C128.811 88.3494 130.217 84.9538 132.721 82.4502C135.224 79.9466 138.62 78.54 142.161 78.54C145.699 78.5427 149.093 79.9504 151.594 82.4537C154.095 84.957 155.501 88.3511 155.501 91.89C155.501 95.428 154.095 98.8211 151.593 101.323C149.092 103.825 145.699 105.23 142.161 105.23Z" fill="#2E353A" stroke="#2E353A" stroke-linecap="round" stroke-linejoin="round"/>
<path d="M142.16 106C139.362 106.002 136.627 105.174 134.3 103.621C131.973 102.068 130.159 99.8599 129.088 97.2757C128.017 94.6916 127.736 91.8477 128.281 89.1039C128.826 86.36 130.173 83.8396 132.151 81.8615C134.129 79.8834 136.65 78.5365 139.394 77.9912C142.137 77.4459 144.981 77.7268 147.566 78.7982C150.15 79.8697 152.358 81.6836 153.911 84.0105C155.464 86.3373 156.292 89.0725 156.29 91.87C156.287 95.6167 154.798 99.2091 152.148 101.858C149.499 104.508 145.906 105.997 142.16 106ZM142.16 79.31C139.676 79.31 137.247 80.0466 135.182 81.4267C133.116 82.8068 131.506 84.7684 130.556 87.0635C129.605 89.3585 129.356 91.8839 129.841 94.3203C130.326 96.7567 131.522 98.9947 133.278 100.751C135.035 102.508 137.273 103.704 139.709 104.189C142.146 104.673 144.671 104.425 146.966 103.474C149.261 102.523 151.223 100.913 152.603 98.8479C153.983 96.7825 154.72 94.3541 154.72 91.87C154.712 88.5431 153.385 85.3551 151.031 83.0046C148.677 80.654 145.487 79.3326 142.16 79.33V79.31Z" fill="white" stroke="#2E353A" stroke-width="0.75" stroke-miterlimit="10"/>
<path d="M135.051 96.3501C136.33 97.1713 137.81 97.625 139.33 97.6615C140.849 97.6981 142.35 97.3161 143.667 96.5574C144.984 95.7987 146.067 94.6924 146.798 93.3596C147.529 92.0268 147.879 90.5186 147.811 89.0001C148.383 88.5836 148.878 88.069 149.271 87.4801C148.738 87.7192 148.171 87.8744 147.591 87.9401C148.2 87.5786 148.656 87.0056 148.871 86.3301C148.29 86.6588 147.658 86.8854 147.001 87.0001C146.564 86.5178 145.979 86.1949 145.339 86.0828C144.698 85.9707 144.038 86.0757 143.464 86.3812C142.89 86.6867 142.434 87.1752 142.169 87.7692C141.904 88.3632 141.845 89.0287 142.001 89.6601C140.843 89.6014 139.71 89.2995 138.676 88.774C137.642 88.2485 136.731 87.5112 136.001 86.6101C135.626 87.2526 135.51 88.0138 135.677 88.7386C135.845 89.4634 136.282 90.097 136.901 90.5101C136.438 90.4929 135.985 90.3661 135.581 90.1401C135.572 90.8204 135.801 91.4824 136.228 92.0119C136.655 92.5414 137.254 92.9051 137.921 93.0401C137.49 93.1574 137.039 93.1745 136.601 93.0901C136.793 93.6649 137.159 94.1659 137.648 94.5241C138.137 94.8823 138.725 95.0801 139.331 95.0901C138.127 96.059 136.588 96.512 135.051 96.3501Z" fill="white"/>
<path d="M179.721 167.48C176.182 167.48 172.788 166.075 170.285 163.573C167.781 161.072 166.374 157.679 166.371 154.14C166.371 150.599 167.778 147.204 170.281 144.7C172.785 142.197 176.18 140.79 179.721 140.79C183.26 140.793 186.653 142.2 189.155 144.704C191.656 147.207 193.061 150.601 193.061 154.14C193.061 157.678 191.656 161.071 189.154 163.573C186.652 166.075 183.259 167.48 179.721 167.48Z" fill="#2E353A" stroke="#2E353A" stroke-linecap="round" stroke-linejoin="round"/>
<path d="M179.72 168.27C176.923 168.272 174.188 167.444 171.861 165.891C169.534 164.338 167.72 162.13 166.649 159.546C165.577 156.962 165.296 154.118 165.842 151.374C166.387 148.63 167.734 146.11 169.712 144.132C171.69 142.153 174.21 140.806 176.954 140.261C179.698 139.716 182.542 139.997 185.126 141.068C187.71 142.14 189.919 143.954 191.471 146.28C193.024 148.607 193.852 151.343 193.85 154.14C193.845 157.886 192.355 161.477 189.706 164.126C187.057 166.774 183.466 168.265 179.72 168.27ZM179.72 141.58C177.236 141.58 174.808 142.317 172.742 143.697C170.677 145.077 169.067 147.038 168.116 149.333C167.166 151.629 166.917 154.154 167.402 156.59C167.886 159.027 169.083 161.265 170.839 163.021C172.596 164.778 174.834 165.974 177.27 166.459C179.706 166.943 182.232 166.695 184.527 165.744C186.822 164.793 188.783 163.183 190.164 161.118C191.544 159.052 192.28 156.624 192.28 154.14C192.278 150.81 190.954 147.617 188.599 145.262C186.244 142.907 183.051 141.583 179.72 141.58Z" fill="white" stroke="#2E353A" stroke-width="0.75" stroke-miterlimit="10"/>
<path d="M176.051 150.85H173.291V159.77H176.051V150.85Z" fill="white"/>
<path d="M174.66 149.68C175.074 149.648 175.461 149.46 175.743 149.156C176.025 148.851 176.182 148.451 176.182 148.035C176.182 147.62 176.025 147.22 175.743 146.915C175.461 146.61 175.074 146.422 174.66 146.39C174.246 146.422 173.859 146.61 173.577 146.915C173.295 147.22 173.139 147.62 173.139 148.035C173.139 148.451 173.295 148.851 173.577 149.156C173.859 149.46 174.246 149.648 174.66 149.68Z" fill="white"/>
<path d="M180.47 155.09C180.47 153.83 181.05 153.09 182.15 153.09C183.25 153.09 183.66 153.81 183.66 155.09V159.77H186.41V154.12C186.41 151.73 185.05 150.57 183.16 150.57C182.622 150.564 182.092 150.697 181.621 150.956C181.149 151.216 180.753 151.592 180.47 152.05V150.85H177.82V159.77H180.47V155.09Z" fill="white"/>
<path d="M161.06 244.83C160.53 244.83 160.021 244.619 159.646 244.244C159.271 243.869 159.06 243.36 159.06 242.83L157 172.75C156.999 172.214 157.103 171.683 157.308 171.187C157.512 170.691 157.813 170.241 158.192 169.862C158.571 169.483 159.021 169.182 159.517 168.978C160.013 168.773 160.544 168.669 161.08 168.67C161.615 168.67 162.145 168.776 162.64 168.981C163.134 169.186 163.583 169.487 163.961 169.866C164.34 170.245 164.639 170.694 164.843 171.189C165.047 171.684 165.151 172.215 165.15 172.75L163.07 242.83C163.07 243.093 163.018 243.354 162.917 243.598C162.816 243.841 162.667 244.062 162.481 244.248C162.294 244.434 162.072 244.581 161.828 244.681C161.585 244.78 161.323 244.831 161.06 244.83Z" fill="#2E353A" stroke="#2E353A" stroke-linecap="round" stroke-linejoin="round"/>
<path d="M161.131 280.65V285.32" stroke="#2E353A" stroke-linecap="round" stroke-linejoin="round"/>
<path d="M156.53 2.82001C149.094 11.3799 142.284 20.4633 136.15 30H185.84C179.674 20.443 172.823 11.3458 165.34 2.78001C164.789 2.15271 164.11 1.65086 163.349 1.3083C162.587 0.965748 161.761 0.790459 160.926 0.79425C160.091 0.798041 159.267 0.980821 158.509 1.33028C157.75 1.67973 157.076 2.18773 156.53 2.82001Z" fill="#2E353A" stroke="#2E353A" stroke-linecap="round" stroke-linejoin="round"/>
<path d="M148.771 28.6399C149.594 28.6399 150.261 27.9728 150.261 27.1499C150.261 26.327 149.594 25.6599 148.771 25.6599C147.948 25.6599 147.281 26.327 147.281 27.1499C147.281 27.9728 147.948 28.6399 148.771 28.6399Z" fill="white"/>
<path d="M158.381 27.1499C158.381 27.447 158.293 27.7374 158.127 27.9843C157.962 28.2312 157.727 28.4235 157.453 28.5367C157.178 28.6499 156.876 28.679 156.585 28.6203C156.293 28.5616 156.026 28.4178 155.817 28.207C155.607 27.9962 155.465 27.728 155.408 27.4364C155.352 27.1448 155.383 26.8429 155.498 26.5689C155.613 26.295 155.807 26.0615 156.055 25.8979C156.303 25.7342 156.594 25.648 156.891 25.6499C157.087 25.6499 157.282 25.6888 157.463 25.7643C157.645 25.8398 157.81 25.9505 157.948 26.0899C158.086 26.2293 158.196 26.3947 158.27 26.5767C158.345 26.7586 158.382 26.9534 158.381 27.1499Z" fill="white"/>
<path d="M165 28.6399C165.823 28.6399 166.49 27.9728 166.49 27.1499C166.49 26.327 165.823 25.6599 165 25.6599C164.177 25.6599 163.51 26.327 163.51 27.1499C163.51 27.9728 164.177 28.6399 165 28.6399Z" fill="white"/>
<path d="M173.121 28.6399C173.944 28.6399 174.611 27.9728 174.611 27.1499C174.611 26.327 173.944 25.6599 173.121 25.6599C172.298 25.6599 171.631 26.327 171.631 27.1499C171.631 27.9728 172.298 28.6399 173.121 28.6399Z" fill="white"/>
<path d="M145.111 27.3301C145.111 27.3301 155.111 11.2401 159.181 6.33008" stroke="white" stroke-linecap="round" stroke-linejoin="round"/>
<path d="M190.711 226.3L207.391 195.85H114.721L131.401 226.3H190.711Z" fill="#2E353A" stroke="#2E353A" stroke-linecap="round" stroke-linejoin="round"/>
<path d="M133.941 209.79C133.88 209.816 133.825 209.854 133.78 209.901C133.734 209.949 133.698 210.005 133.673 210.066C133.649 210.127 133.638 210.193 133.639 210.259C133.64 210.325 133.654 210.39 133.681 210.45L135.181 213.96C135.22 214.049 135.284 214.126 135.366 214.179C135.448 214.232 135.543 214.26 135.641 214.26C135.707 214.275 135.775 214.275 135.841 214.26C135.901 214.234 135.956 214.196 136.002 214.149C136.048 214.101 136.084 214.045 136.108 213.984C136.132 213.923 136.144 213.857 136.143 213.791C136.142 213.725 136.127 213.66 136.101 213.6L134.601 210.09C134.577 210.027 134.542 209.969 134.496 209.919C134.45 209.87 134.395 209.83 134.333 209.802C134.272 209.774 134.206 209.759 134.138 209.757C134.071 209.755 134.004 209.766 133.941 209.79Z" fill="white"/>
<path d="M136.49 203.83C136.531 203.918 136.596 203.993 136.677 204.046C136.758 204.099 136.853 204.128 136.95 204.13C137.02 204.129 137.088 204.112 137.15 204.08C137.211 204.054 137.265 204.016 137.311 203.969C137.357 203.921 137.393 203.866 137.417 203.804C137.441 203.743 137.453 203.677 137.452 203.611C137.451 203.546 137.436 203.48 137.41 203.42L134.08 195.85H133L136.49 203.83Z" fill="white"/>
<path d="M184.261 212.43C184.33 212.444 184.402 212.444 184.471 212.43C184.565 212.433 184.658 212.408 184.738 212.358C184.818 212.308 184.882 212.236 184.921 212.15L192.561 195.81H191.451L184.001 211.76C183.973 211.821 183.957 211.887 183.955 211.954C183.953 212.021 183.965 212.088 183.989 212.15C184.013 212.213 184.05 212.27 184.097 212.318C184.143 212.366 184.199 212.404 184.261 212.43Z" fill="white"/>
<path d="M135.511 225.4C135.55 225.49 135.614 225.566 135.696 225.619C135.778 225.672 135.873 225.7 135.971 225.7C136.037 225.714 136.105 225.714 136.171 225.7C136.231 225.674 136.286 225.636 136.332 225.589C136.378 225.542 136.414 225.486 136.438 225.424C136.462 225.363 136.474 225.297 136.473 225.231C136.472 225.166 136.457 225.101 136.431 225.04L123.721 195.89H122.631L135.511 225.4Z" fill="white"/>
<path d="M198.301 195.85L185.151 222.78C185.122 222.839 185.105 222.903 185.101 222.969C185.096 223.035 185.105 223.101 185.127 223.163C185.148 223.225 185.182 223.282 185.225 223.332C185.269 223.381 185.322 223.421 185.381 223.45C185.448 223.487 185.524 223.504 185.601 223.5C185.693 223.501 185.784 223.475 185.862 223.425C185.94 223.375 186.002 223.304 186.041 223.22L199.411 195.85H198.301Z" fill="white"/>
<path d="M132.71 208.2C132.749 208.29 132.813 208.366 132.895 208.419C132.977 208.472 133.072 208.5 133.17 208.5C133.236 208.515 133.304 208.515 133.37 208.5C133.43 208.474 133.485 208.436 133.531 208.389C133.577 208.342 133.613 208.286 133.637 208.224C133.661 208.163 133.673 208.097 133.672 208.031C133.67 207.966 133.656 207.9 133.63 207.84L128.52 195.89H127.43L132.71 208.2Z" fill="white"/>
<path d="M209.49 108.93V112.23" stroke="#2E353A" stroke-linecap="round" stroke-linejoin="round"/>
<path d="M209.49 89.51V106.73" stroke="#2E353A" stroke-linecap="round" stroke-linejoin="round"/>
<path d="M211.451 125.76V139.46" stroke="#2E353A" stroke-linecap="round" stroke-linejoin="round"/>
<path d="M211.111 94.1001V123.34C211.111 123.34 211.861 123.34 212.241 121.25C212.621 119.16 211.861 114.99 212.811 113.25C213.761 111.51 215.091 110.4 215.661 108.69C216.231 106.98 214.331 105.69 215.091 102.8C215.851 99.9101 219.091 101.47 218.511 97.6701C218.211 95.6701 215.991 94.9701 214.441 94.0901C213.928 93.865 213.505 93.4741 213.241 92.9801C212.931 92.2001 213.911 90.4201 213.241 89.8401C212.571 89.2601 211.571 90.1901 211.241 90.8401C210.831 91.7901 211.111 93.1301 211.111 94.1001Z" fill="white" stroke="#2E353A" stroke-miterlimit="10"/>
<path d="M84.3496 260.6V298.19" stroke="#2E353A" stroke-linecap="round" stroke-linejoin="round"/>
<path d="M84.4104 244.26V258.84C84.4104 258.84 84.0404 258.84 83.8504 257.84C83.6604 256.84 84.0404 254.72 83.5604 253.84C83.0197 253.128 82.5444 252.368 82.1404 251.57C81.8604 250.72 82.8004 250.05 82.4204 248.63C82.0404 247.21 80.4204 247.97 80.7204 246.07C80.8704 245.07 81.9804 244.73 82.7204 244.29C82.9773 244.176 83.1885 243.978 83.3204 243.73C83.4704 243.34 82.9904 242.46 83.3204 242.17C83.6504 241.88 84.1504 242.34 84.3204 242.67C84.4485 243.19 84.479 243.729 84.4104 244.26Z" fill="white" stroke="#2E353A" stroke-miterlimit="10"/>
<path d="M110.91 95.1699V110.5" stroke="#2E353A" stroke-linecap="round" stroke-linejoin="round"/>
<path d="M110.91 113.86V119.47" stroke="#2E353A" stroke-linecap="round" stroke-linejoin="round"/>
<path d="M109.08 146.59V152.2" stroke="#2E353A" stroke-linecap="round" stroke-linejoin="round"/>
<path d="M109.471 96.3499V144.35C109.471 144.35 108.711 144.35 108.331 140.92C107.951 137.49 108.711 130.62 107.761 127.82C106.811 125.02 105.481 123.14 104.911 120.33C104.341 117.52 106.241 115.33 105.481 110.66C104.721 105.99 101.481 108.47 102.061 102.23C102.361 98.9199 104.581 97.7899 106.131 96.3399C106.712 95.8737 107.131 95.2372 107.331 94.5199C107.641 93.2399 106.661 90.3099 107.331 89.3699C108.001 88.4299 109.011 89.9399 109.331 91.0299C109.741 92.5499 109.471 94.7599 109.471 96.3499Z" fill="white" stroke="#2E353A" stroke-miterlimit="10"/>
<path d="M161.131 249.16V277.15" stroke="#2E353A" stroke-linecap="round" stroke-linejoin="round"/>
<path d="M114.32 228.46V231.76" stroke="#2E353A" stroke-linecap="round" stroke-linejoin="round"/>
<path d="M114.32 209.04V226.26" stroke="#2E353A" stroke-linecap="round" stroke-linejoin="round"/>
<path d="M112.35 245.28V277.53" stroke="#2E353A" stroke-linecap="round" stroke-linejoin="round"/>
<path d="M112.7 213.63V242.87C112.7 242.87 111.94 242.87 111.56 240.78C111.18 238.69 111.94 234.51 110.99 232.78C110.04 231.05 108.71 229.93 108.14 228.22C107.57 226.51 109.47 225.22 108.71 222.33C107.95 219.44 104.71 221 105.29 217.2C105.59 215.2 107.81 214.5 109.36 213.61C109.874 213.392 110.298 213.004 110.56 212.51C110.87 211.73 109.89 209.95 110.56 209.37C111.23 208.79 112.24 209.72 112.56 210.37C113 211.32 112.7 212.66 112.7 213.63Z" fill="white" stroke="#2E353A" stroke-miterlimit="10"/>
<path d="M236.781 260.6V276.06" stroke="#2E353A" stroke-linecap="round" stroke-linejoin="round"/>
<path d="M236.721 244.26V258.84C236.721 258.84 237.101 258.84 237.291 257.84C237.481 256.84 237.101 254.72 237.571 253.84C238.111 253.128 238.587 252.368 238.991 251.57C239.271 250.72 238.331 250.05 238.711 248.63C239.091 247.21 240.711 247.97 240.411 246.07C240.261 245.07 239.161 244.73 238.411 244.29C238.154 244.176 237.942 243.978 237.811 243.73C237.661 243.34 238.151 242.46 237.811 242.17C237.471 241.88 236.981 242.34 236.811 242.67C236.678 243.189 236.647 243.729 236.721 244.26Z" fill="white" stroke="#2E353A" stroke-miterlimit="10"/>
<path d="M205.67 241.87V245.17" stroke="#2E353A" stroke-linecap="round" stroke-linejoin="round"/>
<path d="M205.67 222.45V239.67" stroke="#2E353A" stroke-linecap="round" stroke-linejoin="round"/>
<path d="M207.631 258.7V315.15" stroke="#2E353A" stroke-linecap="round" stroke-linejoin="round"/>
<path d="M207.291 227V256.25C207.291 256.25 208.051 256.25 208.431 254.16C208.811 252.07 208.051 247.89 209.001 246.16C209.951 244.43 211.281 243.31 211.851 241.6C212.421 239.89 210.521 238.6 211.281 235.72C212.041 232.84 215.281 234.39 214.691 230.59C214.391 228.59 212.181 227.88 210.631 227C210.118 226.776 209.693 226.39 209.421 225.9C209.111 225.11 210.091 223.33 209.421 222.76C208.751 222.19 207.741 223.11 207.421 223.76C207.001 224.73 207.291 226.08 207.291 227Z" fill="white" stroke="#2E353A" stroke-miterlimit="10"/>
</svg>
