<?xml version="1.0" encoding="UTF-8" standalone="no"?>
<svg
   width="153.80684"
   height="150.08501"
   viewBox="0 0 153.80682 150.085"
   fill="none"
   version="1.1"
   id="svg91"
   sodipodi:docname="Social Growth-bro 1.svg"
   inkscape:version="1.3 (0e150ed6c4, 2023-07-21)"
   xmlns:inkscape="http://www.inkscape.org/namespaces/inkscape"
   xmlns:sodipodi="http://sodipodi.sourceforge.net/DTD/sodipodi-0.dtd"
   xmlns:xlink="http://www.w3.org/1999/xlink"
   xmlns="http://www.w3.org/2000/svg"
   xmlns:svg="http://www.w3.org/2000/svg">
  <defs
     id="defs91" />
  <sodipodi:namedview
     id="namedview91"
     pagecolor="#ffffff"
     bordercolor="#000000"
     borderopacity="0.25"
     inkscape:showpageshadow="false"
     inkscape:pageopacity="0.0"
     inkscape:pagecheckerboard="false"
     inkscape:deskcolor="#d1d1d1"
     inkscape:zoom="16.186209"
     inkscape:cx="115.34511"
     inkscape:cy="71.511495"
     inkscape:window-width="1600"
     inkscape:window-height="877"
     inkscape:window-x="-8"
     inkscape:window-y="-8"
     inkscape:window-maximized="1"
     inkscape:current-layer="svg91"
     showborder="false"
     borderlayer="false"
     inkscape:clip-to-page="false" />
  <path
     d="m 122.93657,19.262929 c 0,0 -3.472,-6.3373 -8.928,-2.756 -5.456,3.5813 -3.17,8.5382 -5.759,9.3683 -2.589,0.8301 -4.608,-2.2057 -7.202,-0.8301 -2.594,1.3756 -1.731,3.5813 -3.472,3.5813 -1.741,0 -4.895,-1.3756 -6.338,-0.8254 -1.444,0.5503 -3.472,3.5813 -3.472,3.5813 0,0 -14.687,0.8254 -12.961,2.4808 1.726,1.6555 42.919,0 42.919,0 0,0 -9.503,2.201 -4.32,3.3205 5.183,1.1194 28.232,0 28.232,0 0,0 3.472,-4.1316 1.726,-6.8875 -1.746,-2.7559 -8.352,0.2751 -9.796,-1.3756 -1.443,-1.6507 2.307,-2.7559 -0.863,-6.0621 -3.169,-3.3062 -6.889,-2.4951 -9.766,-3.5955 z"
     fill="#ffffff"
     stroke="#2e353a"
     stroke-linecap="round"
     stroke-linejoin="round"
     id="path1" />
  <g
     style="mix-blend-mode:multiply"
     opacity="0.51"
     id="g2"
     transform="translate(-43.58643,-39.601571)">
    <path
       d="m 187.438,72.018 c -0.037,-0.1737 -0.037,-0.3528 0,-0.5265 -0.022,-0.5673 -0.193,-1.1203 -0.496,-1.608 -1.726,-2.756 -8.353,0.2751 -9.796,-1.3756 -1.444,-1.6507 2.306,-2.756 -0.863,-6.0621 -2.158,-2.2532 -4.578,-2.5852 -6.815,-2.9172 -0.465,0.1868 -0.909,0.4189 -1.325,0.6925 -5.456,3.5813 -3.169,8.5382 -5.763,9.3635 -2.594,0.8254 -4.608,-2.2009 -7.202,-0.8253 -2.594,1.3756 -1.726,3.5813 -3.472,3.5813 -1.746,0 -4.896,-1.3756 -6.334,-0.8254 -0.878,0.3368 -1.984,1.5938 -2.688,2.5235 9.701,-0.2182 18.605,-0.5739 18.605,-0.5739 0,0 -9.504,2.2009 -4.321,3.3204 5.184,1.1194 28.233,0 28.233,0 0,0 2.043,-2.4097 2.237,-4.7672 z"
       fill="#22d3ee"
       id="path2" />
  </g>
  <path
     d="m 30.35227,96.841429 c 0,0 -2.1377,-3.918 -5.5254,-1.702 -3.3877,2.215 -1.984,5.284001 -3.5662,5.796001 -1.5823,0.512 -2.852,-1.366001 -4.464,-0.512 -1.612,0.854 -1.0714,2.215 -2.1378,2.215 -1.0664,0 -3.0306,-0.849 -3.9234,-0.512 -0.8927998,0.336 -2.1376998,2.22 -2.1376998,2.22 0,0 -9.08179997,0.507 -8.01039997,1.555 1.07129997,1.049 26.55579977,0 26.55579977,0 0,0 -5.8825,1.362 -2.6734,2.045 3.2091,0.683 17.4691,0 17.4691,0 0,0 2.1378,-2.557 1.0714,-4.269 -1.0664,-1.713 -5.1733,0.17 -6.0612,-0.854 -0.8878,-1.025 1.4236,-1.703 -0.5356,-3.747001 -1.9592,-2.045 -4.2805,-1.552 -6.0612,-2.235 z"
     fill="#ffffff"
     stroke="#2e353a"
     stroke-linecap="round"
     stroke-linejoin="round"
     id="path3" />
  <g
     style="mix-blend-mode:multiply"
     opacity="0.51"
     id="g4"
     transform="translate(-43.58643,-39.601571)">
    <path
       d="m 85.5253,147.524 c 0,0 2.1377,-2.557 1.0713,-4.269 -1.0664,-1.713 -5.1732,0.171 -6.0611,-0.854 -0.8878,-1.025 1.4235,-1.703 -0.5357,-3.747 -1.8848,-1.969 -4.0969,-1.575 -5.8478,-2.149 -2.351,2.319 -1.3045,5.132 -2.7627,5.635 -1.6021,0.56 -2.852,-1.485 -4.464,-0.555 -1.612,0.93 -1.0714,2.41 -2.1378,2.41 -1.0664,0 -3.0305,-0.925 -3.9233,-0.555 -0.8928,0.37 -2.0188,2.215 -2.1279,2.395 6.1851,-0.133 11.9834,-0.365 11.9834,-0.365 0,0 -5.8826,1.361 -2.6734,2.044 0.8993,0.153 1.8098,0.237 2.723,0.252 3.7349,-0.124 6.4926,-0.242 6.4926,-0.242 0,0 -0.4265,0.104 -0.992,0.275 4.6029,-0.052 9.2554,-0.275 9.2554,-0.275 z"
       fill="#22d3ee"
       id="path4" />
  </g>
  <path
     d="m 54.16097,12.408729 c 0,0 -2.1378,-3.9181004 -5.5254,-1.7029 -3.3877,2.2152 -1.984,5.2842 -3.5663,5.7965 -1.5822,0.5123 -2.852,-1.3661 -4.464,-0.5123 -1.612,0.8538 -1.0713,2.2152 -2.1377,2.2152 -1.0664,0 -3.0306,-0.8538 -3.9234,-0.5123 -0.8928,0.3415 -2.1377,2.2199 -2.1377,2.2199 0,0 -9.0917,0.5075 -8.0204,1.5321 1.0714,1.0246 26.5559,0 26.5559,0 0,0 -5.8826,1.3614 -2.6735,2.0444 3.2092,0.6831 17.4691,0 17.4691,0 0,0 2.138,-2.5567 1.071,-4.269 -1.066,-1.7124 -5.173,0.1707 -6.061,-0.8539 -0.888,-1.0245 1.424,-1.7028 -0.535,-3.7473 -1.96,-2.0444 -4.2709,-1.5273 -6.0516,-2.2104 z"
     fill="#ffffff"
     stroke="#2e353a"
     stroke-linecap="round"
     stroke-linejoin="round"
     id="path5" />
  <g
     style="mix-blend-mode:multiply"
     opacity="0.51"
     id="g6"
     transform="translate(-43.58643,-39.601571)">
    <path
       d="m 109.333,63.091 c 0,0 2.138,-2.5567 1.071,-4.2691 -1.066,-1.7124 -5.173,0.1708 -6.061,-0.8538 -0.887,-1.0246 1.424,-1.7029 -0.535,-3.7473 -1.617,-1.6887 -3.472,-1.6365 -5.0794,-1.9496 -3.2438,2.2105 -1.8749,5.2178 -3.472,5.7206 -1.5971,0.5028 -2.852,-1.3661 -4.464,-0.5123 -1.612,0.8538 -1.0664,2.2152 -2.1377,2.2152 -1.0714,0 -3.0306,-0.8538 -3.9234,-0.5123 -0.8928,0.3415 -2.1377,2.2199 -2.1377,2.2199 6.1652,-0.1328 11.9387,-0.3652 11.9387,-0.3652 0,0 -5.8826,1.3614 -2.6735,2.0444 0.2946,0.0601 0.5928,0.1029 0.8928,0.1281 4.6624,-0.1233 8.3972,-0.2751 8.3972,-0.2751 0,0 -0.779,0.1802 -1.6119,0.4411 4.7669,-0.0427 9.7959,-0.2846 9.7959,-0.2846 z"
       fill="#22d3ee"
       id="path6" />
  </g>
  <path
     d="m 140.38057,33.455329 c 0,0 -2.138,-3.918 -5.525,-1.7029 -3.388,2.2152 -1.96,5.2842 -3.562,5.7965 -1.602,0.5123 -2.852,-1.3661 -4.464,-0.5123 -1.612,0.8538 -1.066,2.2152 -2.137,2.2152 -1.072,0 -3.031,-0.8538 -3.924,-0.5123 -0.893,0.3415 -2.138,2.2152 -2.138,2.2152 0,0 -9.091,0.5123 -8.02,1.5369 1.071,1.0245 26.556,0 26.556,0 0,0 -5.878,1.3613 -2.673,2.0444 3.204,0.683 17.469,0 17.469,0 0,0 2.137,-2.5567 1.071,-4.2691 -1.066,-1.7124 -5.168,0.1708 -6.061,-0.8538 -0.893,-1.0246 1.423,-1.7029 -0.536,-3.7521 -1.959,-2.0491 -4.27,-1.5226 -6.056,-2.2057 z"
     fill="#ffffff"
     stroke="#2e353a"
     stroke-linecap="round"
     stroke-linejoin="round"
     id="path7" />
  <g
     style="mix-blend-mode:multiply"
     opacity="0.51"
     id="g8"
     transform="translate(-43.58643,-39.601571)">
    <path
       d="m 195.553,84.1375 c 0,0 2.138,-2.5567 1.071,-4.2691 -1.066,-1.7124 -5.168,0.1708 -6.061,-0.8538 -0.892,-1.0246 1.275,-1.6649 -0.382,-3.5718 -0.2,-0.0479 -0.397,-0.1081 -0.59,-0.1803 -0.173,-0.2966 -0.374,-0.5776 -0.6,-0.8395 -1.458,-0.9108 -3.026,-0.8539 -4.37,-1.1764 -0.193,0.0911 -0.378,0.1958 -0.555,0.3131 -3.388,2.2151 -1.984,5.2841 -3.567,5.7917 -1.582,0.5075 -2.852,-1.3614 -4.464,-0.5076 -1.612,0.8538 -1.071,2.2152 -2.142,2.2152 -1.072,0 -3.031,-0.8538 -3.919,-0.5123 -0.669,0.2562 -1.537,1.3709 -1.929,1.8974 6.448,-0.1281 12.702,-0.3795 12.702,-0.3795 0,0 -5.877,1.3614 -2.673,2.0444 1.571,0.2231 3.159,0.3231 4.747,0.2989 l 3.551,-0.1281 c 0,0 -0.198,0.0427 -0.496,0.1233 4.732,-0.0284 9.677,-0.2656 9.677,-0.2656 z"
       fill="#22d3ee"
       id="path8" />
  </g>
  <path
     d="m 73.82557,26.985329 v 1.7503"
     stroke="#ffffff"
     stroke-linecap="round"
     stroke-linejoin="round"
     id="path9" />
  <path
     d="m 102.26557,81.160429 16.864,31.781001 c 0.124,0.236 0.184,0.498 0.172,0.762 -0.012,0.264 -0.094,0.521 -0.238,0.747 -0.145,0.225 -0.347,0.411 -0.588,0.54 -0.241,0.13 -0.513,0.198 -0.789,0.199 h -22.568 c -0.607,0.004 -1.191,-0.223 -1.623,-0.63 -0.433,-0.407 -0.678,-0.962 -0.684,-1.542 V 81.933429 Z"
     fill="#2e353a"
     stroke="#2e353a"
     stroke-linecap="round"
     stroke-linejoin="round"
     id="path10" />
  <path
     d="m 115.33157,115.13743 -17.856,-33.584001 -4.648,0.38 v 31.083001 c 0,0.582 0.241,1.139 0.671,1.55 0.43,0.411 1.013,0.642 1.621,0.642 h 20.241 c -0.007,-0.025 -0.017,-0.048 -0.029,-0.071 z"
     fill="#ffffff"
     stroke="#000000"
     stroke-miterlimit="10"
     id="path11" />
  <path
     d="m 57.56757,81.160429 -16.8637,31.781001 c -0.1242,0.236 -0.1833,0.498 -0.1717,0.762 0.0117,0.264 0.0937,0.521 0.2383,0.747 0.1446,0.225 0.347,0.411 0.5879,0.54 0.241,0.13 0.5125,0.198 0.7889,0.199 h 22.5783 c 0.605,0.001 1.186,-0.226 1.616,-0.633 0.43,-0.407 0.675,-0.961 0.68,-1.539 V 81.933429 Z"
     fill="#2e353a"
     stroke="#2e353a"
     stroke-linecap="round"
     stroke-linejoin="round"
     id="path12" />
  <path
     d="m 44.49797,115.13743 17.8556,-33.584001 4.643,0.38 v 31.083001 c 0,0.582 -0.241,1.139 -0.671,1.55 -0.43,0.411 -1.013,0.642 -1.621,0.642 h -20.2363 z"
     fill="#ffffff"
     stroke="#000000"
     stroke-miterlimit="10"
     id="path13" />
  <g
     style="mix-blend-mode:multiply"
     id="g14"
     transform="translate(-43.58643,-39.601571)">
    <path
       d="m 105.945,121.155 -13.6403,25.653 c 4.7864,-3.264 11.0263,-6.546 18.2823,-8.107 v -17.166 z"
       fill="#22d3ee"
       id="path14" />
  </g>
  <path
     d="m 72.09457,102.21643 -6.011,9.951 h 12.018 z"
     fill="#22d3ee"
     stroke="#2e353a"
     stroke-linecap="round"
     stroke-linejoin="round"
     id="path15" />
  <path
     d="m 87.82857,102.21643 -6.007,9.951 h 12.018 z"
     fill="#22d3ee"
     stroke="#2e353a"
     stroke-linecap="round"
     stroke-linejoin="round"
     id="path16" />
  <path
     d="m 78.26057,112.06343 h -12.425 v 2.144 h 12.425 z"
     fill="#2e353a"
     stroke="#2e353a"
     stroke-linecap="round"
     stroke-linejoin="round"
     id="path17" />
  <path
     d="m 93.98257,112.06343 h -12.424 v 2.144 h 12.424 z"
     fill="#2e353a"
     stroke="#2e353a"
     stroke-linecap="round"
     stroke-linejoin="round"
     id="path18" />
  <path
     d="m 82.06957,1.4565286 c -0.272,-0.2987 -0.607,-0.53819996 -0.984,-0.70239996 -0.377,-0.1641 -0.786,-0.249 -1.201,-0.249 -0.414,0 -0.823,0.0849 -1.2,0.249 -0.377,0.1642 -0.713,0.40369996 -0.984,0.70239996 -5.719,6.2945 -20.738,24.4239004 -20.738,41.5382004 v 50.0287 l 8.273,14.444001 h 29.418 l 8.273,-14.444001 v -50.0287 c 0,-17.119 -15.103,-35.2532004 -20.857,-41.5382004 z"
     fill="#ffffff"
     stroke="#000000"
     stroke-miterlimit="10"
     id="path19" />
  <path
     d="m 79.75757,2.4950286 c 0,-0.8918 -2.639,4.4256 -4.499,6.7499 0.03,-0.1992 0.065,-0.3937 0.094,-0.5929 0,0 -11.056,13.4808004 -14.384,26.1695004 -0.348,1.3054 -0.625,2.6275 -0.828,3.9607 -0.248,1.5938 -0.556,37.2452 -0.719,58.5622 l 5.813,10.123001 h 14.359 c -0.288,-1.039 0.496,-5.825 0.164,-7.078 z"
     fill="#22d3ee"
     id="path20" />
  <path
     d="m 62.25457,92.155429 c 0.408,0 0.739,-0.317 0.739,-0.707 0,-0.39 -0.331,-0.707 -0.739,-0.707 -0.409,0 -0.739,0.317 -0.739,0.707 0,0.39 0.33,0.707 0.739,0.707 z"
     stroke="#2e353a"
     stroke-linecap="round"
     stroke-linejoin="round"
     id="path21" />
  <path
     d="m 66.28157,92.155429 c 0.408,0 0.739,-0.317 0.739,-0.707 0,-0.39 -0.331,-0.707 -0.739,-0.707 -0.408,0 -0.739,0.317 -0.739,0.707 0,0.39 0.331,0.707 0.739,0.707 z"
     stroke="#2e353a"
     stroke-linecap="round"
     stroke-linejoin="round"
     id="path22" />
  <path
     d="m 70.30857,92.155429 c 0.408,0 0.739,-0.317 0.739,-0.707 0,-0.39 -0.331,-0.707 -0.739,-0.707 -0.408,0 -0.739,0.317 -0.739,0.707 0,0.39 0.331,0.707 0.739,0.707 z"
     stroke="#2e353a"
     stroke-linecap="round"
     stroke-linejoin="round"
     id="path23" />
  <path
     d="m 74.33657,92.155429 c 0.408,0 0.739,-0.317 0.739,-0.707 0,-0.39 -0.331,-0.707 -0.739,-0.707 -0.409,0 -0.739,0.317 -0.739,0.707 0,0.39 0.33,0.707 0.739,0.707 z"
     stroke="#2e353a"
     stroke-linecap="round"
     stroke-linejoin="round"
     id="path24" />
  <path
     d="m 85.42757,92.155429 c 0.409,0 0.739,-0.317 0.739,-0.707 0,-0.39 -0.33,-0.707 -0.739,-0.707 -0.408,0 -0.739,0.317 -0.739,0.707 0,0.39 0.331,0.707 0.739,0.707 z"
     stroke="#2e353a"
     stroke-linecap="round"
     stroke-linejoin="round"
     id="path25" />
  <path
     d="m 89.45557,92.155429 c 0.408,0 0.739,-0.317 0.739,-0.707 0,-0.39 -0.331,-0.707 -0.739,-0.707 -0.408,0 -0.739,0.317 -0.739,0.707 0,0.39 0.331,0.707 0.739,0.707 z"
     stroke="#2e353a"
     stroke-linecap="round"
     stroke-linejoin="round"
     id="path26" />
  <path
     d="m 93.48257,92.155429 c 0.408,0 0.739,-0.317 0.739,-0.707 0,-0.39 -0.331,-0.707 -0.739,-0.707 -0.408,0 -0.739,0.317 -0.739,0.707 0,0.39 0.331,0.707 0.739,0.707 z"
     stroke="#2e353a"
     stroke-linecap="round"
     stroke-linejoin="round"
     id="path27" />
  <path
     d="m 97.50957,92.155429 c 0.409,0 0.739,-0.317 0.739,-0.707 0,-0.39 -0.33,-0.707 -0.739,-0.707 -0.408,0 -0.739,0.317 -0.739,0.707 0,0.39 0.331,0.707 0.739,0.707 z"
     stroke="#2e353a"
     stroke-linecap="round"
     stroke-linejoin="round"
     id="path28" />
  <path
     d="m 59.65557,45.598629 v 46.9128"
     stroke="#2e353a"
     stroke-linecap="round"
     stroke-linejoin="round"
     id="path29" />
  <path
     d="m 64.10857,26.586929 c -2.168,4.6011 -3.824,9.5485 -4.31,14.4722"
     stroke="#2e353a"
     stroke-linecap="round"
     stroke-linejoin="round"
     id="path30" />
  <path
     d="m 82.17857,4.6960286 c -0.231,-0.2946 -0.531,-0.5337 -0.875,-0.6983 -0.344,-0.1647 -0.724,-0.2504 -1.109,-0.2504 -0.385,0 -0.765,0.0857 -1.109,0.2504 -0.345,0.1646 -0.644,0.4037 -0.875,0.6983 -4.512,5.4172004 -8.462,11.2410004 -11.795,17.3894004"
     stroke="#2e353a"
     stroke-linecap="round"
     stroke-linejoin="round"
     id="path31" />
  <path
     d="m 89.87157,50.038329 c -1.756,1e-4 -3.439,-0.6665 -4.681,-1.853 -1.242,-1.1866 -1.94,-2.796 -1.941,-4.4747 0,-1.6795 0.698,-3.2902 1.939,-4.4777 1.242,-1.1876 2.926,-1.8548 4.683,-1.8548 1.755,0.0013 3.438,0.669 4.679,1.8565 1.24,1.1874 1.937,2.7974 1.937,4.476 0,1.6782 -0.697,3.2877 -1.938,4.4744 -1.241,1.1867 -2.924,1.8533 -4.678,1.8533 z"
     fill="#2e353a"
     stroke="#2e353a"
     stroke-linecap="round"
     stroke-linejoin="round"
     id="path32" />
  <path
     d="m 89.87157,50.403629 c -1.388,10e-4 -2.744,-0.3917 -3.898,-1.1283 -1.155,-0.7367 -2.054,-1.7842 -2.586,-3.0099 -0.531,-1.2258 -0.67,-2.5748 -0.4,-3.8763 0.27,-1.3015 0.939,-2.4971 1.92,-3.4354 0.981,-0.9383 2.231,-1.5772 3.592,-1.8358 1.361,-0.2587 2.771,-0.1255 4.053,0.3828 1.282,0.5082 2.377,1.3686 3.147,2.4724 0.771,1.1037 1.181,2.4011 1.18,3.7281 -0.002,1.7768 -0.742,3.4801 -2.055,4.7366 -1.314,1.2564 -3.095,1.9633 -4.953,1.9658 z m 0,-12.6602 c -1.232,0 -2.437,0.3494 -3.461,1.0041 -1.025,0.6546 -1.823,1.5851 -2.295,2.6737 -0.471,1.0887 -0.595,2.2866 -0.354,3.4423 0.24,1.1557 0.834,2.2172 1.705,3.0504 0.871,0.8332 1.981,1.4007 3.189,1.6305 1.209,0.2299 2.462,0.1119 3.6,-0.339 1.138,-0.4509 2.111,-1.2145 2.796,-2.1943 0.684,-0.9797 1.05,-2.1316 1.05,-3.3099 -0.004,-1.5781 -0.662,-3.0903 -1.83,-4.2053 -1.168,-1.1149 -2.75,-1.7417 -4.4,-1.743 z"
     fill="#ffffff"
     stroke="#2e353a"
     stroke-width="0.75"
     stroke-miterlimit="10"
     id="path33" />
  <path
     fill-rule="evenodd"
     clip-rule="evenodd"
     d="m 93.68457,43.554029 c -0.039,-0.8731 -0.427,-1.6984 -1.084,-2.3058 -0.657,-0.6074 -1.533,-0.9504 -2.446,-0.9583 -0.914,-0.0079 -1.796,0.3199 -2.464,0.9158 -0.669,0.5959 -1.072,1.4144 -1.128,2.2866 0,0.0522 0,0.0996 0,0.1471 -0.005,0.6157 0.167,1.2209 0.496,1.7503 l -0.645,1.812 1.984,-0.5977 c 0.529,0.2764 1.123,0.4215 1.726,0.4222 0.466,0.0012 0.929,-0.0854 1.36,-0.2549 0.431,-0.1696 0.823,-0.4187 1.154,-0.7332 0.331,-0.3145 0.594,-0.6882 0.773,-1.0998 0.18,-0.4115 0.273,-0.8529 0.274,-1.2989 z m -3.561,2.9314 c -0.587,0.0013 -1.162,-0.1638 -1.652,-0.4743 l -1.15,0.351 0.372,-1.0578 c -0.37,-0.4851 -0.569,-1.0695 -0.571,-1.6697 -0.005,-0.0916 -0.005,-0.1835 0,-0.2751 0.008,-0.7548 0.329,-1.4757 0.893,-2.0041 0.564,-0.5284 1.324,-0.821 2.113,-0.8135 0.789,0.0075 1.543,0.3146 2.096,0.8537 0.552,0.5391 0.858,1.266 0.85,2.0208 0,0.0712 0,0.1471 0,0.2182 0.002,0.7516 -0.308,1.4731 -0.861,2.0072 -0.553,0.5341 -1.304,0.8374 -2.09,0.8436 z"
     fill="#ffffff"
     id="path34" />
  <path
     fill-rule="evenodd"
     clip-rule="evenodd"
     d="m 91.75557,44.322629 c -0.089,-0.0379 -0.496,-0.2419 -0.595,-0.2656 -0.1,-0.0237 -0.139,-0.0427 -0.199,0.0379 -0.059,0.0807 -0.228,0.2704 -0.278,0.3273 -0.025,0.0238 -0.058,0.0371 -0.094,0.0371 -0.035,0 -0.069,-0.0133 -0.094,-0.0371 -0.259,-0.0965 -0.497,-0.2363 -0.704,-0.4126 -0.196,-0.1658 -0.363,-0.3594 -0.496,-0.574 -0.05,-0.0806 0,-0.1233 0.039,-0.166 0.04,-0.0427 0.085,-0.0996 0.129,-0.1471 l 0.035,-0.0379 0.055,-0.0996 c 0.013,-0.0224 0.02,-0.0477 0.02,-0.0736 0,-0.0258 -0.007,-0.0511 -0.02,-0.0735 0,-0.0379 -0.194,-0.4743 -0.268,-0.6166 -0.075,-0.1423 -0.144,-0.1376 -0.199,-0.1376 h -0.163 c -0.045,6e-4 -0.088,0.0102 -0.129,0.0282 -0.04,0.018 -0.076,0.0439 -0.104,0.0762 -0.1,0.0878 -0.179,0.195 -0.232,0.3145 -0.054,0.1194 -0.079,0.2483 -0.076,0.378 0.002,0.0947 0.017,0.1888 0.045,0.2799 0.066,0.2079 0.172,0.4024 0.312,0.5739 0.363,0.5434 0.879,0.9775 1.488,1.2523 0.888,0.332 0.888,0.2229 1.047,0.2087 0.122,-0.0214 0.238,-0.0677 0.339,-0.1356 0.102,-0.0679 0.188,-0.1559 0.251,-0.2581 0.057,-0.1235 0.076,-0.2602 0.055,-0.3937 -0.05,-0.0372 -0.105,-0.066 -0.164,-0.0854 z"
     fill="#ffffff"
     id="path35" />
  <path
     d="m 80.53157,63.955429 c -0.87,0 -1.731,-0.164 -2.534,-0.482 -0.804,-0.318 -1.534,-0.785 -2.148,-1.373 -0.615,-0.588 -1.103,-1.286 -1.436,-2.054 -0.333,-0.7683 -0.504,-1.5917 -0.504,-2.4233 0.001,-1.6787 0.7,-3.2881 1.941,-4.4747 1.242,-1.1865 2.925,-1.853 4.681,-1.853 1.755,0 3.437,0.6666 4.678,1.8533 1.241,1.1867 1.938,2.7962 1.938,4.4744 0,1.6787 -0.697,3.2883 -1.937,4.4763 -1.241,1.187 -2.924,1.855 -4.679,1.856 z"
     fill="#2e353a"
     stroke="#2e353a"
     stroke-linecap="round"
     stroke-linejoin="round"
     id="path36" />
  <path
     d="m 80.53157,64.325429 c -1.386,0 -2.741,-0.393 -3.894,-1.129 -1.152,-0.737 -2.051,-1.784 -2.581,-3.0084 -0.531,-1.2247 -0.669,-2.5724 -0.399,-3.8725 0.27,-1.3002 0.938,-2.4944 1.918,-3.4318 0.98,-0.9373 2.229,-1.5757 3.589,-1.8343 1.359,-0.2586 2.768,-0.1259 4.049,0.3814 1.281,0.5073 2.375,1.3664 3.145,2.4686 0.77,1.1022 1.181,2.3981 1.181,3.7237 -0.002,1.7768 -0.742,3.4803 -2.055,4.7363 -1.314,1.257 -3.095,1.964 -4.953,1.966 z m 0,-12.6601 c -1.652,0 -3.237,0.6277 -4.405,1.745 -1.169,1.1173 -1.825,2.6327 -1.825,4.2128 0,1.5801 0.656,3.0953 1.825,4.2123 1.168,1.118 2.753,1.745 4.405,1.745 1.652,0 3.237,-0.627 4.405,-1.745 1.168,-1.117 1.825,-2.6322 1.825,-4.2123 0,-1.5801 -0.657,-3.0955 -1.825,-4.2128 -1.168,-1.1173 -2.753,-1.745 -4.405,-1.745 z"
     fill="#ffffff"
     stroke="#2e353a"
     stroke-width="0.75"
     stroke-miterlimit="10"
     id="path37" />
  <path
     d="m 84.48557,55.711529 c -0.046,-0.168 -0.138,-0.3214 -0.266,-0.4447 -0.128,-0.1233 -0.288,-0.212 -0.463,-0.2573 -2.143,-0.2214 -4.305,-0.2214 -6.448,0 -0.176,0.0453 -0.335,0.134 -0.463,0.2573 -0.128,0.1233 -0.22,0.2767 -0.266,0.4447 -0.232,1.2648 -0.232,2.5584 0,3.8232 0.046,0.1681 0.138,0.3215 0.266,0.4448 0.128,0.1232 0.287,0.212 0.463,0.2572 2.143,0.2217 4.305,0.2217 6.448,0 0.175,-0.0452 0.335,-0.134 0.463,-0.2572 0.128,-0.1233 0.22,-0.2767 0.266,-0.4448 0.231,-1.2648 0.231,-2.5584 0,-3.8232 z"
     fill="#ffffff"
     id="path38" />
  <path
     d="m 79.68857,58.799429 v -2.348 l 2.158,1.1716 z"
     fill="#2e353a"
     id="path39" />
  <a
     id="a91"
     xlink:href="https://www.facebook.com/Gaba.Basaglia"
     transform="translate(-43.58643,-39.601571)">
    <path
       d="m 124.118,74.8973 c -1.756,0 -3.439,-0.6666 -4.681,-1.8531 -1.241,-1.1865 -1.94,-2.796 -1.941,-4.4747 0,-1.6794 0.698,-3.2901 1.94,-4.4777 1.241,-1.1876 2.926,-1.8547 4.682,-1.8547 1.755,0.0012 3.438,0.6689 4.679,1.8564 1.24,1.1874 1.937,2.7974 1.937,4.476 0,1.6783 -0.697,3.2877 -1.938,4.4744 -1.241,1.1867 -2.923,1.8534 -4.678,1.8534 z"
       fill="#2e353a"
       stroke="#2e353a"
       stroke-linecap="round"
       stroke-linejoin="round"
       id="path40" />
  </a>
  <path
     d="m 80.53157,35.670529 c -1.386,0 -2.741,-0.3931 -3.894,-1.1295 -1.152,-0.7365 -2.051,-1.7833 -2.581,-3.008 -0.531,-1.2247 -0.669,-2.5724 -0.399,-3.8725 0.27,-1.3002 0.938,-2.4944 1.918,-3.4318 0.98,-0.9374 2.229,-1.5757 3.589,-1.8343 1.359,-0.2586 2.768,-0.1259 4.049,0.3814 1.281,0.5073 2.375,1.3663 3.145,2.4686 0.77,1.1022 1.181,2.398 1.181,3.7237 -0.002,1.7768 -0.742,3.4801 -2.055,4.7365 -1.314,1.2565 -3.095,1.9634 -4.953,1.9659 z m 0,-12.6602 c -1.232,0 -2.437,0.3494 -3.461,1.0041 -1.025,0.6546 -1.823,1.5851 -2.295,2.6737 -0.471,1.0887 -0.595,2.2866 -0.354,3.4423 0.24,1.1556 0.834,2.2172 1.705,3.0504 0.871,0.8332 1.981,1.4006 3.189,1.6305 1.209,0.2299 2.462,0.1119 3.6,-0.339 1.138,-0.4509 2.111,-1.2146 2.796,-2.1943 0.684,-0.9797 1.05,-2.1316 1.05,-3.3099 -0.002,-1.5798 -0.658,-3.0944 -1.826,-4.2114 -1.169,-1.117 -2.752,-1.7451 -4.404,-1.7464 z"
     fill="#ffffff"
     stroke="#2e353a"
     stroke-width="0.75"
     stroke-miterlimit="10"
     id="path41" />
  <path
     d="m 79.48057,32.796029 h 1.612 v -3.8612 h 1.126 l 0.119,-1.2902 h -1.245 v -0.7352 c 0,-0.3083 0.064,-0.4269 0.372,-0.4269 h 0.873 v -1.3424 h -1.116 c -1.201,0 -1.741,0.5075 -1.741,1.4705 v 1.0245 h -0.838 v 1.3045 h 0.838 z"
     fill="#ffffff"
     id="path42" />
  <path
     d="m 71.06857,79.566429 c -1.755,0 -3.439,-0.667 -4.681,-1.853 -1.241,-1.187 -1.939,-2.796 -1.941,-4.475 0,-1.679 0.698,-3.29 1.94,-4.478 1.241,-1.187 2.926,-1.854 4.682,-1.854 1.755,10e-4 3.438,0.669 4.679,1.856 1.24,1.187 1.937,2.797 1.937,4.476 0,1.678 -0.697,3.288 -1.938,4.474 -1.24,1.187 -2.923,1.854 -4.678,1.854 z"
     fill="#2e353a"
     stroke="#2e353a"
     stroke-linecap="round"
     stroke-linejoin="round"
     id="path43" />
  <path
     d="m 71.06857,79.941429 c -1.387,0.001 -2.744,-0.392 -3.898,-1.129 -1.154,-0.736 -2.054,-1.784 -2.585,-3.01 -0.532,-1.225 -0.671,-2.574 -0.401,-3.876 0.271,-1.301 0.939,-2.497 1.92,-3.435 0.981,-0.939 2.231,-1.578 3.592,-1.836 1.361,-0.259 2.772,-0.126 4.053,0.383 1.282,0.508 2.377,1.368 3.148,2.472 0.77,1.104 1.181,2.401 1.18,3.728 -0.003,1.777 -0.742,3.48 -2.056,4.737 -1.314,1.256 -3.095,1.963 -4.953,1.966 z m 0,-12.661 c -1.232,0 -2.436,0.35 -3.461,1.004 -1.024,0.655 -1.823,1.586 -2.294,2.674 -0.472,1.089 -0.595,2.287 -0.355,3.442 0.24,1.156 0.834,2.218 1.705,3.051 0.871,0.833 1.981,1.401 3.19,1.63 1.208,0.23 2.461,0.112 3.599,-0.339 1.138,-0.451 2.111,-1.214 2.796,-2.194 0.685,-0.98 1.05,-2.132 1.05,-3.31 -0.001,-1.58 -0.658,-3.094 -1.826,-4.211 -1.168,-1.117 -2.752,-1.745 -4.404,-1.747 z"
     fill="#ffffff"
     stroke="#2e353a"
     stroke-width="0.75"
     stroke-miterlimit="10"
     id="path44" />
  <path
     d="m 71.06857,70.392429 c 0.992,0 1.082,0 1.488,0 0.231,0.002 0.459,0.042 0.675,0.119 0.156,0.058 0.298,0.147 0.416,0.261 0.119,0.113 0.212,0.249 0.273,0.398 0.081,0.207 0.122,0.425 0.124,0.645 0,0.365 0,0.474 0,1.423 0,0.949 0,1.034 0,1.423 -0.002,0.22 -0.043,0.439 -0.124,0.645 -0.061,0.15 -0.154,0.285 -0.273,0.399 -0.118,0.113 -0.26,0.202 -0.416,0.261 -0.216,0.076 -0.444,0.116 -0.675,0.118 -0.382,0 -0.496,0 -1.488,0 -0.992,0 -1.086,0 -1.488,0 -0.23,-0.002 -0.458,-0.042 -0.674,-0.118 -0.158,-0.056 -0.301,-0.145 -0.417,-0.261 -0.121,-0.112 -0.214,-0.248 -0.273,-0.399 -0.08,-0.206 -0.122,-0.425 -0.124,-0.645 0,-0.365 0,-0.474 0,-1.423 0,-0.949 0,-1.039 0,-1.423 0.002,-0.22 0.044,-0.438 0.124,-0.645 0.069,-0.142 0.168,-0.268 0.293,-0.37 0.116,-0.116 0.259,-0.205 0.417,-0.261 0.216,-0.077 0.444,-0.117 0.674,-0.118 0.382,0 0.496,0 1.488,0 m 0,-0.627 c -0.992,0 -1.111,0 -1.488,0 -0.301,0.008 -0.6,0.062 -0.883,0.162 -0.239,0.091 -0.457,0.229 -0.639,0.403 -0.183,0.175 -0.326,0.383 -0.422,0.612 -0.104,0.271 -0.161,0.556 -0.169,0.844 0,0.37 0,0.474 0,1.423 0,0.949 0,1.058 0,1.423 0.008,0.289 0.065,0.574 0.169,0.845 0.094,0.23 0.236,0.439 0.419,0.614 0.183,0.174 0.401,0.311 0.642,0.401 0.283,0.099 0.582,0.154 0.883,0.161 0.387,0 0.496,0 1.488,0 0.992,0 1.106,0 1.488,0 0.302,-0.007 0.6,-0.062 0.883,-0.161 0.242,-0.088 0.462,-0.224 0.645,-0.399 0.183,-0.175 0.325,-0.385 0.416,-0.616 0.105,-0.271 0.162,-0.556 0.169,-0.845 0,-0.37 0,-0.474 0,-1.423 0,-0.949 0,-1.062 0,-1.423 -0.007,-0.288 -0.064,-0.573 -0.169,-0.844 -0.091,-0.231 -0.232,-0.442 -0.413,-0.618 -0.181,-0.176 -0.398,-0.315 -0.638,-0.407 -0.283,-0.099 -0.581,-0.154 -0.883,-0.161 -0.387,0 -0.496,0 -1.488,0"
     fill="#ffffff"
     id="path45" />
  <path
     d="m 71.06857,71.455429 c -0.369,-10e-4 -0.73,0.103 -1.037,0.298 -0.308,0.195 -0.548,0.474 -0.689,0.799 -0.142,0.326 -0.18,0.685 -0.109,1.031 0.072,0.346 0.249,0.665 0.51,0.915 0.26,0.25 0.593,0.42 0.954,0.489 0.362,0.069 0.738,0.034 1.079,-0.101 0.341,-0.134 0.632,-0.363 0.837,-0.656 0.206,-0.294 0.315,-0.639 0.315,-0.992 0,-0.472 -0.196,-0.925 -0.544,-1.259 -0.349,-0.335 -0.822,-0.523 -1.316,-0.524 z m 0,2.936 c -0.239,0 -0.474,-0.068 -0.673,-0.196 -0.199,-0.127 -0.354,-0.308 -0.446,-0.52 -0.091,-0.212 -0.115,-0.444 -0.068,-0.669 0.048,-0.225 0.163,-0.431 0.333,-0.593 0.17,-0.161 0.386,-0.271 0.621,-0.315 0.235,-0.044 0.479,-0.021 0.7,0.068 0.221,0.088 0.409,0.237 0.542,0.428 0.132,0.191 0.202,0.415 0.201,0.644 0,0.152 -0.031,0.302 -0.092,0.442 -0.061,0.141 -0.15,0.268 -0.262,0.375 -0.113,0.107 -0.246,0.192 -0.393,0.249 -0.147,0.058 -0.304,0.087 -0.463,0.087 z"
     fill="#ffffff"
     id="path46" />
  <path
     d="m 73.43857,71.383429 c 0,0.083 -0.025,0.164 -0.073,0.232 -0.048,0.069 -0.116,0.122 -0.196,0.154 -0.08,0.032 -0.168,0.04 -0.252,0.024 -0.085,-0.016 -0.163,-0.056 -0.224,-0.115 -0.061,-0.058 -0.102,-0.132 -0.119,-0.213 -0.017,-0.081 -0.008,-0.165 0.025,-0.241 0.033,-0.077 0.089,-0.142 0.16,-0.188 0.072,-0.046 0.156,-0.07 0.243,-0.07 0.116,0 0.227,0.044 0.308,0.122 0.082,0.078 0.128,0.185 0.128,0.295 z"
     fill="#ffffff"
     id="path47" />
  <path
     d="m 70.57257,50.038329 c -1.756,1e-4 -3.439,-0.6665 -4.681,-1.853 -1.241,-1.1866 -1.94,-2.796 -1.941,-4.4747 0,-1.6795 0.698,-3.2902 1.94,-4.4777 1.241,-1.1876 2.926,-1.8548 4.682,-1.8548 1.755,0.0013 3.438,0.669 4.679,1.8565 1.24,1.1874 1.937,2.7974 1.937,4.476 0,1.6782 -0.697,3.2877 -1.938,4.4744 -1.24,1.1867 -2.923,1.8533 -4.678,1.8533 z"
     fill="#2e353a"
     stroke="#2e353a"
     stroke-linecap="round"
     stroke-linejoin="round"
     id="path48" />
  <path
     d="m 70.57257,50.403629 c -1.388,10e-4 -2.744,-0.3917 -3.898,-1.1283 -1.154,-0.7367 -2.054,-1.7842 -2.586,-3.0099 -0.531,-1.2258 -0.67,-2.5748 -0.4,-3.8763 0.271,-1.3015 0.939,-2.4971 1.92,-3.4354 0.981,-0.9383 2.231,-1.5772 3.592,-1.8358 1.361,-0.2587 2.772,-0.1255 4.053,0.3828 1.282,0.5082 2.377,1.3686 3.148,2.4724 0.77,1.1037 1.18,2.4011 1.18,3.7281 -0.002,1.7772 -0.741,3.4813 -2.055,4.7379 -1.314,1.2567 -3.096,1.9633 -4.954,1.9645 z m 0,-12.6602 c -1.232,0 -2.437,0.3494 -3.461,1.0041 -1.025,0.6546 -1.823,1.5851 -2.295,2.6737 -0.471,1.0887 -0.594,2.2866 -0.354,3.4423 0.24,1.1557 0.834,2.2172 1.705,3.0504 0.871,0.8332 1.981,1.4007 3.19,1.6305 1.208,0.2299 2.461,0.1119 3.599,-0.339 1.138,-0.4509 2.111,-1.2145 2.796,-2.1943 0.684,-0.9797 1.05,-2.1316 1.05,-3.3099 -0.004,-1.5781 -0.662,-3.0903 -1.83,-4.2053 -1.168,-1.1149 -2.75,-1.7417 -4.4,-1.743 z"
     fill="#ffffff"
     stroke="#2e353a"
     stroke-width="0.75"
     stroke-miterlimit="10"
     id="path49" />
  <path
     d="m 67.04657,45.826329 c 0.634,0.3895 1.369,0.6047 2.122,0.622 0.754,0.0173 1.498,-0.1638 2.151,-0.5237 0.654,-0.3599 1.191,-0.8847 1.554,-1.5169 0.362,-0.6322 0.536,-1.3476 0.502,-2.0679 0.284,-0.1976 0.529,-0.4417 0.724,-0.721 -0.264,0.1134 -0.545,0.1871 -0.833,0.2182 0.302,-0.1715 0.528,-0.4433 0.635,-0.7637 -0.288,0.1559 -0.602,0.2634 -0.928,0.3178 -0.216,-0.2288 -0.507,-0.3819 -0.824,-0.4351 -0.318,-0.0532 -0.645,-0.0034 -0.93,0.1415 -0.285,0.145 -0.511,0.3767 -0.643,0.6584 -0.131,0.2818 -0.16,0.5975 -0.083,0.897 -0.574,-0.0279 -1.136,-0.1711 -1.649,-0.4203 -0.513,-0.2493 -0.965,-0.599 -1.327,-1.0264 -0.186,0.3047 -0.243,0.6658 -0.16,1.0096 0.083,0.3438 0.3,0.6443 0.606,0.8403 -0.229,-0.0082 -0.454,-0.0683 -0.654,-0.1755 -0.005,0.3227 0.109,0.6367 0.321,0.8878 0.212,0.2512 0.509,0.4237 0.839,0.4878 -0.213,0.0556 -0.437,0.0637 -0.654,0.0237 0.095,0.2726 0.276,0.5103 0.519,0.6802 0.242,0.1699 0.534,0.2637 0.835,0.2685 -0.598,0.4596 -1.361,0.6744 -2.123,0.5977 z"
     fill="#ffffff"
     id="path50" />
  <path
     d="m 89.20157,79.566429 c -1.756,0 -3.439,-0.667 -4.681,-1.853 -1.241,-1.187 -1.94,-2.796 -1.941,-4.475 0,-1.679 0.698,-3.29 1.939,-4.478 1.242,-1.187 2.926,-1.854 4.683,-1.854 1.755,10e-4 3.438,0.669 4.679,1.856 1.24,1.187 1.937,2.797 1.937,4.476 0,1.678 -0.697,3.288 -1.938,4.474 -1.241,1.187 -2.924,1.854 -4.678,1.854 z"
     fill="#2e353a"
     stroke="#2e353a"
     stroke-linecap="round"
     stroke-linejoin="round"
     id="path51" />
  <path
     d="m 89.20157,79.941429 c -1.388,0.001 -2.744,-0.392 -3.898,-1.129 -1.155,-0.736 -2.054,-1.784 -2.586,-3.01 -0.531,-1.225 -0.67,-2.574 -0.4,-3.876 0.271,-1.301 0.939,-2.497 1.92,-3.435 0.981,-0.939 2.231,-1.578 3.592,-1.836 1.361,-0.259 2.771,-0.126 4.053,0.383 1.282,0.508 2.377,1.368 3.148,2.472 0.77,1.104 1.18,2.401 1.179,3.728 -0.002,1.777 -0.741,3.48 -2.055,4.737 -1.314,1.256 -3.095,1.963 -4.953,1.966 z m 0,-12.661 c -1.232,0 -2.437,0.35 -3.461,1.004 -1.025,0.655 -1.823,1.586 -2.295,2.674 -0.471,1.089 -0.595,2.287 -0.354,3.442 0.24,1.156 0.834,2.218 1.705,3.051 0.871,0.833 1.981,1.401 3.19,1.63 1.208,0.23 2.461,0.112 3.599,-0.339 1.138,-0.451 2.111,-1.214 2.796,-2.194 0.684,-0.98 1.05,-2.132 1.05,-3.31 -0.002,-1.58 -0.658,-3.094 -1.826,-4.211 -1.168,-1.117 -2.752,-1.745 -4.404,-1.747 z"
     fill="#ffffff"
     stroke="#2e353a"
     stroke-width="0.75"
     stroke-miterlimit="10"
     id="path52" />
  <path
     d="m 87.38257,71.678429 h -1.369 v 4.231 h 1.369 z"
     fill="#ffffff"
     id="path53" />
  <path
     d="m 86.69157,71.122429 c 0.206,-0.015 0.397,-0.104 0.537,-0.248 0.14,-0.145 0.218,-0.335 0.218,-0.532 0,-0.197 -0.078,-0.387 -0.218,-0.531 -0.14,-0.145 -0.331,-0.234 -0.537,-0.249 -0.205,0.015 -0.397,0.104 -0.537,0.249 -0.14,0.144 -0.218,0.334 -0.218,0.531 0,0.197 0.078,0.387 0.218,0.532 0.14,0.144 0.332,0.233 0.537,0.248 z"
     fill="#ffffff"
     id="path54" />
  <path
     d="m 89.57357,73.689429 c 0,-0.598 0.288,-0.949 0.833,-0.949 0.546,0 0.749,0.341 0.749,0.949 v 2.22 h 1.364 v -2.681 c 0,-1.133 -0.674,-1.683 -1.612,-1.683 -0.266,-0.003 -0.53,0.06 -0.763,0.183 -0.234,0.123 -0.431,0.302 -0.571,0.519 v -0.57 h -1.314 v 4.232 h 1.314 z"
     fill="#ffffff"
     id="path55" />
  <path
     d="m 79.94657,116.25643 c -0.263,0 -0.515,-0.1 -0.701,-0.278 -0.186,-0.178 -0.291,-0.419 -0.291,-0.671 l -1.021,-33.241001 c -0.001,-0.255 0.051,-0.507 0.152,-0.742 0.102,-0.235 0.251,-0.449 0.439,-0.628 0.188,-0.18 0.411,-0.323 0.657,-0.42 0.246,-0.097 0.509,-0.146 0.775,-0.146 0.266,0 0.529,0.05 0.774,0.148 0.245,0.097 0.468,0.24 0.655,0.419 0.188,0.18 0.337,0.393 0.438,0.628 0.101,0.235 0.153,0.487 0.152,0.741 l -1.032,33.241001 c 0,0.125 -0.026,0.249 -0.076,0.365 -0.05,0.115 -0.123,0.22 -0.216,0.308 -0.093,0.088 -0.203,0.158 -0.324,0.205 -0.12,0.048 -0.25,0.072 -0.381,0.071 z"
     fill="#2e353a"
     stroke="#2e353a"
     stroke-linecap="round"
     stroke-linejoin="round"
     id="path56" />
  <path
     d="m 79.98157,133.24743 v 2.215"
     stroke="#2e353a"
     stroke-linecap="round"
     stroke-linejoin="round"
     id="path57" />
  <path
     d="m 77.69957,1.4609286 c -3.688,4.0603 -7.066,8.369 -10.108,12.8926004 h 24.646 c -3.059,-4.5332004 -6.457,-8.8484004 -10.168,-12.9116004 -0.273,-0.2975 -0.61,-0.53559996 -0.988,-0.69809996 -0.378,-0.1625 -0.787,-0.2456 -1.201,-0.2438 -0.415,0.0018 -0.823,0.0885 -1.2,0.2543 -0.376,0.1657 -0.71,0.40669996 -0.981,0.70659996 z"
     fill="#2e353a"
     stroke="#2e353a"
     stroke-linecap="round"
     stroke-linejoin="round"
     id="path58" />
  <path
     d="m 73.84957,13.708429 c 0.408,0 0.739,-0.3164 0.739,-0.7067 0,-0.3904 -0.331,-0.7068 -0.739,-0.7068 -0.408,0 -0.739,0.3164 -0.739,0.7068 0,0.3903 0.331,0.7067 0.739,0.7067 z"
     fill="#ffffff"
     id="path59" />
  <path
     d="m 78.61657,13.001829 c 0,0.1409 -0.044,0.2787 -0.126,0.3958 -0.082,0.1171 -0.198,0.2083 -0.335,0.262 -0.136,0.0537 -0.286,0.0675 -0.43,0.0397 -0.145,-0.0279 -0.277,-0.0961 -0.381,-0.1961 -0.104,-0.1 -0.174,-0.2272 -0.202,-0.3655 -0.029,-0.1384 -0.013,-0.2816 0.044,-0.4115 0.057,-0.1299 0.153,-0.2407 0.276,-0.3183 0.123,-0.0776 0.267,-0.1186 0.415,-0.1176 0.097,0 0.194,0.0184 0.284,0.0542 0.09,0.0358 0.171,0.0883 0.24,0.1544 0.069,0.0662 0.123,0.1447 0.16,0.2309 0.037,0.0863 0.056,0.1788 0.055,0.272 z"
     fill="#ffffff"
     id="path60" />
  <path
     d="m 81.90057,13.708429 c 0.408,0 0.739,-0.3164 0.739,-0.7067 0,-0.3904 -0.331,-0.7068 -0.739,-0.7068 -0.408,0 -0.739,0.3164 -0.739,0.7068 0,0.3903 0.331,0.7067 0.739,0.7067 z"
     fill="#ffffff"
     id="path61" />
  <path
     d="m 85.92757,13.708429 c 0.409,0 0.739,-0.3164 0.739,-0.7067 0,-0.3904 -0.33,-0.7068 -0.739,-0.7068 -0.408,0 -0.739,0.3164 -0.739,0.7068 0,0.3903 0.331,0.7067 0.739,0.7067 z"
     fill="#ffffff"
     id="path62" />
  <path
     d="m 72.03457,13.087129 c 0,0 4.96,-7.6321004 6.979,-9.9612004"
     stroke="#ffffff"
     stroke-linecap="round"
     stroke-linejoin="round"
     id="path63" />
  <path
     d="m 94.65357,107.46743 8.273,-14.444001 h -45.964 l 8.273,14.444001 z"
     fill="#2e353a"
     stroke="#2e353a"
     stroke-linecap="round"
     stroke-linejoin="round"
     id="path64" />
  <path
     d="m 66.49457,99.635429 c -0.03,0.013 -0.057,0.031 -0.079,0.053 -0.023,0.023 -0.041,0.049 -0.053,0.078 -0.012,0.029 -0.018,0.06 -0.017,0.092 0,0.031 0.007,0.062 0.021,0.09 l 0.744,1.665001 c 0.019,0.043 0.051,0.079 0.091,0.104 0.041,0.025 0.088,0.039 0.137,0.039 0.032,0.007 0.066,0.007 0.099,0 0.03,-0.013 0.057,-0.031 0.08,-0.053 0.023,-0.023 0.04,-0.049 0.052,-0.078 0.012,-0.029 0.018,-0.06 0.018,-0.092 -0.001,-0.031 -0.008,-0.062 -0.021,-0.09 l -0.744,-1.665001 c -0.012,-0.03 -0.029,-0.058 -0.052,-0.081 -0.023,-0.024 -0.05,-0.043 -0.081,-0.056 -0.03,-0.013 -0.063,-0.02 -0.097,-0.021 -0.033,-0.001 -0.066,0.004 -0.098,0.015 z"
     fill="#ffffff"
     id="path65" />
  <path
     d="m 67.75957,96.808429 c 0.021,0.042 0.053,0.077 0.093,0.103 0.04,0.025 0.087,0.039 0.135,0.04 0.035,-0.001 0.069,-0.009 0.1,-0.024 0.03,-0.013 0.057,-0.03 0.08,-0.053 0.022,-0.022 0.04,-0.049 0.052,-0.078 0.012,-0.029 0.018,-0.06 0.017,-0.091 0,-0.032 -0.007,-0.063 -0.02,-0.091 l -1.652,-3.591 h -0.536 z"
     fill="#ffffff"
     id="path66" />
  <path
     d="m 91.45357,100.88843 c 0.035,0.006 0.07,0.006 0.105,0 0.046,0.001 0.092,-0.011 0.132,-0.035 0.04,-0.023 0.071,-0.058 0.091,-0.098 l 3.789,-7.751001 h -0.55 l -3.696,7.566001 c -0.013,0.029 -0.021,0.06 -0.022,0.092 -0.001,0.031 0.004,0.063 0.016,0.093 0.013,0.029 0.031,0.056 0.054,0.079 0.023,0.023 0.051,0.041 0.081,0.054 z"
     fill="#ffffff"
     id="path67" />
  <path
     d="m 67.27257,107.04043 c 0.02,0.042 0.051,0.078 0.092,0.103 0.041,0.026 0.088,0.039 0.136,0.039 0.033,0.007 0.067,0.007 0.1,0 0.03,-0.012 0.057,-0.03 0.079,-0.053 0.023,-0.022 0.041,-0.049 0.053,-0.078 0.012,-0.029 0.018,-0.06 0.017,-0.091 0,-0.032 -0.007,-0.062 -0.021,-0.091 l -6.304,-13.827001 h -0.54 z"
     fill="#ffffff"
     id="path68" />
  <path
     d="m 98.41857,93.023429 -6.523,12.774001 c -0.014,0.028 -0.022,0.059 -0.024,0.09 -0.003,0.031 0.002,0.062 0.012,0.092 0.011,0.029 0.028,0.056 0.049,0.08 0.022,0.023 0.048,0.042 0.078,0.056 0.033,0.017 0.071,0.025 0.109,0.024 0.046,0 0.091,-0.012 0.129,-0.036 0.039,-0.024 0.07,-0.057 0.089,-0.097 l 6.631,-12.983001 z"
     fill="#ffffff"
     id="path69" />
  <path
     d="m 65.88357,98.881429 c 0.02,0.042 0.052,0.078 0.092,0.104 0.041,0.025 0.088,0.038 0.137,0.038 0.032,0.007 0.066,0.007 0.099,0 0.03,-0.012 0.057,-0.03 0.08,-0.053 0.023,-0.022 0.04,-0.049 0.052,-0.078 0.012,-0.029 0.018,-0.06 0.018,-0.091 -0.001,-0.031 -0.008,-0.062 -0.021,-0.091 l -2.535,-5.668 h -0.54 z"
     fill="#ffffff"
     id="path70" />
  <path
     d="m 103.96857,51.793429 v 1.5654"
     stroke="#2e353a"
     stroke-linecap="round"
     stroke-linejoin="round"
     id="path71" />
  <path
     d="m 103.96857,42.581729 v 8.1682"
     stroke="#2e353a"
     stroke-linecap="round"
     stroke-linejoin="round"
     id="path72" />
  <path
     d="m 104.94057,59.776629 v 6.4988"
     stroke="#2e353a"
     stroke-linecap="round"
     stroke-linejoin="round"
     id="path73" />
  <path
     d="m 104.77057,44.758929 v 13.8698 c 0,0 0.372,0 0.56,-0.9914 0.189,-0.9914 -0.188,-2.9694 0.283,-3.7947 0.471,-0.8254 1.131,-1.3519 1.414,-2.163 0.282,-0.8112 -0.66,-1.4231 -0.283,-2.7939 0.377,-1.3709 1.984,-0.6309 1.696,-2.4334 -0.149,-0.9487 -1.25,-1.2807 -2.018,-1.6981 -0.255,-0.1068 -0.465,-0.2922 -0.596,-0.5266 -0.153,-0.37 0.333,-1.2143 0,-1.4894 -0.332,-0.2751 -0.828,0.166 -0.992,0.4743 -0.203,0.4507 -0.064,1.0863 -0.064,1.5464 z"
     fill="#ffffff"
     stroke="#2e353a"
     stroke-miterlimit="10"
     id="path74" />
  <path
     d="m 41.89797,123.73743 v 17.83"
     stroke="#2e353a"
     stroke-linecap="round"
     stroke-linejoin="round"
     id="path75" />
  <path
     d="m 41.92807,115.98643 v 6.916 c 0,0 -0.1835,0 -0.2777,-0.474 -0.0943,-0.475 0.0942,-1.48 -0.1439,-1.898 -0.2682,-0.338 -0.5039,-0.698 -0.7043,-1.077 -0.1389,-0.403 0.3274,-0.721 0.1389,-1.394 -0.1885,-0.674 -0.992,-0.313 -0.8432,-1.215 0.0744,-0.474 0.6249,-0.635 0.992,-0.844 0.1274,-0.054 0.2322,-0.148 0.2976,-0.265 0.0744,-0.185 -0.1637,-0.603 0,-0.74 0.1637,-0.138 0.4117,0.08 0.496,0.237 0.0635,0.246 0.0786,0.502 0.0446,0.754 z"
     fill="#ffffff"
     stroke="#2e353a"
     stroke-miterlimit="10"
     id="path76" />
  <path
     d="m 55.07177,45.266629 v 7.2716"
     stroke="#2e353a"
     stroke-linecap="round"
     stroke-linejoin="round"
     id="path77" />
  <path
     d="m 55.07177,54.132029 v 2.6611"
     stroke="#2e353a"
     stroke-linecap="round"
     stroke-linejoin="round"
     id="path78" />
  <path
     d="m 54.16357,69.657429 v 2.661"
     stroke="#2e353a"
     stroke-linecap="round"
     stroke-linejoin="round"
     id="path79" />
  <path
     d="m 54.35757,45.826229 v 22.7682 c 0,0 -0.3769,0 -0.5654,-1.627 -0.1885,-1.627 0.1884,-4.886 -0.2828,-6.214 -0.4712,-1.3278 -1.1308,-2.2196 -1.4135,-3.5525 -0.2828,-1.3329 0.6596,-2.3717 0.2827,-4.5869 -0.377,-2.2152 -1.984,-1.0388 -1.6964,-3.9987 0.1488,-1.5701 1.25,-2.1061 2.0188,-2.7939 0.2879,-0.2212 0.4961,-0.5231 0.5952,-0.8633 0.1537,-0.6071 -0.3323,-1.997 0,-2.4429 0.3323,-0.4458 0.8333,0.2704 0.992,0.7875 0.2033,0.721 0.0694,1.7693 0.0694,2.5235 z"
     fill="#ffffff"
     stroke="#2e353a"
     stroke-miterlimit="10"
     id="path80" />
  <path
     d="m 79.98157,118.31043 v 13.277"
     stroke="#2e353a"
     stroke-linecap="round"
     stroke-linejoin="round"
     id="path81" />
  <path
     d="m 56.76357,108.49143 v 1.566"
     stroke="#2e353a"
     stroke-linecap="round"
     stroke-linejoin="round"
     id="path82" />
  <path
     d="m 56.76357,99.280429 v 8.168001"
     stroke="#2e353a"
     stroke-linecap="round"
     stroke-linejoin="round"
     id="path83" />
  <path
     d="m 55.78657,116.47043 v 15.297"
     stroke="#2e353a"
     stroke-linecap="round"
     stroke-linejoin="round"
     id="path84" />
  <path
     d="m 55.95917,101.45743 v 13.87 c 0,0 -0.377,0 -0.5655,-0.992 -0.1884,-0.991 0.1885,-2.974 -0.2827,-3.795 -0.4712,-0.82 -1.1309,-1.351 -1.4136,-2.163 -0.2827,-0.811 0.6597,-1.423 0.2827,-2.793 -0.3769,-1.371 -1.984,-0.631 -1.6963,-2.434 0.1488,-0.949 1.2499,-1.281 2.0187,-1.703 0.2553,-0.103 0.4655,-0.287 0.5952,-0.522 0.1538,-0.37 -0.3323,-1.214001 0,-1.489001 0.3324,-0.275 0.8333,0.166 0.992,0.474 0.2183,0.451001 0.0695,1.087001 0.0695,1.547001 z"
     fill="#ffffff"
     stroke="#2e353a"
     stroke-miterlimit="10"
     id="path85" />
  <path
     d="m 117.50357,123.73743 v 7.333"
     stroke="#2e353a"
     stroke-linecap="round"
     stroke-linejoin="round"
     id="path86" />
  <path
     d="m 117.47357,115.98643 v 6.916 c 0,0 0.189,0 0.283,-0.474 0.094,-0.475 -0.094,-1.48 0.139,-1.898 0.268,-0.338 0.504,-0.698 0.704,-1.077 0.139,-0.403 -0.327,-0.721 -0.139,-1.394 0.189,-0.674 0.992,-0.313 0.844,-1.215 -0.075,-0.474 -0.62,-0.635 -0.992,-0.844 -0.128,-0.054 -0.233,-0.148 -0.298,-0.265 -0.074,-0.185 0.169,-0.603 0,-0.74 -0.169,-0.138 -0.412,0.08 -0.496,0.237 -0.066,0.246 -0.081,0.502 -0.045,0.754 z"
     fill="#ffffff"
     stroke="#2e353a"
     stroke-miterlimit="10"
     id="path87" />
  <path
     d="m 102.07357,114.85243 v 1.565"
     stroke="#2e353a"
     stroke-linecap="round"
     stroke-linejoin="round"
     id="path88" />
  <path
     d="m 102.07357,105.64043 v 8.169"
     stroke="#2e353a"
     stroke-linecap="round"
     stroke-linejoin="round"
     id="path89" />
  <path
     d="m 103.04457,122.83543 v 26.777"
     stroke="#2e353a"
     stroke-linecap="round"
     stroke-linejoin="round"
     id="path90" />
  <path
     d="m 102.87557,107.79943 v 13.874 c 0,0 0.377,0 0.566,-0.991 0.188,-0.992 -0.189,-2.974 0.283,-3.795 0.471,-0.821 1.13,-1.352 1.413,-2.163 0.283,-0.811 -0.659,-1.423 -0.283,-2.789 0.377,-1.366 1.984,-0.631 1.692,-2.433 -0.149,-0.949 -1.245,-1.286 -2.014,-1.703 -0.254,-0.107 -0.465,-0.29 -0.6,-0.522 -0.154,-0.375 0.332,-1.219 0,-1.49 -0.332,-0.27 -0.833,0.166 -0.992,0.475 -0.208,0.46 -0.065,1.1 -0.065,1.537 z"
     fill="#ffffff"
     stroke="#2e353a"
     stroke-miterlimit="10"
     id="path91" />
</svg>
